<svg id="圖層_1" data-name="圖層 1" xmlns="http://www.w3.org/2000/svg" viewBox="0 0 205 205"><title>工作區域 1</title><path d="M181.25,51.88V175.62a16.88,16.88,0,0,1-16.87,16.88H40.62a16.88,16.88,0,0,1-16.87-16.88V51.88A16.88,16.88,0,0,1,40.62,35H57.5V16.72a4.23,4.23,0,0,1,4.22-4.22H75.78A4.23,4.23,0,0,1,80,16.72V35h45V16.72a4.23,4.23,0,0,1,4.22-4.22h14.06a4.23,4.23,0,0,1,4.22,4.22V35h16.88A16.88,16.88,0,0,1,181.25,51.88ZM164.38,173.52V68.75H40.62V173.52a2.11,2.11,0,0,0,2.11,2.1H162.27A2.11,2.11,0,0,0,164.38,173.52Zm-88.6-59.77H61.72a4.23,4.23,0,0,1-4.22-4.22V95.47a4.23,4.23,0,0,1,4.22-4.22H75.78A4.23,4.23,0,0,1,80,95.47v14.06A4.23,4.23,0,0,1,75.78,113.75Zm38-4.22V95.47a4.23,4.23,0,0,0-4.22-4.22H95.47a4.23,4.23,0,0,0-4.22,4.22v14.06a4.23,4.23,0,0,0,4.22,4.22h14.06A4.23,4.23,0,0,0,113.75,109.53Zm0,33.75V129.22a4.23,4.23,0,0,0-4.22-4.22H95.47a4.23,4.23,0,0,0-4.22,4.22v14.06a4.23,4.23,0,0,0,4.22,4.22h14.06A4.23,4.23,0,0,0,113.75,143.28Zm33.75,0V129.22a4.23,4.23,0,0,0-4.22-4.22H129.22a4.23,4.23,0,0,0-4.22,4.22v14.06a4.23,4.23,0,0,0,4.22,4.22h14.06A4.23,4.23,0,0,0,147.5,143.28Z" fill="#c33"/><path d="M143.28,113.75H129.22a4.23,4.23,0,0,1-4.22-4.22V95.47a4.23,4.23,0,0,1,4.22-4.22h14.06a4.23,4.23,0,0,1,4.22,4.22v14.06A4.23,4.23,0,0,1,143.28,113.75ZM80,143.28V129.22A4.23,4.23,0,0,0,75.78,125H61.72a4.23,4.23,0,0,0-4.22,4.22v14.06a4.23,4.23,0,0,0,4.22,4.22H75.78A4.23,4.23,0,0,0,80,143.28Z" fill="gray"/></svg>