<svg id="圖層_1" data-name="圖層 1" xmlns="http://www.w3.org/2000/svg" viewBox="0 0 205 205"><title>工作區域 1</title><path d="M192.37,105.62c-.36,3.62-.72,7.23-1,10.85-.05.64-.37.69-.88.69-3.44,0-6.89,0-10.34,0H138.7c.28.35.41.57.59.75,1.25,1.25,2.52,2.49,3.78,3.74l32,32c.73.74.74.74.12,1.58a90.68,90.68,0,0,1-19.64,19.62c-.2.15-.4.29-.61.42a1.65,1.65,0,0,1-.31.12l-37-37c0,.5-.07.83-.07,1.15q0,25.16,0,50.29c0,.75-.14,1.12-1,1.2-2.42.23-4.84.61-7.27.78-2.78.19-16.82-.14-21-.86-.48-.08-.66-.26-.62-.72a5.8,5.8,0,0,0,0-.59V138.36c-.37.32-.61.5-.82.72Q69,157,51.12,174.85c-.47.48-.75.49-1.28.1a91.56,91.56,0,0,1-19.91-19.88.83.83,0,0,1,.1-1.31Q46.85,137,63.64,120.18l3-2.94c-.55,0-34.73-.09-51.49-.09-1.11,0-1.17,0-1.28-1.09-.34-3.31-.72-6.63-.91-10a68,68,0,0,1,0-7.69c.16-2.88.54-5.75.83-8.62.06-.59.15-1.19.18-1.78,0-.42.19-.59.6-.57.22,0,34.09,0,50.8,0h1l.08-.2c-.16-.18-.3-.37-.46-.54Q48,68.78,30.07,50.86c-.48-.48-.54-.8-.13-1.36a91.41,91.41,0,0,1,20-19.92c.5-.36.75-.29,1.16.12Q68.95,47.6,86.84,65.48c.22.21.46.41.86.77V65.1q0-25.14,0-50.28c0-.82.21-1.15,1-1.23,2.45-.23,4.89-.6,7.34-.77,2.76-.19,5.54-.33,8.3-.28a88.11,88.11,0,0,1,12.34,1.09c.72.11.87.38.87,1q0,18.74,0,37.46V66.25c.39-.34.61-.52.82-.73q17.88-17.88,35.75-35.77c.46-.45.74-.52,1.28-.12A91.08,91.08,0,0,1,175.3,49.5c.42.57.35.89-.13,1.37q-17.79,17.75-35.56,35.54c-.26.26-.49.54-.87,1,.55,0,.91.07,1.26.07q25.11,0,50.21,0c.77,0,1.11.17,1.19,1,.23,2.43.55,4.85.78,7.27.12,1.19.31,4,.37,4.16C192.55,101.47,192.39,105.33,192.37,105.62Zm-67.1-3.33c-.13-1.87-.24-3.73-.4-5.59A51.47,51.47,0,0,0,122,83.92a1.41,1.41,0,0,0-.94-1,53.32,53.32,0,0,0-18.15-3.22,69.27,69.27,0,0,0-7.74.55A47.06,47.06,0,0,0,84.09,83a1.38,1.38,0,0,0-.74.74,51.55,51.55,0,0,0-3.24,15.95,53.48,53.48,0,0,0,3.22,21.06,1.57,1.57,0,0,0,.84.82,53.07,53.07,0,0,0,17.76,3.27,65.74,65.74,0,0,0,6.86-.4,50.51,50.51,0,0,0,12-2.75,1.77,1.77,0,0,0,1.2-1.18A56.08,56.08,0,0,0,125.27,102.29Z" fill="#ff4a00" opacity="0.8"/></svg>