<svg id="圖層_1" data-name="圖層 1" xmlns="http://www.w3.org/2000/svg" viewBox="0 0 205 205"><title>工作區域 1</title><path d="M96.44,88c-8,13.52-15.75,26.61-23.61,39.6-2,3.34-3,6.06-1.41,10.3,4.45,11.71-1.83,23.11-13.64,26.21-11.14,2.91-22-4.41-24.21-16.33-2-10.56,6.23-20.91,17.88-22.56,1-.14,2-.16,3.6-.28L72.76,95.2C61.62,84.13,55,71.18,56.46,55.14A45.55,45.55,0,0,1,70.11,26a46.32,46.32,0,0,1,57.79-6.07c17.65,11.34,25.74,33.43,18.85,52.33l-16.18-4.39c2.16-10.51.56-19.95-6.53-28-4.68-5.34-10.69-8.14-17.52-9.17-13.7-2.07-27.15,6.73-31.14,20.18C70.85,66.09,77.7,78.55,96.44,88Z" fill="#c73a63"/><path d="M119.41,72l17.12,30.19c28.82-8.91,50.55,7,58.34,24.12,9.42,20.63,3,45.07-15.51,57.8-19,13.07-43,10.84-59.8-5.95l13.19-11c16.61,10.76,31.14,10.25,41.93-2.49a28.92,28.92,0,0,0-.47-37.71C163.29,114.6,148.66,114.23,131,126c-7.34-13-14.8-25.92-21.9-39-2.4-4.42-5-7-10.44-7.91-9-1.57-14.84-9.31-15.19-18a19.6,19.6,0,0,1,34.88-13.28c4.3,5.43,5.67,11.55,3.41,18.25-.63,1.87-1.45,3.68-2.33,5.9ZM133,153.67a67,67,0,0,0,4.19,5.53A19.67,19.67,0,1,0,165.57,132c-7.53-7.72-20.39-8.46-27.38-.29-4.24,5-8.59,5.55-14.23,5.47-14.43-.23-28.87-.08-43.3-.08.93,20.3-6.74,32.95-22,36-14.91,2.94-28.63-4.67-33.47-18.54-5.48-15.77,1.3-28.38,20.92-38.38-1.48-5.35-3-10.76-4.44-16.12-21.38,4.66-37.42,25.4-35.77,48.73,1.47,20.6,18.08,38.89,38.4,42.17a46.27,46.27,0,0,0,31-5.53c12.38-7,19.56-18.06,22.89-31.74Z" fill="#4b4b4b"/></svg>