<?xml version="1.0" encoding="utf-8"?>
<!-- Generator: Adobe Illustrator 24.0.1, SVG Export Plug-In . SVG Version: 6.00 Build 0)  -->
<svg version="1.1" id="圖層_1" xmlns="http://www.w3.org/2000/svg" xmlns:xlink="http://www.w3.org/1999/xlink" x="0px" y="0px"
	 viewBox="0 0 220 200" style="enable-background:new 0 0 220 200;" xml:space="preserve">
<style type="text/css">
	.st0{fill:#D50E0E;}
</style>
<g>
	<path class="st0" d="M208.3,57.1l-6.5-3.8c0.7-3.6,0.7-7.2,0-10.8l6.5-3.8c0.8-0.4,1.1-1.3,0.8-2.1c-1.7-5.5-4.6-10.4-8.4-14.5
		c-0.6-0.6-1.5-0.8-2.3-0.4l-6.5,3.8c-2.7-2.4-5.9-4.2-9.3-5.4v-7.5c0-0.9-0.6-1.6-1.4-1.8c-5.6-1.3-11.4-1.2-16.7,0
		c-0.8,0.2-1.4,0.9-1.4,1.8v7.5c-3.4,1.2-6.6,3-9.3,5.4l-6.5-3.8c-0.8-0.4-1.7-0.3-2.3,0.4c-3.8,4.1-6.7,9-8.4,14.5
		c-0.3,0.8,0.1,1.7,0.8,2.1l6.5,3.8c-0.7,3.6-0.7,7.2,0,10.8l-6.5,3.8c-0.8,0.4-1.1,1.3-0.8,2.1c1.7,5.5,4.6,10.4,8.4,14.5
		c0.6,0.6,1.5,0.8,2.3,0.4l6.5-3.8c2.7,2.4,5.9,4.2,9.3,5.4v7.5c0,0.9,0.6,1.6,1.4,1.8c5.6,1.3,11.4,1.2,16.7,0
		c0.8-0.2,1.4-0.9,1.4-1.8v-7.5c3.4-1.2,6.6-3,9.3-5.4l6.5,3.8c0.8,0.4,1.7,0.3,2.3-0.4c3.8-4.1,6.7-9,8.4-14.5
		C209.4,58.4,209.1,57.6,208.3,57.1z M172.9,60.2c-6.8,0-12.3-5.5-12.3-12.3s5.5-12.3,12.3-12.3s12.3,5.5,12.3,12.3
		S179.6,60.2,172.9,60.2z"/>
	<path class="st0" d="M145,136.1l-12.2-7c1.2-6.6,1.2-13.5,0-20.1l12.2-7c1.4-0.8,2-2.5,1.6-4c-3.2-10.2-8.6-19.4-15.7-27.1
		c-1.1-1.2-2.9-1.5-4.2-0.7l-12.2,7c-5.1-4.4-11-7.8-17.4-10V53.1c0-1.6-1.1-3-2.7-3.3c-10.5-2.3-21.3-2.2-31.3,0
		c-1.6,0.3-2.7,1.7-2.7,3.3v14.1c-6.4,2.3-12.3,5.7-17.4,10l-12.2-7c-1.4-0.8-3.1-0.5-4.2,0.7c-7.1,7.6-12.5,16.9-15.7,27.1
		c-0.5,1.5,0.2,3.2,1.6,4l12.2,7c-1.2,6.6-1.2,13.5,0,20.1l-12.2,7c-1.4,0.8-2,2.5-1.6,4c3.2,10.2,8.6,19.4,15.7,27.1
		c1.1,1.2,2.9,1.5,4.2,0.7l12.2-7c5.1,4.4,11,7.8,17.4,10v14.1c0,1.6,1.1,3,2.7,3.3c10.5,2.3,21.3,2.2,31.3,0
		c1.6-0.3,2.7-1.7,2.7-3.3v-14.1c6.4-2.3,12.3-5.7,17.4-10l12.2,7c1.4,0.8,3.1,0.5,4.2-0.7c7.1-7.6,12.5-16.9,15.7-27.1
		C147,138.5,146.4,136.9,145,136.1z M78.7,141.9c-12.6,0-22.9-10.3-22.9-22.9s10.3-22.9,22.9-22.9s22.9,10.3,22.9,22.9
		S91.3,141.9,78.7,141.9z"/>
</g>
</svg>
