<svg id="圖層_1" data-name="圖層 1" xmlns="http://www.w3.org/2000/svg" viewBox="0 0 182 182"><title>工作區域 1</title><path d="M23.5,164.13A16.88,16.88,0,0,0,40.38,181H141.62a16.88,16.88,0,0,0,16.88-16.87h0V46H23.5Zm95.62-90a5.63,5.63,0,1,1,11.25,0v78.75a5.63,5.63,0,0,1-11.25,0Zm-33.74,0a5.62,5.62,0,1,1,11.24,0v78.75a5.62,5.62,0,0,1-11.24,0Zm-33.75,0a5.63,5.63,0,1,1,11.25,0v78.75a5.63,5.63,0,0,1-11.25,0ZM164.12,12.25H121.94l-3.31-6.57A8.44,8.44,0,0,0,111.07,1H70.89a8.32,8.32,0,0,0-7.52,4.68l-3.31,6.57H17.88a5.63,5.63,0,0,0-5.63,5.63V29.13a5.63,5.63,0,0,0,5.63,5.62H164.12a5.63,5.63,0,0,0,5.63-5.62V17.88A5.63,5.63,0,0,0,164.12,12.25Z" fill="#c33"/></svg>