<svg id="圖層_1" data-name="圖層 1" xmlns="http://www.w3.org/2000/svg" viewBox="0 0 195 195"><title>工作區域 1</title><path d="M192.5,177.88a7.3,7.3,0,0,1-7.31,7.3H55.94l21.92-21.92H185.19a7.31,7.31,0,0,1,7.31,7.31Zm0-36.54V134a7.31,7.31,0,0,0-7.31-7.31H114.4L92.48,148.65h92.71A7.31,7.31,0,0,0,192.5,141.34Z" fill="gray"/><path d="M29.21,185.18a14.64,14.64,0,0,0,10.34-4.28L145.23,75.19,112.48,42.44,6.78,148.15A14.62,14.62,0,0,0,2.5,158.48v19.4a7.3,7.3,0,0,0,7.31,7.3ZM155.55,64.87,122.8,32.08,141.89,13a11,11,0,0,1,15.49,0l17.31,17.29a11,11,0,0,1,0,15.44Z" fill="#c33"/></svg>