<svg id="圖層_1" data-name="圖層 1" xmlns="http://www.w3.org/2000/svg" viewBox="0 0 200 200"><title>工作區域 1</title><path d="M116.78,173.75l-23,10.44a9,9,0,0,1-7.48,0L4.36,147.07c-5.81-2.64-5.81-11.43,0-14.07l20.35-9.22,56.9,25.8a20.35,20.35,0,0,0,16.78,0l12-5.44A45.29,45.29,0,0,0,110,150,44.82,44.82,0,0,0,116.78,173.75ZM4.36,57l81.9,37.15a9,9,0,0,0,7.48,0L175.63,57c5.82-2.64,5.82-11.43,0-14.07L93.74,5.81a9,9,0,0,0-7.48,0L4.36,43C-1.45,45.6-1.45,54.4,4.36,57Z" fill="gray"/><path d="M155,105a45,45,0,0,1,11.21,1.41l9.43-4.27c5.81-2.64,5.81-11.43,0-14.06l-20.43-9.26L98.39,104.58a20.25,20.25,0,0,1-16.78,0L24.79,78.82,4.36,88.08c-5.81,2.63-5.81,11.42,0,14.06l81.9,37.12a9,9,0,0,0,7.48,0l21.11-9.57A45,45,0,0,1,155,105Z" fill="gray" opacity="0.5"/><path d="M155,105a45,45,0,1,0,45,45A45,45,0,0,0,155,105Zm27.26,48.89a3.89,3.89,0,0,1-3.89,3.9H162.79v15.58a3.89,3.89,0,0,1-3.9,3.89h-7.78a3.89,3.89,0,0,1-3.9-3.89V157.79H131.63a3.89,3.89,0,0,1-3.89-3.9v-7.78a3.89,3.89,0,0,1,3.89-3.9h15.58V126.63a3.89,3.89,0,0,1,3.9-3.89h7.78a3.89,3.89,0,0,1,3.9,3.89v15.58h15.58a3.89,3.89,0,0,1,3.89,3.9Z" fill="#c33"/><path d="M131.63,157.79h15.58v15.58a3.89,3.89,0,0,0,3.9,3.89h7.78a3.89,3.89,0,0,0,3.9-3.89V157.79h15.58a3.89,3.89,0,0,0,3.89-3.9v-7.78a3.89,3.89,0,0,0-3.89-3.9H162.79V126.63a3.89,3.89,0,0,0-3.9-3.89h-7.78a3.89,3.89,0,0,0-3.9,3.89v15.58H131.63a3.89,3.89,0,0,0-3.89,3.9v7.78A3.89,3.89,0,0,0,131.63,157.79Z" fill="#fff"/></svg>