<svg id="圖層_1" data-name="圖層 1" xmlns="http://www.w3.org/2000/svg" viewBox="0 0 192 192"><title>工作區域 1</title><path d="M1.34,96a7.31,7.31,0,0,1,7.31-7.31H42.43L20.5,110.58H8.65a7.31,7.31,0,0,1-7.31-7.31ZM191,169.07a7.31,7.31,0,0,0-7.31-7.31H76.36L54.44,183.68H183.69a7.3,7.3,0,0,0,7.31-7.3Zm0-29.23v-7.31a7.31,7.31,0,0,0-7.31-7.31H112.9L91,147.15h92.71A7.31,7.31,0,0,0,191,139.84ZM191,96a7.31,7.31,0,0,0-7.31-7.31H149.43l-21.92,21.92h56.18a7.3,7.3,0,0,0,7.31-7.3Zm0-37a7.32,7.32,0,0,0-3.73-6.38,7.83,7.83,0,0,0-1-.47c-.8-.3-21.37,21.46-21.37,21.46h18.81A7.31,7.31,0,0,0,191,66.28ZM1.34,59.43v7.31a7.31,7.31,0,0,0,7.31,7.31H57L79,52.13H8.65A7.3,7.3,0,0,0,1.34,59.43Z" fill="gray"/><path d="M27.71,183.68a14.64,14.64,0,0,0,10.34-4.28L143.73,73.69,111,40.94,5.28,146.65A14.62,14.62,0,0,0,1,157v19.4a7.3,7.3,0,0,0,7.31,7.3ZM154.05,63.37,121.3,30.58,140.39,11.5a11,11,0,0,1,15.49,0l17.31,17.29a11,11,0,0,1,0,15.44Z" fill="#c33"/></svg>