<svg id="圖層_1" data-name="圖層 1" xmlns="http://www.w3.org/2000/svg" viewBox="0 0 182 182"><title>工作區域 1</title><path d="M136,34.75V1H65.69a8.44,8.44,0,0,0-8.44,8.44V138.81a8.44,8.44,0,0,0,8.44,8.44h95.62a8.44,8.44,0,0,0,8.44-8.44V34.75Z" fill="gray" opacity="0.4" style="isolation:isolate"/><path d="M46,138.81V34.75H20.69a8.44,8.44,0,0,0-8.44,8.44V172.56A8.44,8.44,0,0,0,20.69,181h95.62a8.44,8.44,0,0,0,8.44-8.44V158.5H65.69A19.71,19.71,0,0,1,46,138.81ZM167.29,26.66l-23.2-23.2a8.44,8.44,0,0,0-6-2.46H136V34.75h33.75V32.62A8.49,8.49,0,0,0,167.29,26.66Z" fill="gray"/></svg>