<svg id="圖層_1" data-name="圖層 1" xmlns="http://www.w3.org/2000/svg" viewBox="0 0 205 205"><title>工作區域 1</title><path d="M183.21,27.5H21.79C11.14,27.5,2.5,34.7,2.5,43.57V161.43c0,8.87,8.64,16.07,19.29,16.07H183.21c10.65,0,19.29-7.2,19.29-16.07V43.57C202.5,34.7,193.86,27.5,183.21,27.5ZM79,128.63a4.43,4.43,0,0,1,0,6.28l-6.28,6.29a4.45,4.45,0,0,1-6.28,0L30.85,105.64a4.45,4.45,0,0,1,0-6.28L66.41,63.81a4.43,4.43,0,0,1,6.28,0L79,70.09a4.43,4.43,0,0,1,0,6.28L52.85,102.5Zm95.18-23L138.59,141.2a4.45,4.45,0,0,1-6.28,0L126,134.91h0a4.44,4.44,0,0,1,0-6.28l26.13-26.13L126,76.37a4.44,4.44,0,0,1,0-6.29l6.28-6.28a4.45,4.45,0,0,1,6.28,0l35.56,35.56A4.45,4.45,0,0,1,174.15,105.64Z" fill="#c33"/><path d="M79,76.37,52.85,102.5,79,128.63a4.43,4.43,0,0,1,0,6.28l-6.28,6.29a4.45,4.45,0,0,1-6.28,0L30.85,105.64a4.45,4.45,0,0,1,0-6.28L66.41,63.81a4.43,4.43,0,0,1,6.28,0L79,70.09A4.43,4.43,0,0,1,79,76.37ZM126,134.91h0l6.28,6.29a4.45,4.45,0,0,0,6.28,0l35.56-35.56a4.45,4.45,0,0,0,0-6.28L138.59,63.8a4.45,4.45,0,0,0-6.28,0L126,70.08a4.44,4.44,0,0,0,0,6.29l26.13,26.13L126,128.63A4.44,4.44,0,0,0,126,134.91Z" fill="#fff"/></svg>