<svg id="圖層_1" data-name="圖層 1" xmlns="http://www.w3.org/2000/svg" viewBox="0 0 205 205"><title>工作區域 1</title><path d="M183.8,27.29H21.3A18.75,18.75,0,0,0,2.55,46v112.5A18.74,18.74,0,0,0,21.3,177.29H183.8a18.75,18.75,0,0,0,18.75-18.75V46A18.76,18.76,0,0,0,183.8,27.29Zm0,18.75V62c-8.76,7.14-22.73,18.23-52.58,41.6-6.57,5.18-19.61,17.61-28.67,17.46-9.07.15-22.1-12.29-28.68-17.46C44,80.21,30.06,69.12,21.3,62V46ZM21.3,158.54V86c9,7.13,21.64,17.14,41,32.29,8.54,6.72,23.49,21.55,40.26,21.46,16.68.09,31.45-14.53,40.25-21.46,19.35-15.15,32-25.16,41-32.29v72.5Z" fill="gray"/></svg>