<svg id="圖層_1" data-name="圖層 1" xmlns="http://www.w3.org/2000/svg" viewBox="0 0 205 205"><title>工作區域 1</title><path d="M111.4,147a2.65,2.65,0,0,1-1.63.55,2.76,2.76,0,0,1-2.77-2.77V125.38H84.88a14.78,14.78,0,0,1-14.76-14.76V44.25A14.77,14.77,0,0,1,84.88,29.5h44.5v-.12A16.88,16.88,0,0,0,112.5,12.5H33.75A16.87,16.87,0,0,0,16.88,29.38V175.62A16.87,16.87,0,0,0,33.75,192.5H112.5a16.88,16.88,0,0,0,16.88-16.88V133.48Zm-38.28,34.3A11.25,11.25,0,1,1,84.38,170,11.23,11.23,0,0,1,73.12,181.25Z" fill="gray" opacity="0.8"/><path d="M173.38,29.5H84.88A14.77,14.77,0,0,0,70.12,44.25v66.37a14.78,14.78,0,0,0,14.76,14.76H107v19.35a2.76,2.76,0,0,0,2.77,2.77,2.65,2.65,0,0,0,1.63-.55l28.79-21.57h33.19a14.76,14.76,0,0,0,14.74-14.76V44.25A14.76,14.76,0,0,0,173.38,29.5ZM99.62,84.81A7.38,7.38,0,1,1,107,77.44,7.36,7.36,0,0,1,99.62,84.81Zm29.5,0a7.38,7.38,0,1,1,7.38-7.37A7.36,7.36,0,0,1,129.12,84.81Zm29.5,0A7.38,7.38,0,1,1,166,77.44,7.36,7.36,0,0,1,158.62,84.81Z" fill="#c33"/><path d="M107,77.44a7.38,7.38,0,1,1-7.38-7.38A7.37,7.37,0,0,1,107,77.44Zm22.12-7.38a7.38,7.38,0,1,0,7.38,7.38A7.37,7.37,0,0,0,129.12,70.06Zm29.5,0A7.38,7.38,0,1,0,166,77.44,7.37,7.37,0,0,0,158.62,70.06Z" fill="#fff"/></svg>