<svg id="圖層_1" data-name="圖層 1" xmlns="http://www.w3.org/2000/svg" viewBox="0 0 190 190"><title>工作區域 1</title><path d="M165.33,4.54H23.9A19.29,19.29,0,0,0,4.62,23.83V165.26A19.28,19.28,0,0,0,23.9,184.54H165.33a19.29,19.29,0,0,0,19.29-19.28V23.83A19.29,19.29,0,0,0,165.33,4.54ZM77.77,100.59l29.58,14.79a22,22,0,1,1-6.73,15.83,22.19,22.19,0,0,1,.17-2.72L69.1,112.65a22,22,0,1,1,0-36.22l31.69-15.84a22.41,22.41,0,0,1-.17-2.71,22,22,0,1,1,6.73,15.83L77.77,88.5A22,22,0,0,1,77.77,100.59Z" fill="#6bb73e"/></svg>