<svg id="圖層_1" data-name="圖層 1" xmlns="http://www.w3.org/2000/svg" viewBox="0 0 230 230"><title>工作區域 1</title><path d="M96.19,37.73H120.9V76.39a8.9,8.9,0,0,0,8.92,8.92h38.66v41.11a47.83,47.83,0,0,1,17.85,0V68.92a18,18,0,0,0-5.24-12.64L149.9,25.09a17.86,17.86,0,0,0-12.61-5.25H82.55A47.76,47.76,0,0,1,96.19,37.73Zm42.55,1.45L167,67.47H138.74Zm-4.88,153.2H61.41V103.59a47.41,47.41,0,0,1-8.81.83,47.92,47.92,0,0,1-9-.86v88.82a17.85,17.85,0,0,0,17.84,17.85h86.13A47.75,47.75,0,0,1,133.86,192.38Z" fill="gray"/><path d="M129.81,173.17a48.25,48.25,0,0,1,.51-6.94H119.49V152.6h15a48.5,48.5,0,0,1,5.72-9.09h-20.7V129.88h22.73v11.24a47.45,47.45,0,0,1,9.09-7.74V107.15a4.55,4.55,0,0,0-4.55-4.54H83.14a4.54,4.54,0,0,0-4.55,4.54v63.63a4.54,4.54,0,0,0,4.55,4.54h46.72C129.83,174.61,129.81,173.89,129.81,173.17ZM87.68,111.7h54.54v9.09H87.68Zm22.72,54.53H87.68V152.6H110.4Zm0-22.72H87.68V129.88H110.4Z" fill="gray" opacity="0.8"/><path d="M177.4,125.58A47.6,47.6,0,1,0,225,173.17,47.59,47.59,0,0,0,177.4,125.58Zm25.47,47.59H185.79v29.36a4.19,4.19,0,0,1-4.19,4.19h-8.39a4.2,4.2,0,0,1-4.19-4.19V173.17H151.94A4.19,4.19,0,0,1,149,166l25.26-25.08a4.47,4.47,0,0,1,6.3,0L205.82,166A4.19,4.19,0,0,1,202.87,173.17Z" fill="#6bb73e"/><path d="M174.25,140.92a4.47,4.47,0,0,1,6.3,0L205.82,166a4.19,4.19,0,0,1-2.95,7.17H185.79v29.36a4.18,4.18,0,0,1-4.19,4.19h-8.39a4.19,4.19,0,0,1-4.19-4.19V173.17H151.94A4.19,4.19,0,0,1,149,166Z" fill="#fff"/><path d="M52.6,9.23a47.6,47.6,0,1,0,47.59,47.6A47.6,47.6,0,0,0,52.6,9.23ZM81.43,61a4.11,4.11,0,0,1-4.12,4.11H60.83V81.54a4.11,4.11,0,0,1-4.11,4.12H48.48a4.11,4.11,0,0,1-4.12-4.12V65.06H27.88A4.12,4.12,0,0,1,23.76,61V52.71a4.12,4.12,0,0,1,4.12-4.12H44.36V32.11A4.12,4.12,0,0,1,48.48,28h8.24a4.12,4.12,0,0,1,4.11,4.12V48.59H77.31a4.11,4.11,0,0,1,4.12,4.12Z" fill="#c33"/><path d="M27.88,65.06H44.36V81.54a4.11,4.11,0,0,0,4.12,4.12h8.24a4.11,4.11,0,0,0,4.11-4.12V65.06H77.31A4.11,4.11,0,0,0,81.43,61V52.71a4.11,4.11,0,0,0-4.12-4.12H60.83V32.11A4.12,4.12,0,0,0,56.72,28H48.48a4.12,4.12,0,0,0-4.12,4.12V48.59H27.88a4.12,4.12,0,0,0-4.12,4.12V61A4.12,4.12,0,0,0,27.88,65.06Z" fill="#fff"/></svg>