<svg id="圖層_1" data-name="圖層 1" xmlns="http://www.w3.org/2000/svg" viewBox="0 0 205 205"><title>工作區域 1</title><path d="M102.1,170.66H33.59V24.41H89.84V61a8.42,8.42,0,0,0,8.44,8.44h36.56v38.88a44.32,44.32,0,0,1,16.87,0V53.91a17,17,0,0,0-5-12l-29.5-29.49a16.84,16.84,0,0,0-11.92-5H33.59A16.93,16.93,0,0,0,16.72,24.41V170.66a16.88,16.88,0,0,0,16.87,16.87H115A45.07,45.07,0,0,1,102.1,170.66Zm4.62-144.88,26.75,26.75H106.72Z" fill="gray"/><path d="M98.27,152.49a45.73,45.73,0,0,1,.48-6.56H88.51V133h14.17a45,45,0,0,1,5.41-8.6H88.51V111.55H110v10.63a45.34,45.34,0,0,1,8.6-7.32V90.06a4.31,4.31,0,0,0-4.3-4.3H54.13a4.31,4.31,0,0,0-4.3,4.3v60.17a4.31,4.31,0,0,0,4.3,4.3H98.32C98.29,153.85,98.27,153.17,98.27,152.49ZM58.43,94.36H110V103H58.43Zm21.49,51.57H58.43V133H79.92Zm0-21.49H58.43V111.55H79.92Z" fill="gray" opacity="0.8"/><path d="M143.27,107.48a45,45,0,1,0,45,45A45,45,0,0,0,143.27,107.48Zm24.09,45H151.21v27.76a4,4,0,0,1-4,4h-7.93a4,4,0,0,1-4-4V152.49H119.19a4,4,0,0,1-2.79-6.78L140.3,122a4.23,4.23,0,0,1,5.95,0l23.9,23.72A4,4,0,0,1,167.36,152.49Z" fill="#6bb73e"/><path d="M140.3,122a4.23,4.23,0,0,1,5.95,0l23.9,23.72a4,4,0,0,1-2.79,6.78H151.21v27.76a4,4,0,0,1-4,4h-7.93a4,4,0,0,1-4-4V152.49H119.19a4,4,0,0,1-2.79-6.78Z" fill="#fff"/></svg>