<svg id="圖層_1" data-name="圖層 1" xmlns="http://www.w3.org/2000/svg" viewBox="0 0 205 205"><title>工作區域 1</title><path d="M105.52,152.5a44.34,44.34,0,0,1,.31-5.18H61.89a1.81,1.81,0,0,1-1.81-1.81V52.7a1.81,1.81,0,0,1,1.81-1.81h22.3v67.5a14.47,14.47,0,0,0,14.47,14.47H110a45.08,45.08,0,0,1,11.16-14.47H100.46a1.8,1.8,0,0,1-1.8-1.81V23.77a1.8,1.8,0,0,1,1.8-1.81h36.77V41.25a9.63,9.63,0,0,0,9.64,9.64h19.29v59.4A45.19,45.19,0,0,1,180.59,119c0-.21,0-.41,0-.63V37.6a14.43,14.43,0,0,0-4.24-10.23L160.75,11.74A14.43,14.43,0,0,0,150.52,7.5H98.66A14.47,14.47,0,0,0,84.19,22V36.43H60.08A14.46,14.46,0,0,0,45.62,50.89V62.14H23.94A14.46,14.46,0,0,0,9.48,76.61V173A14.46,14.46,0,0,0,23.94,187.5h67.5A14.47,14.47,0,0,0,105.91,173V161.79h.58A45.19,45.19,0,0,1,105.52,152.5ZM151.69,23.13,165,36.43h-13.3ZM91.44,171.23A1.81,1.81,0,0,1,89.63,173H25.75a1.81,1.81,0,0,1-1.81-1.81V78.42a1.81,1.81,0,0,1,1.81-1.81H45.62v70.71a14.47,14.47,0,0,0,14.46,14.47H91.44Z" fill="gray"/><path d="M150.52,107.5a45,45,0,1,0,45,45A45,45,0,0,0,150.52,107.5Zm24.08,45H158.45v27.75a4,4,0,0,1-4,4h-7.93a4,4,0,0,1-4-4V152.5H126.45a4,4,0,0,1-2.79-6.78L147.54,122a4.22,4.22,0,0,1,6,0l23.89,23.71A4,4,0,0,1,174.6,152.5Z" fill="#6bb73e"/><path d="M147.54,122a4.22,4.22,0,0,1,6,0l23.89,23.71a4,4,0,0,1-2.79,6.78H158.45v27.75a4,4,0,0,1-4,4h-7.93a4,4,0,0,1-4-4V152.5H126.45a4,4,0,0,1-2.79-6.78Z" fill="#fff"/></svg>