<svg id="圖層_1" data-name="圖層 1" xmlns="http://www.w3.org/2000/svg" viewBox="0 0 205 205"><title>工作區域 1</title><path d="M106.92,158.71,92.55,173.07a49.22,49.22,0,0,1-69.61-69.6C34.46,91.94,41.16,85.22,45.23,81.16A4.22,4.22,0,0,1,52.44,84a60.84,60.84,0,0,0,1.66,13.3A4.18,4.18,0,0,1,53,101.27L36.86,117.39a29.53,29.53,0,1,0,41.77,41.76l26.43-26.43a29.53,29.53,0,0,0-8-47.47,4.23,4.23,0,0,1-2.31-4.34,18.22,18.22,0,0,1,5.21-10.69l1.54-1.54a4.22,4.22,0,0,1,4.84-.81A49.08,49.08,0,0,1,119,77h0a49,49,0,0,1,14.38,34.28,45,45,0,0,0-26.44,47.4ZM90.71,127.13a4.22,4.22,0,0,0,4.84-.81l1.53-1.54a18.1,18.1,0,0,0,5.21-10.69,4.23,4.23,0,0,0-2.3-4.34,29.53,29.53,0,0,1-8-47.47L118.4,35.85a29.53,29.53,0,0,1,41.77,41.76L144.05,93.73a4.19,4.19,0,0,0-1.13,3.93,60.89,60.89,0,0,1,1.55,10.39,45,45,0,0,1,7-.55,45.5,45.5,0,0,1,6.21.44c4-4,9.24-9.26,16.38-16.41a49.17,49.17,0,0,0,0-69.6h0a49.18,49.18,0,0,0-69.6,0C75.59,50.81,76.81,49.45,74.62,52.17a49.22,49.22,0,0,0,16.09,75Z" fill="#c33"/><path d="M151.49,107.5a45,45,0,1,0,45,45A45,45,0,0,0,151.49,107.5Zm24.07,45H159.42v27.75a4,4,0,0,1-4,4h-7.93a4,4,0,0,1-4-4V152.5H127.41a4,4,0,0,1-2.79-6.78L148.51,122a4.22,4.22,0,0,1,6,0l23.89,23.71A4,4,0,0,1,175.56,152.5Z" fill="#6bb73e"/><path d="M148.51,122a4.22,4.22,0,0,1,6,0l23.89,23.71a4,4,0,0,1-2.8,6.78H159.42v27.75a4,4,0,0,1-4,4h-7.93a4,4,0,0,1-4-4V152.5H127.41a4,4,0,0,1-2.79-6.78Z" fill="#fff"/></svg>