<svg id="圖層_1" data-name="圖層 1" xmlns="http://www.w3.org/2000/svg" viewBox="0 0 25 25"><title>工作區域 1</title><path d="M20.5,1.5H4.5a3,3,0,0,0-3,3v16a3,3,0,0,0,3,3h16a3,3,0,0,0,3-3V4.5A3,3,0,0,0,20.5,1.5Zm-8,5.05a3,3,0,0,1,3,3,3,3,0,0,1-.29,1.27l-.07,0-.21-.12a.92.92,0,0,0-.52-.14,1.07,1.07,0,0,0-.77.33,4.88,4.88,0,0,0-1,1.57l-.15,0a3,3,0,0,1,0-5.95ZM6.55,8.25A1.7,1.7,0,1,1,4.85,10,1.7,1.7,0,0,1,6.55,8.25ZM4.85,15.9A.85.85,0,0,1,4,15.05V14.2a1.7,1.7,0,0,1,1.7-1.7H7.4A1.72,1.72,0,0,1,8.6,13a3.92,3.92,0,0,0-2,2.91Zm3.83,2.55A1.28,1.28,0,0,1,7.4,17.17v-.76a3.06,3.06,0,0,1,3.06-3.06h.22a4.3,4.3,0,0,0,1.82.42h.26A1.33,1.33,0,0,0,13,14l.21.13v.2a1.14,1.14,0,0,0-.68,1.34,4.85,4.85,0,0,0,1.07,1.85,1,1,0,0,0,.76.33,1.26,1.26,0,0,0,.73-.26l.19.11v.24a1,1,0,0,0,.16.54Zm11.54-3.69.68.4a.2.2,0,0,1,.09.23,4,4,0,0,1-.88,1.52.2.2,0,0,1-.24,0l-.69-.4a3,3,0,0,1-1,.57v.79a.19.19,0,0,1-.15.19,4,4,0,0,1-1.76,0,.2.2,0,0,1-.15-.19v-.79a3.11,3.11,0,0,1-1-.57l-.68.4a.2.2,0,0,1-.24,0,3.87,3.87,0,0,1-.88-1.52.19.19,0,0,1,.08-.23l.69-.4a3.07,3.07,0,0,1,0-1.13l-.69-.39a.2.2,0,0,1-.08-.23,3.87,3.87,0,0,1,.88-1.52.19.19,0,0,1,.24,0l.68.4a3.11,3.11,0,0,1,1-.57v-.79a.2.2,0,0,1,.15-.19,4,4,0,0,1,1.76,0,.19.19,0,0,1,.15.19v.79a3,3,0,0,1,1,.57l.69-.4a.19.19,0,0,1,.24,0A4,4,0,0,1,21,13a.2.2,0,0,1-.09.23l-.68.39A3.07,3.07,0,0,1,20.22,14.76Zm-3-1.85a1.29,1.29,0,1,0,1.28,1.29A1.29,1.29,0,0,0,17.18,12.91Z" fill="#c33"/><path d="M20.22,14.76a3.07,3.07,0,0,0,0-1.13l.68-.39A.2.2,0,0,0,21,13a4,4,0,0,0-.88-1.52.19.19,0,0,0-.24,0l-.69.4a3,3,0,0,0-1-.57v-.79a.19.19,0,0,0-.15-.19,4,4,0,0,0-1.76,0,.2.2,0,0,0-.15.19v.79a3.11,3.11,0,0,0-1,.57l-.68-.4a.19.19,0,0,0-.24,0A3.87,3.87,0,0,0,13.36,13a.2.2,0,0,0,.08.23l.69.39a3.07,3.07,0,0,0,0,1.13l-.69.4a.19.19,0,0,0-.08.23,3.87,3.87,0,0,0,.88,1.52.2.2,0,0,0,.24,0l.68-.4a3.11,3.11,0,0,0,1,.57v.79a.2.2,0,0,0,.15.19,4,4,0,0,0,1.76,0,.19.19,0,0,0,.15-.19v-.79a3,3,0,0,0,1-.57l.69.4a.2.2,0,0,0,.24,0A4,4,0,0,0,21,15.39a.2.2,0,0,0-.09-.23Zm-3,.73a1.29,1.29,0,1,1,1.28-1.29A1.29,1.29,0,0,1,17.18,15.49ZM6.55,11.65A1.7,1.7,0,1,0,4.85,10,1.7,1.7,0,0,0,6.55,11.65Zm6,.85.15,0a4.88,4.88,0,0,1,1-1.57,1.07,1.07,0,0,1,.77-.33.92.92,0,0,1,.52.14l.21.12.07,0a3,3,0,0,0,.29-1.27,3,3,0,1,0-3,3Zm2.8,5.17-.19-.11a1.26,1.26,0,0,1-.73.26,1,1,0,0,1-.76-.33,4.85,4.85,0,0,1-1.07-1.85,1.14,1.14,0,0,1,.68-1.34v-.2L13,14a1.33,1.33,0,0,1-.26-.21H12.5a4.3,4.3,0,0,1-1.82-.42h-.22A3.06,3.06,0,0,0,7.4,16.41v.76a1.28,1.28,0,0,0,1.28,1.28h6.78a1,1,0,0,1-.16-.54v-.24ZM8.6,13a1.72,1.72,0,0,0-1.2-.49H5.7A1.7,1.7,0,0,0,4,14.2v.85a.85.85,0,0,0,.85.85H6.6A3.92,3.92,0,0,1,8.6,13Z" fill="#fff"/></svg>