<svg id="圖層_1" data-name="圖層 1" xmlns="http://www.w3.org/2000/svg" viewBox="0 0 25 25"><title>工作區域 1</title><path d="M20.5,1.5H4.5a3,3,0,0,0-3,3v16a3,3,0,0,0,3,3h16a3,3,0,0,0,3-3V4.5A3,3,0,0,0,20.5,1.5Zm-3.59,9.31L12,19.36a.67.67,0,0,1-1.24-.49L12,13.4H8.68A.67.67,0,0,1,8,12.64l.9-6.75a.67.67,0,0,1,.67-.59h4.05a.68.68,0,0,1,.65.85L13.08,9.8h3.25A.67.67,0,0,1,16.91,10.81Z" fill="#c33"/><path d="M16.33,9.8H13.08l1.2-3.65a.68.68,0,0,0-.65-.85H9.58a.67.67,0,0,0-.67.59L8,12.63a.67.67,0,0,0,.67.77H12l-1.29,5.47a.67.67,0,0,0,1.24.49l4.95-8.55A.67.67,0,0,0,16.33,9.8Z" fill="#fff"/></svg>