<svg id="圖層_1" data-name="圖層 1" xmlns="http://www.w3.org/2000/svg" viewBox="0 0 25 25"><title>工作區域 1</title><path d="M20.5,1.5H4.5a3,3,0,0,0-3,3v16a3,3,0,0,0,3,3h16a3,3,0,0,0,3-3V4.5A3,3,0,0,0,20.5,1.5ZM4.73,8.22a.34.34,0,0,1,.21-.32l5.61-2.35a.33.33,0,0,1,.42.19l.24.64a.35.35,0,0,1-.18.44l-4.69,2,4.69,2a.35.35,0,0,1,.18.45l-.24.63a.32.32,0,0,1-.42.19L4.94,9.66a.34.34,0,0,1-.21-.32Zm6.74,10.55a.29.29,0,0,1-.3.29H4.79a.29.29,0,0,1-.29-.29v-.58a.29.29,0,0,1,.29-.29h6.38a.29.29,0,0,1,.3.29Zm0-2.9a.29.29,0,0,1-.3.29H4.79a.29.29,0,0,1-.29-.29v-.58A.29.29,0,0,1,4.79,15h6.38a.29.29,0,0,1,.3.29Zm8.8,1.72a.34.34,0,0,1-.21.32l-5.61,2.35a.32.32,0,0,1-.42-.19l-.24-.63A.36.36,0,0,1,14,19l4.69-2-4.69-2a.34.34,0,0,1-.18-.44L14,14a.32.32,0,0,1,.42-.19l5.61,2.34a.34.34,0,0,1,.21.32Zm.23-10a.29.29,0,0,1-.29.29H18.49L17.05,9.65h3.16a.29.29,0,0,1,.29.29v.58a.29.29,0,0,1-.29.29H16.1l-1.58,1.92a.29.29,0,0,1-.41,0l-.46-.35a.3.3,0,0,1-.06-.41l1-1.21h-.76a.29.29,0,0,1-.3-.29V9.94a.29.29,0,0,1,.3-.29h1.72L17,7.91H13.83a.29.29,0,0,1-.3-.29V7a.29.29,0,0,1,.3-.29h4.11l1.58-1.92a.29.29,0,0,1,.41,0l.46.35a.3.3,0,0,1,.05.41l-1,1.21h.77A.29.29,0,0,1,20.5,7Z" fill="#3361ad"/><path d="M4.94,9.66,10.55,12a.32.32,0,0,0,.42-.19l.24-.63a.35.35,0,0,0-.18-.45l-4.69-2,4.69-2a.35.35,0,0,0,.18-.44L11,5.74a.33.33,0,0,0-.42-.19L4.94,7.9a.34.34,0,0,0-.21.32V9.34A.34.34,0,0,0,4.94,9.66Zm8.85,9.78.24.63a.32.32,0,0,0,.42.19l5.61-2.35a.34.34,0,0,0,.21-.32V16.47a.34.34,0,0,0-.21-.32l-5.61-2.34A.32.32,0,0,0,14,14l-.24.63a.34.34,0,0,0,.18.44l4.69,2L14,19A.36.36,0,0,0,13.79,19.44ZM20.21,7.91a.29.29,0,0,0,.29-.29V7a.29.29,0,0,0-.29-.29h-.77l1-1.21a.3.3,0,0,0-.05-.41l-.46-.35a.29.29,0,0,0-.41,0L17.94,6.75H13.83a.29.29,0,0,0-.3.29v.58a.29.29,0,0,0,.3.29H17L15.55,9.65H13.83a.29.29,0,0,0-.3.29v.58a.29.29,0,0,0,.3.29h.76l-1,1.21a.3.3,0,0,0,.06.41l.46.35a.29.29,0,0,0,.41,0l1.58-1.92h4.11a.29.29,0,0,0,.29-.29V9.94a.29.29,0,0,0-.29-.29H17.05l1.44-1.74Zm-9,10H4.79a.29.29,0,0,0-.29.29v.58a.29.29,0,0,0,.29.29h6.38a.29.29,0,0,0,.3-.29v-.58A.29.29,0,0,0,11.17,17.9Zm0-2.9H4.79a.29.29,0,0,0-.29.29v.58a.29.29,0,0,0,.29.29h6.38a.29.29,0,0,0,.3-.29v-.58A.29.29,0,0,0,11.17,15Z" fill="#fff"/></svg>