<svg id="圖層_1" data-name="圖層 1" xmlns="http://www.w3.org/2000/svg" viewBox="0 0 25 25"><title>工作區域 1</title><path d="M20.5,1.5H4.5a3,3,0,0,0-3,3v16a3,3,0,0,0,3,3h16a3,3,0,0,0,3-3V4.5A3,3,0,0,0,20.5,1.5ZM19.5,18A1.5,1.5,0,0,1,18,19.5H7A1.5,1.5,0,0,1,5.5,18V7A1.5,1.5,0,0,1,7,5.5H18A1.5,1.5,0,0,1,19.5,7Z" fill="#6bb73e"/><path d="M7,18H18V7H7Zm1.12-5.6.71-.7a.37.37,0,0,1,.53,0l1.87,1.89L15.65,9.2a.38.38,0,0,1,.53,0l.7.71a.37.37,0,0,1,0,.53L11.49,15.8a.38.38,0,0,1-.53,0L8.12,12.93A.37.37,0,0,1,8.12,12.4Z" fill="#6bb73e"/><path d="M18,5.5H7A1.5,1.5,0,0,0,5.5,7V18A1.5,1.5,0,0,0,7,19.5H18A1.5,1.5,0,0,0,19.5,18V7A1.5,1.5,0,0,0,18,5.5ZM18,18H7V7H18Zm-1.12-7.55L11.49,15.8a.38.38,0,0,1-.53,0L8.12,12.93a.37.37,0,0,1,0-.53l.71-.7a.37.37,0,0,1,.53,0l1.87,1.89L15.65,9.2a.38.38,0,0,1,.53,0l.7.71a.37.37,0,0,1,0,.53Z" fill="#fff"/></svg>