<svg id="圖層_1" data-name="圖層 1" xmlns="http://www.w3.org/2000/svg" viewBox="0 0 25 25"><title>工作區域 1</title><path d="M20.5,1.5H4.5a3,3,0,0,0-3,3v16a3,3,0,0,0,3,3h16a3,3,0,0,0,3-3V4.5A3,3,0,0,0,20.5,1.5ZM10.35,16.35l-2.5,3a.48.48,0,0,1-.7,0l-2.5-3A.5.5,0,0,1,5,15.5H6.5V6A.5.5,0,0,1,7,5.5H8a.5.5,0,0,1,.5.5v9.5H10A.5.5,0,0,1,10.35,16.35ZM14.5,19a.5.5,0,0,1-.5.5H12a.5.5,0,0,1-.5-.5V18a.5.5,0,0,1,.5-.5h2a.5.5,0,0,1,.5.5Zm2-4a.5.5,0,0,1-.5.5H12a.5.5,0,0,1-.5-.5V14a.5.5,0,0,1,.5-.5h4a.5.5,0,0,1,.5.5Zm2-4a.5.5,0,0,1-.5.5H12a.5.5,0,0,1-.5-.5V10a.5.5,0,0,1,.5-.5h6a.5.5,0,0,1,.5.5Zm2-4a.5.5,0,0,1-.5.5H12a.5.5,0,0,1-.5-.5V6a.5.5,0,0,1,.5-.5h8a.5.5,0,0,1,.5.5Z" fill="#c33"/><path d="M14,17.5H12a.5.5,0,0,0-.5.5v1a.5.5,0,0,0,.5.5h2a.5.5,0,0,0,.5-.5V18A.5.5,0,0,0,14,17.5Zm-4-2H8.5V6A.5.5,0,0,0,8,5.5H7a.5.5,0,0,0-.5.5v9.5H5a.5.5,0,0,0-.35.85l2.5,3a.48.48,0,0,0,.7,0l2.5-3A.5.5,0,0,0,10,15.5Zm8-6H12a.5.5,0,0,0-.5.5v1a.5.5,0,0,0,.5.5h6a.5.5,0,0,0,.5-.5V10A.5.5,0,0,0,18,9.5Zm-2,4H12a.5.5,0,0,0-.5.5v1a.5.5,0,0,0,.5.5h4a.5.5,0,0,0,.5-.5V14A.5.5,0,0,0,16,13.5Zm4-8H12a.5.5,0,0,0-.5.5V7a.5.5,0,0,0,.5.5h8a.5.5,0,0,0,.5-.5V6A.5.5,0,0,0,20,5.5Z" fill="#fff"/></svg>