<svg id="圖層_1" data-name="圖層 1" xmlns="http://www.w3.org/2000/svg" viewBox="0 0 25 25"><title>工作區域 1</title><path d="M10.78,10.79a2.42,2.42,0,0,0,3.43,3.42A2.42,2.42,0,0,0,10.78,10.79Z" fill="#3361ad"/><path d="M20.5,1.5H4.5a3,3,0,0,0-3,3v16a3,3,0,0,0,3,3h16a3,3,0,0,0,3-3V4.5A3,3,0,0,0,20.5,1.5ZM19.45,15a7.64,7.64,0,0,1-1.38,2.13.77.77,0,0,1-1,.17l-.94-.55a5.46,5.46,0,0,1-1.78,1v1.09a.78.78,0,0,1-.64.77,7.52,7.52,0,0,1-2.46,0,.79.79,0,0,1-.65-.77V17.8a5.46,5.46,0,0,1-1.78-1l-.94.55a.78.78,0,0,1-1-.18A7.42,7.42,0,0,1,5.55,15a.78.78,0,0,1,.34-.95L7,13.53a5.49,5.49,0,0,1,0-2.06l-1.08-.54A.78.78,0,0,1,5.55,10,7.52,7.52,0,0,1,6.92,7.85a.77.77,0,0,1,1-.17l.94.55a5.46,5.46,0,0,1,1.78-1V6.11a.78.78,0,0,1,.64-.77,7.52,7.52,0,0,1,2.46,0,.79.79,0,0,1,.65.77V7.19a5.84,5.84,0,0,1,1.78,1l.94-.54a.77.77,0,0,1,1,.17A7.61,7.61,0,0,1,19.44,10a.78.78,0,0,1-.33.95L18,11.47a5.49,5.49,0,0,1,0,2.06l1.09.54A.78.78,0,0,1,19.45,15Z" fill="#3361ad"/><path d="M18,13.53l1.09.54a.78.78,0,0,1,.34.95,7.64,7.64,0,0,1-1.38,2.13.77.77,0,0,1-1,.17l-.94-.55a5.46,5.46,0,0,1-1.78,1v1.09a.78.78,0,0,1-.64.77,7.52,7.52,0,0,1-2.46,0,.79.79,0,0,1-.65-.77V17.8a5.46,5.46,0,0,1-1.78-1l-.94.55a.78.78,0,0,1-1-.18A7.42,7.42,0,0,1,5.55,15a.78.78,0,0,1,.34-.95L7,13.53a5.49,5.49,0,0,1,0-2.06l-1.08-.54A.78.78,0,0,1,5.55,10,7.52,7.52,0,0,1,6.92,7.85a.77.77,0,0,1,1-.17l.94.55a5.46,5.46,0,0,1,1.78-1V6.11a.78.78,0,0,1,.64-.77,7.52,7.52,0,0,1,2.46,0,.79.79,0,0,1,.65.77V7.19a5.84,5.84,0,0,1,1.78,1l.94-.54a.77.77,0,0,1,1,.17A7.61,7.61,0,0,1,19.44,10a.78.78,0,0,1-.33.95L18,11.47A5.49,5.49,0,0,1,18,13.53Zm-3.81.68a2.42,2.42,0,0,0-3.43-3.42A2.42,2.42,0,0,0,14.21,14.21Z" fill="#fff"/></svg>