<svg id="圖層_1" data-name="圖層 1" xmlns="http://www.w3.org/2000/svg" viewBox="0 0 25 25"><title>工作區域 1</title><path d="M20.5,1.5H4.5a3,3,0,0,0-3,3v16a3,3,0,0,0,3,3h16a3,3,0,0,0,3-3V4.5A3,3,0,0,0,20.5,1.5ZM20,11.77a1.75,1.75,0,0,1-2.46,0l-.3-.31L14.66,14a6.09,6.09,0,0,1-1.43,6.34.43.43,0,0,1-.61,0L8.93,16.69,6.16,19.45a.43.43,0,0,1-.61,0,.42.42,0,0,1,0-.61l2.76-2.77L4.63,12.38a.42.42,0,0,1,0-.61A6.07,6.07,0,0,1,11,10.34l2.57-2.57-.31-.3a1.75,1.75,0,0,1,0-2.46h0a1.74,1.74,0,0,1,2.46,0L20,9.31A1.74,1.74,0,0,1,20,11.77Z" fill="#6bb73e"/><path id="Path" d="M13.23,5a1.74,1.74,0,0,1,2.46,0L20,9.31a1.74,1.74,0,0,1-2.46,2.46l-.3-.31L14.66,14a6.09,6.09,0,0,1-1.43,6.34.43.43,0,0,1-.61,0L8.93,16.69,6.16,19.45a.43.43,0,0,1-.61,0,.42.42,0,0,1,0-.61l2.76-2.77L4.63,12.38a.42.42,0,0,1,0-.61A6.07,6.07,0,0,1,11,10.34l2.57-2.57-.31-.3a1.75,1.75,0,0,1,0-2.46Z" fill="#fff"/></svg>