<svg id="圖層_1" data-name="圖層 1" xmlns="http://www.w3.org/2000/svg" viewBox="0 0 25 25"><title>工作區域 1</title><rect x="9.5" y="11.5" width="6" height="1" fill="#3361ad"/><path d="M20.5,1.5H4.5a3,3,0,0,0-3,3v16a3,3,0,0,0,3,3h16a3,3,0,0,0,3-3V4.5A3,3,0,0,0,20.5,1.5ZM18.5,19A1.5,1.5,0,0,1,17,20.5H8A1.5,1.5,0,0,1,6.5,19V6A1.5,1.5,0,0,1,8,4.5h6.38a1.5,1.5,0,0,1,1.06.44l2.62,2.62a1.52,1.52,0,0,1,.44,1.06Z" fill="#3361ad"/><path d="M17.35,8.27,14.73,5.65a.41.41,0,0,0-.23-.13v3h3A.45.45,0,0,0,17.35,8.27Z" fill="#3361ad"/><rect x="9.5" y="13.5" width="2.5" height="1.5" fill="#3361ad"/><rect x="13" y="16" width="2.5" height="1.5" fill="#3361ad"/><rect x="13" y="13.5" width="2.5" height="1.5" fill="#3361ad"/><path d="M13.5,8.75V5.5H8a.5.5,0,0,0-.5.5V19a.5.5,0,0,0,.5.5h9a.5.5,0,0,0,.5-.5V9.5H14.25A.75.75,0,0,1,13.5,8.75Zm3,2.25v7a.5.5,0,0,1-.5.5H9a.5.5,0,0,1-.5-.5V11a.5.5,0,0,1,.5-.5h7A.5.5,0,0,1,16.5,11Z" fill="#3361ad"/><rect x="9.5" y="16" width="2.5" height="1.5" fill="#3361ad"/><path d="M18.06,7.56,15.44,4.94a1.5,1.5,0,0,0-1.06-.44H8A1.5,1.5,0,0,0,6.5,6V19A1.5,1.5,0,0,0,8,20.5h9A1.5,1.5,0,0,0,18.5,19V8.62a1.52,1.52,0,0,0-.44-1.06Zm-3.56-2a.41.41,0,0,1,.23.13l2.62,2.62a.45.45,0,0,1,.13.23h-3ZM17.5,19a.5.5,0,0,1-.5.5H8a.5.5,0,0,1-.5-.5V6A.5.5,0,0,1,8,5.5h5.5V8.75a.75.75,0,0,0,.75.75H17.5Zm-9-8v7a.5.5,0,0,0,.5.5h7a.5.5,0,0,0,.5-.5V11a.5.5,0,0,0-.5-.5H9A.5.5,0,0,0,8.5,11Zm7,6.5H13V16h2.5Zm0-2.5H13V13.5h2.5Zm-6-3.5h6v1h-6Zm0,2H12V15H9.5Zm0,2.5H12v1.5H9.5Z" fill="#fff"/></svg>