<svg id="圖層_1" data-name="圖層 1" xmlns="http://www.w3.org/2000/svg" viewBox="0 0 25 25"><title>工作區域 1</title><path d="M20.5,1.5H4.5a3,3,0,0,0-3,3v16a3,3,0,0,0,3,3h16a3,3,0,0,0,3-3V4.5A3,3,0,0,0,20.5,1.5Zm-8,19a2,2,0,0,1-2-2h4A2,2,0,0,1,12.5,20.5Zm6-3H6.5a1,1,0,0,1-1-1,1,1,0,0,1,.27-.68C6.37,15.17,7.5,14.2,7.5,11a4.94,4.94,0,0,1,4-4.85V5.5a1,1,0,0,1,2,0v.65a4.94,4.94,0,0,1,4,4.85c0,3.2,1.13,4.17,1.73,4.82a1,1,0,0,1,.27.68A1,1,0,0,1,18.5,17.5Z" fill="#c33"/><path d="M12.5,20.5a2,2,0,0,0,2-2h-4A2,2,0,0,0,12.5,20.5Zm6.73-4.68c-.6-.65-1.73-1.62-1.73-4.82a4.94,4.94,0,0,0-4-4.85V5.5a1,1,0,0,0-2,0v.65A4.94,4.94,0,0,0,7.5,11c0,3.2-1.13,4.17-1.73,4.82a1,1,0,0,0-.27.68,1,1,0,0,0,1,1h12a1,1,0,0,0,1-1A1,1,0,0,0,19.23,15.82Z" fill="#fff"/></svg>