<svg id="圖層_1" data-name="圖層 1" xmlns="http://www.w3.org/2000/svg" viewBox="0 0 25 25"><title>工作區域 1</title><path d="M8.5,8.25A1.25,1.25,0,1,0,9.75,9.5,1.25,1.25,0,0,0,8.5,8.25Z" fill="#3361ad"/><path d="M7.5,12.25A1.25,1.25,0,1,0,8.75,13.5,1.25,1.25,0,0,0,7.5,12.25Z" fill="#3361ad"/><path d="M12.5,6.25A1.25,1.25,0,1,0,13.75,7.5,1.25,1.25,0,0,0,12.5,6.25Z" fill="#3361ad"/><path d="M16.42,8.25a1.25,1.25,0,1,0,1.33,1.33A1.27,1.27,0,0,0,16.42,8.25Z" fill="#3361ad"/><path d="M20.5,1.5H4.5a3,3,0,0,0-3,3v16a3,3,0,0,0,3,3h16a3,3,0,0,0,3-3V4.5A3,3,0,0,0,20.5,1.5Zm-2,13H16a2.12,2.12,0,0,0-1.9,3.08,2,2,0,0,1-1.33,2.86c-4,.62-9.24-3.74-8.09-9.58a8,8,0,0,1,15.84,1.6A2,2,0,0,1,18.47,14.5Z" fill="#3361ad"/><path d="M10.88,4.66a8,8,0,0,0-6.22,6.2c-1.15,5.84,4.12,10.2,8.09,9.58a2,2,0,0,0,1.33-2.86A2.12,2.12,0,0,1,16,14.5h2.49a2,2,0,0,0,2-2A8,8,0,0,0,10.88,4.66ZM7.5,14.75A1.25,1.25,0,1,1,8.75,13.5,1.25,1.25,0,0,1,7.5,14.75Zm1-4A1.25,1.25,0,1,1,9.75,9.5,1.25,1.25,0,0,1,8.5,10.75Zm4-2A1.25,1.25,0,1,1,13.75,7.5,1.25,1.25,0,0,1,12.5,8.75Zm4.08,2a1.25,1.25,0,1,1,1.17-1.17A1.25,1.25,0,0,1,16.58,10.75Z" fill="#fff"/></svg>