<svg id="圖層_1" data-name="圖層 1" xmlns="http://www.w3.org/2000/svg" viewBox="0 0 50 50"><title>工作區域 1</title><path d="M22.13,29.23l-5.26,3.2v2.45h-10v-4.5h10v.88l5.26-3.2V22.23l-5.26,3.2v2.45h-10V23.39h10v.87l5.26-3.2V15.37l-5.26,3.38v2.14h-10v-4.5h10v1.17l5.26-3.38v-2H4.87v32h22V38.87H22.13ZM16.87,41.88h-10v-4.5h10Zm-1.5-22.49v-1.5h-7v1.5Zm0,7V24.89h-7v1.49ZM40.13,6.57v4.29h4.3ZM15.37,38.88h-7v1.5h7ZM26.63,25.61v1.51h7V25.61Zm0-14v1.5h7v-1.5Zm0,7v1.5h7v-1.5Zm12.5-6.75v-6h-16v7.68l2-1.29V10.11h10v4.5h-10V13.44l-2,1.28v5.73l2-1.21V17.11h10v4.5h-10v-1.2l-2,1.21v5.83l2-1.21V24.11h10v4.51h-10V27.41l-2,1.21v9.25h22v-26ZM15.37,33.38v-1.5h-7v1.5Z" fill="#fff"/><path d="M46,11h0L40,5h0l-.15-.15H22.13v6.27H3.87v34h24V38.87H46.13V11.16ZM40.13,6.57l4.3,4.29h-4.3Zm5,31.3h-22V28.62l-1,.61v9.64h4.74v5.26h-22v-32H22.13v2l1-.64V5.86h16v6h6Zm-22-17.42V14.72l-1,.65v5.69Zm-1,1.78v5.83l1-.61V21.62Z" fill="gray"/><path d="M16.87,41.88h-10v-4.5h10Zm-8.5-1.5h7v-1.5h-7Z" fill="#b3b3b3"/><path d="M25.13,10.11v2.14l-8.26,5.31V16.39h-10v4.5h10V18.75l8.26-5.31v1.17h10v-4.5Zm-9.76,9.28h-7v-1.5h7Zm18.26-6.28h-7v-1.5h7Z" fill="#c33"/><path d="M25.13,17.11v2.13l-8.26,5v-.87h-10v4.49h10V25.43l8.26-5v1.2h10v-4.5Zm-9.76,9.27h-7V24.89h7Zm18.26-6.27h-7v-1.5h7Zm-8.5,4v2.13l-8.26,5v-.88h-10v4.5h10V32.43l8.26-5v1.21h10V24.11Zm-9.76,9.27h-7v-1.5h7Zm18.26-6.26h-7V25.61h7Z" fill="#555"/></svg>