<svg id="圖層_1" data-name="圖層 1" xmlns="http://www.w3.org/2000/svg" viewBox="0 0 50 50"><title>工作區域 1</title><path d="M45.05,12.12l-6-6L38.91,6H21.18v6.27H2.91v34h24V40H45.18V12.27ZM39.18,7.68,43.47,12H39.18ZM22.41,40V41.3H18.5V39.36h2.68V40ZM3.91,45.25v-32H21.18V37.86H18.5V35.92H17v1.94H13.08V35.92h-1.5v1.94H7.41V35.92H5.91V42.8h18V40h2v5.27ZM17,39.36V41.3H13.08V39.36Zm-5.42,0V41.3H7.41V39.36ZM44.18,39h-22V7h16v6h6Z" fill="gray"/><path d="M34.18,22.73h-10v-4.5h10Zm-8.5-1.5h7v-1.5h-7Zm8.5,8.5h-10v-4.5h10Zm-8.5-1.5h7v-1.5h-7ZM21.2,34.32H18.5v-1.5h2.7v-1.5H5.91v4.6H21.2Zm-9.62,0H7.41v-1.5h4.17Zm5.42,0H13.08v-1.5H17Z" fill="#555"/><path d="M15.91,22h-10V17.5h10Zm-8.5-1.5h7V19h-7Zm26.77-4.77h-10v-4.5h10Zm-8.5-1.5h7v-1.5h-7Z" fill="#333"/><path d="M15.91,29.51h-10V25h10ZM7.41,28h7v-1.5h-7Zm26.77,8.72h-10v-4.5h10Zm-8.5-1.5h7v-1.5h-7Z" fill="#c33"/><path d="M19.09,13.25H3.91v10H19.09ZM15.91,22h-10V17.5h10Zm-1.5,4.51V28h-7v-1.5ZM17,32.82H13.08v1.5H17Zm1.5,5h2.68V35.92H18.5ZM13.08,41.3H17V39.36H13.08Zm-1.5-5.38H7.41v1.94h4.17ZM18.5,41.3h3.91V40H21.18v-.62H18.5Zm25-29.3L39.18,7.7V12ZM7.41,41.3h4.17V39.36H7.41ZM17,35.92H13.08v1.94H17Zm4.18-3.1H18.5v1.5h2.68ZM14.41,19h-7v1.5h7ZM44.18,39V13h-6V7h-16V39Zm-20-27.77h10v4.52h-10Zm0,7h10v4.5h-10Zm0,7h10v4.5h-10Zm0,11.5v-4.5h10v4.5Zm1.71,7.51h0v1h-22v-1h22ZM11.58,32.82H7.41v1.5h4.17Zm14.1,2.43h7v-1.5h-7Zm0-14h7v-1.5h-7Zm0-7h7V12.7h-7Zm0,14h7V26.7h-7Z" fill="#fff"/><path d="M25.91,44.25V40h-2V42.8h-18V31.32H21.18V13.25H19.09v10H3.91v21h22ZM5.91,25h10v4.5h-10ZM19.09,3.75v8.5h2.09V6H38.91l.14.14,6,6,.13.15V40H26.91v4.16l20.18-2.39v-38Z" fill="#9c6"/></svg>