<svg id="圖層_1" data-name="圖層 1" xmlns="http://www.w3.org/2000/svg" viewBox="0 0 50 50"><title>工作區域 1</title><path d="M37.93,13.23v-6h-16v32h22v-26ZM33.93,30h-10v-4.5h10Zm0-7h-10v-4.5h10Zm0-7h-10v-4.5h10Zm0,21h-10v-4.5h10Zm-8.5-1.5h7V34h-7Zm7-22.5h-7v1.5h7Zm0,7h-7v1.5h7Zm0,7h-7v1.5h7ZM18.25,36.73h2.68V34.79H18.25Zm2.68-8.48H18.25v1.5h2.68Zm-4.18,3.1H12.83v1.94h3.92Zm-3.92,5.38h3.92V34.79H12.83Zm8.1-5.38H18.25v1.94h2.68Zm-4.18-3.1H12.83v1.5h3.92ZM38.93,7.93v4.3h4.29ZM7.16,20.75h7v-1.5h-7Zm4.17,10.6H7.16v1.94h4.17ZM7.16,36.73h4.17V34.79H7.16Zm4.17-8.48H7.16v1.5h4.17Zm9.6,10H5.66V26.75H20.93V13.5H3.66v32h22V40.23H20.93ZM5.66,17.75h10v4.5h-10Z" fill="#fff"/><path d="M33.93,16h-10v-4.5h10Zm-8.5-1.5h7V13h-7Zm-9.77,7.77h-10v-4.5h10Zm-8.5-1.5h7v-1.5h-7Z" fill="#333"/><path d="M33.93,37h-10v-4.5h10Zm-8.5-1.5h7V34h-7Z" fill="#b3b3b3"/><path d="M33.93,23h-10v-4.5h10Zm-8.5-1.5h7V20h-7Zm-4.5,8.27H18.25v-1.5h2.68v-1.5H5.66v4.6H20.93Zm-9.6,0H7.16v-1.5h4.17Zm5.42,0H12.83v-1.5h3.92Z" fill="#555"/><path d="M44.8,12.37,38.66,6.23H20.93V12.5H2.66v34h24V40.23H44.93V12.52ZM38.93,7.93l4.29,4.3H38.93ZM25.66,45.5h-22v-32H20.93V33.29H18.25V31.35h-1.5v1.94H12.83V31.35h-1.5v1.94H7.16V31.35H5.66v6.88H20.93v2h4.73ZM20.93,34.79v1.94H18.25V34.79Zm-4.18,0v1.94H12.83V34.79Zm-5.42,0v1.94H7.16V34.79Zm32.6,4.44h-22v-32h16v6h6ZM23.93,30h10v-4.5h-10Zm1.5-3h7v1.5h-7Z" fill="gray"/><path d="M18.84,42V40.5H3.64v-15l15.2-2.07h0V13.5h2.09V26.75H5.66V38.23H20.93v2h4.73V42Zm0-38v8.5h2.09V6.23H38.66l6.14,6.14.13.15V40.23H26.66V42H46.84V4Z" fill="#9c6"/></svg>