<svg id="圖層_1" data-name="圖層 1" xmlns="http://www.w3.org/2000/svg" viewBox="0 0 50 50"><title>工作區域 1</title><path d="M46,11h0L40,5h0l-.15-.15H22.13v6.27H3.87v34h24V38.86H46.13V11.16ZM40.13,6.57l4.3,4.29h-4.3ZM26.86,44.14h-22v-32H22.13V38.86h4.73Zm18.27-6.28h-22v-32h16v6h6Zm-2-14.18H41.61v1.94H37.69V23.68h-1.5v1.94H32.28V23.68h-1.5v1.94H26.61V23.68h-1.5v6.88h18ZM30.78,29.06H26.61V27.12h4.17Zm5.41,0H32.28V27.12h3.91Zm5.42,0H37.69V27.12h3.92ZM16.87,34.89h-10v-4.5h10Zm-8.5-1.5h7v-1.5h-7Z" fill="gray"/><path d="M16.87,41.89h-10v-4.5h10Zm-8.5-1.5h7v-1.5h-7Z" fill="#b3b3b3"/><path d="M35.16,14.62l-10,0v-4.5l10,0Zm-8.5-1.53,7,0v-1.5l-7,0Zm-9.79,7.79h-10v-4.5h10Zm-8.5-1.5h7v-1.5h-7Z" fill="#333"/><path d="M25.11,19.08v4.6h18v-4.6Zm11.08,1.5v1.5H32.28v-1.5Zm-9.58,0h4.17v1.5H26.61Zm15,1.5H37.69v-1.5H41.6ZM16.87,27.89h-10V23.38h10Zm-8.5-1.5h7V24.88h-7Z" fill="#555"/><path d="M23.13,32.24h22v-15h-22Zm2-13.16h18V30.56h-18V19.08Zm-3-1.53-5.26,1.63v1.7h-5.5l-6.5,2V36.4H18.58v-3l3.55-.91ZM16.87,34.89h-10v-4.5h10Zm0-7h-10V23.38h10Z" fill="#9c6"/><path d="M22.13,38.86V32.49l-3.55.91v3H4.87v7.74h22V38.86Zm-5.26,3h-10v-4.5h10Zm-1.5-15.5V24.88h-7v1.51Zm0,7v-1.5h-7v1.5Zm0,5.5h-7v1.5h7ZM4.87,12.13V22.9l6.5-2H6.87v-4.5h10v2.8l5.26-1.63V12.13Zm3.5,7.25h7v-1.5h-7Zm36.76-7.52h-6v-6h-16V17.24h22Zm-10,2.76-10,0v-4.5l10,0Zm2.53,6v1.5H41.6v-1.5Zm0,5h3.92V23.68H37.69Zm-5.41,3.44h3.91V27.12H32.28Zm5.41,0h3.92V27.12H37.69ZM26.61,25.62h4.17V23.68H26.61Zm4.17-5H26.61v1.5h4.17Zm-4.17,8.48h4.17V27.12H26.61Zm5.67-3.44h3.91V23.68H32.28Zm3.91-5H32.28v1.5h3.91Zm-2.52-9-7,0v1.5l7,0Zm6.46-5v4.29h4.3Zm5,25.67h-22v5.62h22Z" fill="#fff" opacity="0.76"/></svg>