<svg id="圖層_1" data-name="圖層 1" xmlns="http://www.w3.org/2000/svg" viewBox="0 0 20 20"><title>工作區域 1</title><path d="M16,10s-1.7,2.46-1.7,3.4a1.7,1.7,0,0,0,3.4,0C17.65,12.41,16,10,16,10Zm2.6,6.77v1.22a.61.61,0,0,1-.61.61H2.06a.61.61,0,0,1-.61-.61V16.72a.61.61,0,0,1,.61-.61H17.94A.61.61,0,0,1,18.55,16.72Z" fill="#d50e0e"/><path d="M15.6,7.17,10.13,1.7a.85.85,0,0,0-1.2,0L6.78,3.85,4.51,1.58a.42.42,0,0,0-.6,0l-.59.59a.42.42,0,0,0,0,.6L5.59,5l-2.5,2.5a2.53,2.53,0,0,0,0,3.58l3.09,3.09a2.53,2.53,0,0,0,3.58,0L15.6,8.37a.85.85,0,0,0,0-1.2ZM8.57,13a.87.87,0,0,1-1.2,0L4.28,9.93a.87.87,0,0,1,0-1.2l2.5-2.5L8.33,7.78A.84.84,0,1,0,9.52,6.59h0L8,5,9.53,3.49l4.28,4.28Z" fill="#333"/><path d="M8.57,13a.87.87,0,0,1-1.2,0L4.28,9.93a.87.87,0,0,1,0-1.2l2.5-2.5L8.33,7.78A.84.84,0,1,0,9.52,6.59h0L8,5,9.53,3.49l4.28,4.28Z" fill="#fff"/></svg>