<?xml version="1.0" encoding="utf-8"?>
<!-- Generator: Adobe Illustrator 24.0.1, SVG Export Plug-In . SVG Version: 6.00 Build 0)  -->
<svg version="1.1" id="圖層_1" xmlns="http://www.w3.org/2000/svg" xmlns:xlink="http://www.w3.org/1999/xlink" x="0px" y="0px"
	 viewBox="0 0 20 20" style="enable-background:new 0 0 20 20;" xml:space="preserve">
<style type="text/css">
	.st0{fill:#D50E0E;}
</style>
<path class="st0" d="M17.9,16.1H17L12,2.3c-0.2-0.5-0.6-0.8-1.1-0.8H9.1c-0.5,0-1,0.3-1.1,0.8L3,16.1H2.1c-0.3,0-0.6,0.3-0.6,0.6
	v1.2c0,0.3,0.3,0.6,0.6,0.6H7c0.3,0,0.6-0.3,0.6-0.6v-1.2c0-0.3-0.3-0.6-0.6-0.6H6.2l0.9-2.4h5.8l0.9,2.4H13c-0.3,0-0.6,0.3-0.6,0.6
	v1.2c0,0.3,0.3,0.6,0.6,0.6h4.9c0.3,0,0.6-0.3,0.6-0.6v-1.2C18.5,16.3,18.2,16.1,17.9,16.1z M8.2,10.6L10,5.7l1.8,4.9H8.2z"/>
</svg>
