<svg id="圖層_1" data-name="圖層 1" xmlns="http://www.w3.org/2000/svg" viewBox="0 0 20 20"><title>工作區域 1</title><path d="M18.55,10.45v-.9c0-.25-.27-.45-.61-.45H2.06c-.34,0-.61.2-.61.45v.9c0,.25.27.45.61.45H17.94C18.28,10.9,18.55,10.7,18.55,10.45ZM13.92,4.51,10.31,8.33a.42.42,0,0,1-.62,0L6.08,4.51a.47.47,0,0,1,.31-.79H9V1.91a.45.45,0,0,1,.44-.46h1.16a.45.45,0,0,1,.44.46V3.72h2.59A.47.47,0,0,1,13.92,4.51Zm-.31,11.77H11v1.81a.45.45,0,0,1-.44.46H9.42A.45.45,0,0,1,9,18.09V16.28H6.39a.47.47,0,0,1-.31-.79l3.61-3.82a.42.42,0,0,1,.62,0l3.61,3.82A.47.47,0,0,1,13.61,16.28Z" fill="#333"/></svg>