<?xml version="1.0" encoding="utf-8"?>
<!-- Generator: Adobe Illustrator 24.0.1, SVG Export Plug-In . SVG Version: 6.00 Build 0)  -->
<svg version="1.1" id="圖層_1" xmlns="http://www.w3.org/2000/svg" xmlns:xlink="http://www.w3.org/1999/xlink" x="0px" y="0px"
	 viewBox="0 0 50 50" style="enable-background:new 0 0 50 50;" xml:space="preserve">
<style type="text/css">
	.st0{fill:#FFFFFF;}
	.st1{fill:#808080;}
	.st2{fill:#B3B3B3;}
	.st3{fill:#CC3333;}
</style>
<path class="st0" d="M39.1,11.9v-6h-16v29.4c0.1,0.1,0.1,0.2,0.1,0.3l0,2.3h13.4c0.3-0.3,0.6-0.6,0.8-1c0,0,0,0,0,0
	c0.2-0.4,0.3-0.8,0.3-1.3c0-0.5-0.1-0.9-0.3-1.3c0,0,0,0,0,0c-0.4-0.9-1.3-1.6-2.3-1.7v2.2h-10v-4.5h10v0.3c2.6,0.2,4.6,2.3,4.7,5
	c0,0,0,0,0,0.1c0,0,0,0,0,0.1c0,0.8-0.2,1.6-0.6,2.2h5.9v-26H39.1z M25.2,10.1l10,0l0,4.5l-10,0L25.2,10.1z M43.1,19.8l0,8.4
	l-18-0.1l0-7h0l0-4.5l18,0.1L43.1,19.8L43.1,19.8z M33.7,11.6l-7,0l0,1.5l7,0L33.7,11.6z M40.1,10.9h4.3l-4.3-4.3V10.9z M26.6,19.7
	l4.2,0l0-1.5l-4.2,0L26.6,19.7z M32.3,26.7l3.9,0l0-1.9l-3.9,0L32.3,26.7z M26.6,23.2l4.2,0l0-1.9l-4.2,0L26.6,23.2z M32.3,23.2
	l3.9,0l0-1.9l-3.9,0L32.3,23.2z M26.6,26.7l4.2,0l0-1.9l-4.2,0L26.6,26.7z M32.3,19.7l3.9,0l0-1.5l-3.9,0L32.3,19.7z M37.7,19.7
	l3.9,0l0-1.5l-3.9,0L37.7,19.7z M37.7,26.7l3.9,0l0-1.9l-3.9,0L37.7,26.7z M37.7,23.3l3.9,0l0-1.9l-3.9,0L37.7,23.3z M33.6,33.2
	v-1.5h-7v1.5H33.6z M15.4,19.4v-1.5h-7v1.5H15.4z M23.3,40.6l0,3c0,0.4-0.5,0.6-0.8,0.3l-4-4c-0.2-0.2-0.2-0.5,0-0.7l3.7-3.7V24.1
	c-0.1,1.3-0.6,2.6-1.6,3.6c-1.1,1.1-2.5,1.7-4,1.7c-1.5,0-3-0.6-4-1.7c0.1,0.1,0.2,0.2,0.3,0.2H6.9v-4.5h2.3l2.2-2.2
	c0.2-0.2,0.4-0.2,0.6,0l2.2,2.2h2.6v4.1c-0.1,0-0.3,0-0.4,0c1,0,2-0.4,2.8-1.1c0.7-0.7,1.1-1.7,1.1-2.8c0-1-0.4-2-1.1-2.8
	c-0.6-0.6-1.5-1-2.4-1.1v1.2h-10v-4.5h10v1.5c1.4,0.1,2.7,0.7,3.6,1.7c1,1,1.5,2.3,1.6,3.6v-11H4.9v32h22v-3.5H23.3z M16.9,41.9h-10
	v-4.5h10V41.9z M16.9,34.9h-10v-4.5h10V34.9z M15.4,31.9h-7v1.5h7V31.9z M15.4,38.9h-7v1.5h7V38.9z M11.5,26.4
	c-0.2-0.3-0.3-0.7-0.5-1l-2.8,0h0.1v1H11.5z M13.7,26.4C14,27,13.7,26.4,13.7,26.4l1.7,0l0-1l-2.4,0C13.2,25.7,13.4,26.1,13.7,26.4z
	"/>
<path class="st1" d="M46.1,11.2L46,11c0,0,0,0,0,0l-6-6c0,0,0,0,0,0l-0.1-0.1H22.1v6.3H3.9v34h24v-6.3h18.3V11.2z M40.1,6.6l4.3,4.3
	h-4.3V6.6z M26.9,44.1h-22v-32h17.3v26.7h4.7V44.1z M45.1,37.9h-22v-32h16v6h6V37.9z M35.2,14.6l-10,0l0-4.5l10,0L35.2,14.6z
	 M26.7,13.1l7,0l0-1.5l-7,0L26.7,13.1z M16.9,20.9h-10v-4.5h10V20.9z M8.4,19.4h7v-1.5h-7V19.4z"/>
<path class="st2" d="M43.1,16.7l-18-0.1l0,4.5h0l0,7l18,0.1l0-8.4h0L43.1,16.7z M41.6,23.3l-3.9,0l0-1.9l3.9,0L41.6,23.3z
	 M32.3,23.2l0-1.9l3.9,0l0,1.9L32.3,23.2z M36.2,24.8l0,1.9l-3.9,0l0-1.9L36.2,24.8z M30.8,23.2l-4.2,0l0-1.9l4.2,0L30.8,23.2z
	 M32.3,19.7l0-1.5l3.9,0l0,1.5L32.3,19.7z M41.6,19.7l-3.9,0l0-1.5l3.9,0L41.6,19.7z M26.6,18.2l4.2,0l0,1.5l-4.2,0L26.6,18.2z
	 M26.6,24.7l4.2,0l0,1.9l-4.2,0L26.6,24.7z M37.7,26.7l0-1.9l3.9,0l0,1.9L37.7,26.7z M35.1,34.7h-10v-4.5h10V34.7z M26.6,33.2h7
	v-1.5h-7V33.2z M16.9,41.9h-10v-4.5h10V41.9z M8.4,40.4h7v-1.5h-7V40.4z M16.9,34.9h-10v-4.5h10V34.9z M8.4,33.4h7v-1.5h-7V33.4z
	 M15.5,24.6c0.2,0.2,0.1,0.5-0.1,0.7v1.1h-1.6c0.7,0.7,1.7,1.1,2.7,1.1c0.1,0,0.3,0,0.4,0v-4.1h-2.6L15.5,24.6z M12.4,27.6
	c-0.4-0.4-0.7-0.8-0.9-1.3H8.4v-1H8.2c-0.4,0-0.6-0.4-0.3-0.7l1.3-1.3H6.9v4.5h5.8C12.6,27.8,12.5,27.7,12.4,27.6z"/>
<path class="st3" d="M39.8,35.6C39.8,35.6,39.8,35.6,39.8,35.6c0,2.8-2.3,5.1-5.1,5.1H23.3l0,3c0,0.4-0.5,0.6-0.8,0.3l-4-4
	c-0.2-0.2-0.2-0.5,0-0.7l4-4c0.3-0.3,0.8-0.1,0.8,0.3l0,3.1h11.4c1.2,0,2.3-0.7,2.8-1.7c0,0,0,0,0,0c0.2-0.4,0.3-0.8,0.3-1.3
	c0-0.5-0.1-0.9-0.3-1.3c0,0,0,0,0,0c-0.4-0.9-1.3-1.6-2.3-1.7v-2C37.7,30.8,39.7,32.9,39.8,35.6C39.8,35.5,39.8,35.5,39.8,35.6z
	 M20.5,19.6c-1-1-2.3-1.6-3.6-1.7v1.8c0.9,0.1,1.7,0.5,2.4,1.1c0.7,0.7,1.1,1.7,1.1,2.8c0,1-0.4,2-1.1,2.8c-0.7,0.7-1.7,1.1-2.8,1.1
	c-1,0-2-0.4-2.8-1.1c-0.3-0.3-0.5-0.6-0.7-1l2.2,0c0.4,0,0.6-0.4,0.3-0.7L12,21.2c-0.2-0.2-0.4-0.2-0.6,0l-3.5,3.5
	c-0.3,0.3-0.1,0.7,0.3,0.7l2.8,0c0.3,0.9,0.7,1.7,1.4,2.3c1.1,1.1,2.5,1.7,4,1.7c1.5,0,3-0.6,4-1.7C22.7,25.4,22.7,21.8,20.5,19.6z"
	/>
</svg>
