<svg id="圖層_1" data-name="圖層 1" xmlns="http://www.w3.org/2000/svg" viewBox="0 0 50 50"><title>工作區域 1</title><path d="M39.14,9.2v-6h-16v32h8.45L33.53,33H25.14v-4.5h10v4.44l2,2.31h8V9.2ZM35.14,26h-10v-4.5h10Zm0-7h-10v-4.5h10Zm0-7h-10V7.43h10Zm5-8V8.2h4.29ZM15.37,36.2h-7v1.5h7Zm0-7h-7v1.5h7Zm0-7h-7v1.5h7ZM33.64,16h-7v1.5h7Zm0-7h-7v1.5h7Zm0,14h-7v1.5h7ZM15.37,15.2h-7v1.5h7ZM26.64,31.45h7V30h-7Zm.23,4.73H22.14V9.45H4.87v32h22Zm-10,3h-10V34.7h10Zm0-7h-10V27.7h10Zm0-7h-10V20.7h10Zm0-7h-10V13.7h10Z" fill="#fff"/><path d="M35.14,11.93h-10V7.43h10Zm-8.5-1.5h7V8.93h-7ZM16.87,18.2h-10V13.7h10Zm-8.5-1.5h7V15.2h-7Z" fill="#333"/><path d="M33.72,32.73a.85.85,0,0,1,1.28,0l.14.16V28.43h-10v4.5h8.41Zm-7.08-2.8h7v1.5h-7ZM6.87,39.2h10V34.7h-10Zm1.5-3h7v1.5h-7Z" fill="#b3b3b3"/><path d="M35.14,25.93h-10v-4.5h10Zm-8.5-1.5h7v-1.5h-7ZM16.87,32.2h-10V27.7h10Zm-8.5-1.5h7V29.2h-7Z" fill="gray"/><path d="M35.14,18.93h-10v-4.5h10Zm-8.5-1.5h7v-1.5h-7ZM16.87,25.2h-10V20.7h10Zm-8.5-1.5h7V22.2h-7Z" fill="#555"/><path d="M46,8.32l-6-6-.14-.14H22.14V8.45H3.87v34h24V36.18h2.87l.86-1H23.14v-32h16v6h6v26h-8l.87,1h8.16V8.47ZM26.87,36.18v5.27h-22v-32H22.14V36.18Zm13.27-28V3.88l4.29,4.3Z" fill="gray"/><path d="M33.72,32.73l-5.34,6.19a.85.85,0,0,0,.63,1.4h3.1c0,5-8,6-13.53,3.2a.63.63,0,0,0-.66,1c1.12,1.54,5.18,3.31,8.18,3.31,4,0,10.79-.5,10.79-7.5H39.7a.85.85,0,0,0,.64-1.4L35,32.73A.85.85,0,0,0,33.72,32.73Z" fill="#0b7f0b"/></svg>