<svg id="圖層_1" data-name="圖層 1" xmlns="http://www.w3.org/2000/svg" viewBox="0 0 50 50"><title>工作區域 1</title><path d="M24,38.78H9.78v-32h16v6h6V26.25l.44,0,.56,0V12.07l-.15-.15h0l-6-6h0l-.14-.15H8.78v34H24.46A10.46,10.46,0,0,1,24,38.78Zm2.83-31.3,4.29,4.29H26.78Zm5,25.22v5.12a2.6,2.6,0,0,0,1-.55V32.66a2,2,0,0,0-.44,0A1.82,1.82,0,0,0,31.78,32.7Zm1,7.08V39.1a3.81,3.81,0,0,1-1.44.68Zm-2.94,0a3,3,0,0,1-1.73-1H25.9a7.27,7.27,0,0,0,.67,1ZM31.78,28v2.66c.14,0,.27,0,.4,0a3.81,3.81,0,0,1,.6.06V28l-.56,0Zm-10,1.54h-10V25h10ZM13.28,28h7V26.52h-7Z" fill="gray"/><path d="M21.78,15.52h-10V11h10ZM13.28,14h7v-1.5h-7Z" fill="#333"/><path d="M21.78,36.53h-10V32h10ZM13.28,35h7v-1.5h-7Z" fill="#b3b3b3"/><path d="M21.78,22.52h-10V18h10ZM13.28,21h7v-1.5h-7Z" fill="#555"/><path d="M23.22,35.23a9,9,0,0,1,8.56-9V12.77h-6v-6h-16v32H24A8.94,8.94,0,0,1,23.22,35.23Zm-1.44,1.3h-10V32h10Zm0-7h-10V25h10Zm0-7h-10V18h10Zm0-7h-10V11h10Zm9.29-3.75H26.78V7.48ZM20.28,33.53h-7V35h7Zm7,2.62a5.21,5.21,0,0,1,4.5-5.5V28A7.26,7.26,0,0,0,25,35.23a7.18,7.18,0,0,0,.94,3.55h2.21A4,4,0,0,1,27.28,36.15ZM29.63,36c0,1.18.62,1.89,1.65,1.89a2.08,2.08,0,0,0,.5-.07V32.7A3.28,3.28,0,0,0,29.63,36ZM20.28,19.52h-7V21h7Zm0-7h-7V14h7Zm0,14h-7V28h7Z" fill="#fff"/><path d="M41.22,34.35c0-4.94-4-8.12-9-8.12a9,9,0,1,0,5.34,16.24.43.43,0,0,0,.07-.62l-.55-.68a.44.44,0,0,0-.6-.07A7.26,7.26,0,1,1,32.22,28c4,0,7.26,2.36,7.26,6.38,0,2.29-1.54,3.57-3,3.57-.7,0-.73-.46-.59-1.14l1-5.39a.44.44,0,0,0-.43-.52H35.06a.44.44,0,0,0-.43.35,4.88,4.88,0,0,0-.08.51,2.67,2.67,0,0,0-2.37-1.13c-2.59,0-4.9,2.27-4.9,5.55,0,2.22,1.2,3.71,3.39,3.71a3.72,3.72,0,0,0,2.89-1.54c.15,1.12,1,1.38,2.15,1.38C39.31,39.7,41.22,37.39,41.22,34.35Zm-9.94,3.54c-1,0-1.65-.71-1.65-1.89,0-2.09,1.43-3.39,2.71-3.39,1.09,0,1.65.78,1.65,1.87C34,36.18,32.78,37.89,31.28,37.89Z" fill="#c33"/></svg>