<svg id="圖層_1" data-name="圖層 1" xmlns="http://www.w3.org/2000/svg" viewBox="0 0 50 50"><title>工作區域 1</title><path d="M23.25,43.58a.48.48,0,0,1-.81.34l-4-4a.46.46,0,0,1,0-.67l3.72-3.72V12.14H4.86v32h22V40.62H23.25Zm-6.39-1.69h-10v-4.5h10Zm0-7h-10v-4.5h10Zm0-7h-10v-4.5h10Zm0-7h-10v-4.5h10Zm22.28-9v-6h-16V35.23a.5.5,0,0,1,.11.31v2.32H36.68a2.88,2.88,0,0,0,.77-1,.06.06,0,0,0,0,0,3,3,0,0,0,.29-1.27,3,3,0,0,0-.29-1.27.06.06,0,0,0,0,0,3.06,3.06,0,0,0-2.34-1.7V34.7h-10V30.2h10v.35a5,5,0,0,1,4.66,4.95s0,0,0,.06,0,0,0,.06a4.93,4.93,0,0,1-.59,2.26v0h6v-26Zm-14-1.78h10v4.53h-10Zm0,18.05V16.68h18V28.16Zm1.53-16.58h7v1.5h-7Zm10,26.31h0Zm-21.3-20h-7v1.5h7Zm0,7h-7v1.5h7Zm0,14h-7v1.5h7ZM40.14,6.58v4.28h4.27ZM15.36,31.89h-7v1.5h7Zm22.33-8.67h3.92V21.28H37.69Zm0,3.44h3.92V24.72H37.69Zm3.91-8.48H37.69v1.5H41.6Zm-9.32,5h3.91V21.28H32.28Zm-5.67,3.44h4.17V24.72H26.61Zm9.58-8.48H32.28v1.5h3.91Zm-2.58,15V31.7h-7v1.5Zm-2.83-15H26.61v1.5h4.17Zm1.5,8.48h3.91V24.72H32.28Zm-5.67-3.44h4.17V21.28H26.61Z" fill="#fff"/><path d="M35.14,14.61h-10v-4.5h10Zm-8.5-1.5h7v-1.5h-7Zm-9.77,7.77h-10v-4.5h10Zm-8.5-1.5h7v-1.5h-7Z" fill="#333"/><path d="M39.77,35.5a5,5,0,0,0-4.66-4.95v2a3.06,3.06,0,0,1,2.34,1.7.06.06,0,0,1,0,0,3,3,0,0,1,.29,1.27,3,3,0,0,1-.29,1.27.06.06,0,0,1,0,0A3.06,3.06,0,0,1,34.7,38.6H23.25V35.54a.47.47,0,0,0-.81-.34l-4,4a.46.46,0,0,0,0,.67l4,4a.48.48,0,0,0,.81-.34v-3H34.68a5.07,5.07,0,0,0,5.09-5s0,0,0-.06S39.77,35.52,39.77,35.5Z" fill="#0b7f0b"/><path d="M25.11,21.28v6.88h18V21.28H41.61v1.94H37.69V21.28h-1.5v1.94H32.28V21.28h-1.5v1.94H26.61V21.28Zm12.58,3.44h3.92v1.94H37.69Zm-5.41,0h3.91v1.94H32.28Zm-1.5,0v1.94H26.61V24.72Zm5.91,13.14H23.25v.74H34.7A3.07,3.07,0,0,0,36.69,37.86ZM46,11,40,5l-.15-.15H22.14v6.28H3.86v34h24V40.62h-1v3.52h-22v-32H22.14V35.5l.3-.3a.48.48,0,0,1,.7,0V5.86h16v6h6v26h-6a4.68,4.68,0,0,1-.69,1h7.64V11.15Zm-5.87-.15V6.57l4.28,4.29Zm-23.28,24v-4.5h-10v4.5Zm-8.5-3h7v1.5h-7Z" fill="gray"/><path d="M16.87,41.89h-10v-4.5h10Zm-8.5-1.5h7v-1.5h-7ZM35.11,34.7h-10V30.2h10Zm-8.5-1.5h7V31.7h-7Z" fill="#6bb73e"/><path d="M25.11,16.68v4.6h18v-4.6Zm11.08,1.5v1.5H32.28v-1.5Zm-9.58,0h4.17v1.5H26.61Zm15,1.5H37.69v-1.5H41.6Zm-24.73,8.2h-10v-4.5h10Zm-8.5-1.5h7v-1.5h-7Z" fill="#555"/></svg>