<svg id="圖層_1" data-name="圖層 1" xmlns="http://www.w3.org/2000/svg" viewBox="0 0 50 50"><title>工作區域 1</title><path d="M30,12.08v-6H14v32h3.89l2.76-2.77a.5.5,0,0,1,.68,0l2.76,2.77h7.06a4.62,4.62,0,0,0-4.36-4.28.56.56,0,0,1-.52-.55v-.7a.54.54,0,0,1,.17-.4.53.53,0,0,1,.41-.15A6.43,6.43,0,0,1,33,38.08h3v-26ZM16,10.3l10,0,0,4.5-10,0ZM26,34.91H16v-4.5H26Zm8-13.36,0,6.82H16l0-6.82h0l0-4.66H34l0,4.66ZM17.48,25h4.18v1.9H17.48ZM31,6.78v4.3h4.29ZM17.53,13.3l7,0v-1.5l-7,0ZM28.59,26.91l3.89,0V25H28.59ZM23.16,25v1.9l3.94,0V25Zm9.34-6.54H28.59V20H32.5Zm-10.82,0H17.5V20h4.17Zm-4.19,5h4.17V21.55H17.49Zm9.6-5H23.18V20h3.92Zm-3.92,3.1v1.94h3.93V21.55Zm5.42,1.94h3.9V21.55H28.58Zm-4.12,8.42h-7v1.5h7Z" fill="#fff"/><path d="M36.85,11.22h0l-6-6h0l-.14-.14H13v34h3.89l1-1H14v-32H30v6h6v26H33a6.69,6.69,0,0,1,0,1h4V11.37ZM31,11.08V6.78l4.29,4.3Zm.13,28a4.34,4.34,0,0,0,.06-.62c0-.13,0-.26,0-.38H24.09l1,1ZM16,21.55l0,6.82H34l0-6.82h-1.5v1.94h-3.9V21.55h-1.5v1.94H23.16V21.55h-1.5v1.94H17.49V21.55ZM32.48,25v1.94l-3.89,0V25Zm-9.32,0h3.93v1.92l-3.94,0Zm-1.5,0v1.9H17.48V25Z" fill="gray"/><path d="M26,14.83l-10,0,0-4.5,10,0ZM17.53,13.3l7,0v-1.5l-7,0Z" fill="#333"/><path d="M16,16.89l0,4.66H34l0-4.66Zm11.08,1.56V20H23.17v-1.5Zm-9.59,0h4.18V20H17.5Zm15,1.5H28.59v-1.5H32.5Z" fill="#555"/><path d="M26,34.91H16v-4.5H26Zm-8.5-1.5h7v-1.5h-7Z" fill="#6bb73e"/><path d="M31.1,33.88A6.49,6.49,0,0,0,26.85,32a.53.53,0,0,0-.41.15.54.54,0,0,0-.17.4v.7a.56.56,0,0,0,.52.55,4.67,4.67,0,1,1-3.57,8,4.79,4.79,0,0,1-1-1.61H25a.48.48,0,0,0,.34-.82l-4-4a.5.5,0,0,0-.68,0l-4,4a.48.48,0,0,0,.34.82h3.31A6.33,6.33,0,0,0,22,43a6.41,6.41,0,0,0,4.57,1.89h0a6.47,6.47,0,0,0,4.58-11Z" fill="#0b7f0b"/></svg>