<?xml version="1.0" encoding="utf-8"?>
<!-- Generator: Adobe Illustrator 24.0.1, SVG Export Plug-In . SVG Version: 6.00 Build 0)  -->
<svg version="1.1" id="圖層_2" xmlns="http://www.w3.org/2000/svg" xmlns:xlink="http://www.w3.org/1999/xlink" x="0px" y="0px"
	 viewBox="0 0 100 90" style="enable-background:new 0 0 100 90;" xml:space="preserve">
<style type="text/css">
	.st0{fill:#333333;}
</style>
<rect x="12.8" y="7" class="st0" width="75" height="0.5"/>
<rect x="12.8" y="21.3" class="st0" width="75" height="1"/>
<rect x="12.8" y="35" class="st0" width="75" height="2"/>
<path class="st0" d="M87.8,52h-3v-2h3V52z M80.8,52h-4v-2h4V52z M72.8,52h-4v-2h4V52z M64.8,52h-4v-2h4V52z M56.8,52h-4v-2h4V52z
	 M48.8,52h-4v-2h4V52z M40.8,52h-4v-2h4V52z M32.8,52h-4v-2h4V52z M24.8,52h-4v-2h4V52z M16.8,52h-4v-2h4V52z"/>
<path class="st0" d="M86.8,68h-2v-2h2V68z M82.8,68h-2v-2h2V68z M78.8,68h-2v-2h2V68z M74.8,68h-2v-2h2V68z M70.8,68h-2v-2h2V68z
	 M66.8,68h-2v-2h2V68z M62.8,68h-2v-2h2V68z M58.8,68h-2v-2h2V68z M54.8,68h-2v-2h2V68z M50.8,68h-2v-2h2V68z M46.8,68h-2v-2h2V68z
	 M42.8,68h-2v-2h2V68z M38.8,68h-2v-2h2V68z M34.8,68h-2v-2h2V68z M30.8,68h-2v-2h2V68z M26.8,68h-2v-2h2V68z M22.8,68h-2v-2h2V68z
	 M18.8,68h-2v-2h2V68z M14.8,68h-2v-2h2V68z"/>
<rect x="12.8" y="81.1" class="st0" width="75" height="1"/>
<rect x="12.8" y="83" class="st0" width="75" height="1"/>
</svg>
