<?xml version="1.0" encoding="utf-8"?>
<!-- Generator: Adobe Illustrator 24.0.1, SVG Export Plug-In . SVG Version: 6.00 Build 0)  -->
<svg version="1.1" id="圖層_1" xmlns="http://www.w3.org/2000/svg" xmlns:xlink="http://www.w3.org/1999/xlink" x="0px" y="0px"
	 viewBox="0 0 20 20" style="enable-background:new 0 0 20 20;" xml:space="preserve">
<style type="text/css">
	.st0{fill:#D50E0E;}
	.st1{fill:#333333;}
</style>
<g>
	<path class="st0" d="M245.4,16.6h-15.9c-0.3,0-0.6,0.3-0.6,0.6v1.2c0,0.3,0.3,0.6,0.6,0.6h15.9c0.3,0,0.6-0.3,0.6-0.6v-1.2
		C246.1,16.9,245.8,16.6,245.4,16.6z"/>
	<path class="st1" d="M237.2,4.5l3.4,3.4l-7.3,7.3l-3,0.3c-0.4,0-0.7-0.3-0.7-0.7l0.3-3C229.9,11.8,237.2,4.5,237.2,4.5z M242.7,4
		l-1.6-1.6c-0.5-0.5-1.3-0.5-1.8,0l-1.5,1.5l3.4,3.4l1.5-1.5C243.2,5.3,243.2,4.5,242.7,4z"/>
</g>
<path class="st1" d="M18.1,5H1.9V2h16.2V5z M3.4,15.5H1.9V18h1.5V15.5z M18.1,8.9h-4v2.5h4V8.9z M5.9,8.9h-4v2.5h4V8.9z M12,8.9H8
	v2.5h4V8.9z M18.1,15.5h-1.5V18h1.5V15.5z M15.6,15.5h-1.5V18h1.5V15.5z M13.2,15.5h-1.5V18h1.5V15.5z M10.8,15.5H9.2V18h1.5V15.5z
	 M8.3,15.5H6.8V18h1.5V15.5z M5.8,15.5H4.3V18h1.5V15.5z"/>
</svg>
