<?xml version="1.0" encoding="utf-8"?>
<!-- Generator: Adobe Illustrator 24.0.1, SVG Export Plug-In . SVG Version: 6.00 Build 0)  -->
<svg version="1.1" id="圖層_1" xmlns="http://www.w3.org/2000/svg" xmlns:xlink="http://www.w3.org/1999/xlink" x="0px" y="0px"
	 viewBox="0 0 20 20" style="enable-background:new 0 0 20 20;" xml:space="preserve">
<style type="text/css">
	.st0{fill:#D50E0E;}
	.st1{fill:#333333;}
</style>
<g>
	<path class="st0" d="M245.4,16.6h-15.9c-0.3,0-0.6,0.3-0.6,0.6v1.2c0,0.3,0.3,0.6,0.6,0.6h15.9c0.3,0,0.6-0.3,0.6-0.6v-1.2
		C246.1,16.9,245.8,16.6,245.4,16.6z"/>
	<path class="st1" d="M237.2,4.5l3.4,3.4l-7.3,7.3l-3,0.3c-0.4,0-0.7-0.3-0.7-0.7l0.3-3C229.9,11.8,237.2,4.5,237.2,4.5z M242.7,4
		l-1.6-1.6c-0.5-0.5-1.3-0.5-1.8,0l-1.5,1.5l3.4,3.4l1.5-1.5C243.2,5.3,243.2,4.5,242.7,4z"/>
</g>
<g>
	<path class="st0" d="M17.9,16.1H2.1c-0.3,0-0.6,0.3-0.6,0.6v1.2c0,0.3,0.3,0.6,0.6,0.6h15.9c0.3,0,0.6-0.3,0.6-0.6v-1.2
		C18.5,16.3,18.3,16.1,17.9,16.1z"/>
	<path class="st1" d="M9.7,4l3.4,3.4l-7.3,7.3l-3,0.3c-0.4,0-0.7-0.3-0.7-0.7l0.3-3C2.4,11.3,9.7,4,9.7,4z M15.2,3.5l-1.6-1.6
		c-0.5-0.5-1.3-0.5-1.8,0l-1.5,1.5l3.4,3.4l1.5-1.5C15.7,4.8,15.7,4,15.2,3.5z"/>
</g>
</svg>
