<svg xmlns="http://www.w3.org/2000/svg" width="101" height="85" viewBox="0 0 101 85">
  <g id="icon_彩色" data-name="icon 彩色" transform="translate(0.5 0.5)">
    <rect id="Rectangle_33" data-name="Rectangle 33" width="100" height="84" fill="#fff" stroke="#707070" stroke-width="1"/>
    <path id="Path_54" data-name="Path 54" d="M7.43,7V77H92.57V7Zm4.28,65.71V22H88.29V72.71Zm20.09-41h8.71v7.68H31.8ZM45.64,44.46h8.72v7.68H45.64ZM18,57.48h8.7v7.68H18Zm27.68,0H54.4v7.68H45.64ZM73.34,31.7H82v7.68H73.3Z" fill="#c33"/>
    <path id="Path_55" data-name="Path 55" d="M45.64,31.7h8.72v7.68H45.64Zm13.85,0H68.2v7.68H59.49ZM31.8,44.46h8.71v7.68H31.8Zm27.69,0H68.2v7.68H59.49Zm-27.69,13h8.71v7.68H31.8ZM18,44.46h8.7v7.68H18Zm41.53,13H68.2v7.68H59.49Zm13.85-13H82v7.68H73.3Zm0,13H82v7.68H73.3Z" fill="#3361ad"/>
  </g>
</svg>
