<?xml version="1.0" encoding="utf-8"?>
<!-- Generator: Adobe Illustrator 24.0.1, SVG Export Plug-In . SVG Version: 6.00 Build 0)  -->
<svg version="1.1" id="圖層_1" xmlns="http://www.w3.org/2000/svg" xmlns:xlink="http://www.w3.org/1999/xlink" x="0px" y="0px"
	 viewBox="0 0 101 85" style="enable-background:new 0 0 101 85;" xml:space="preserve">
<style type="text/css">
	.st0{fill:#FFFFFF;stroke:#707070;}
	.st1{fill:#3361AD;}
	.st2{fill:#CC3333;}
	.st3{fill:#333333;}
</style>
<rect id="Rectangle_32" x="0.5" y="0.5" class="st0" width="100" height="84"/>
<path class="st1" d="M78.8,40.5c-3.4,0-6.2,2.8-6.2,6.2l0,0c0,0.4,0,0.8,0.1,1.2L62.4,54c-1.7-2.9-5.5-3.9-8.5-2.2
	c-0.9,0.5-1.6,1.3-2.2,2.2l-10.2-2.9c0-0.1,0-0.1,0-0.2c0-3.4-2.7-6.2-6.1-6.3c-2.8,0-5.2,1.8-6,4.4c-0.4,1.4-0.3,2.9,0.2,4.2
	L17,62.8c-2.9-1.9-6.8-1.1-8.7,1.8c-1.9,2.9-1.1,6.8,1.8,8.7c2.9,1.9,6.8,1.1,8.7-1.8c1.3-1.9,1.4-4.4,0.3-6.5l12.4-9.3
	c2.7,2.1,6.5,1.7,8.6-1l0,0c0.2-0.2,0.4-0.5,0.5-0.7l10.2,3c0,0.1,0,0.2,0,0.2c0.1,3.4,3,6.1,6.5,6c3.3-0.1,5.9-2.7,6-6
	c0-0.1,0-0.1,0-0.2L74,50.7c2.2,2.6,6.2,3,8.8,0.7s3-6.2,0.7-8.8C82.4,41.3,80.7,40.4,78.8,40.5z M13.7,71.1c-1.7,0-3.1-1.4-3.1-3.1
	s1.4-3.1,3.1-3.1s3.1,1.4,3.1,3.1l0,0C16.8,69.7,15.4,71.1,13.7,71.1L13.7,71.1z M38.5,51c0,0.3,0,0.6-0.1,0.8
	c-0.5,1.7-2.2,2.6-3.9,2.1s-2.6-2.2-2.1-3.9l0,0l0,0c0.5-1.6,2.2-2.6,3.8-2.1c0.8,0.2,1.4,0.8,1.8,1.5C38.3,49.9,38.5,50.5,38.5,51z
	 M57.1,60.3c-1.7,0-3.1-1.4-3.1-3.1c0-1.7,1.4-3.1,3.1-3.1c1.7,0,3.1,1.4,3.1,3.1l0,0C60.2,59,58.8,60.3,57.1,60.3L57.1,60.3z
	 M78.8,49.8c-1.7,0-3.1-1.4-3.1-3.1s1.4-3.1,3.1-3.1s3.1,1.4,3.1,3.1l0,0C81.9,48.4,80.5,49.8,78.8,49.8z"/>
<path class="st2" d="M13.7,56.3c3.4,0,6.2-2.8,6.2-6.2c0-1.5-0.6-3-1.6-4.1l15.2-24.1c1.9,0.7,4,0.3,5.6-1l12.3,9.7
	c-1.4,3.1,0,6.8,3.1,8.1c0.8,0.4,1.7,0.5,2.5,0.5l0,0c3.4,0,6.2-2.8,6.2-6.2l0,0c0-0.6-0.1-1.1-0.2-1.6l11.2-6.5
	c1.2,1.3,2.8,2,4.6,2l0,0c3.4,0,6.2-2.8,6.2-6.2s-2.8-6.2-6.2-6.2c-3.4,0-6.2,2.8-6.2,6.2c0,0.5,0.1,1,0.2,1.5l-11.2,6.6
	c-1.2-1.2-2.8-1.8-4.4-1.9l0,0c-1.3,0-2.7,0.5-3.7,1.3l-12.3-9.7c1.4-3.1,0-6.8-3.2-8.2c-3.1-1.4-6.8,0-8.2,3.2
	c-1,2.3-0.6,4.9,1.1,6.8l-15.1,24c-0.6-0.2-1.3-0.3-2-0.4c-3.4,0.1-6.1,3-5.9,6.4C7.9,53.5,10.5,56.1,13.7,56.3L13.7,56.3z
	 M78.8,17.6c1.7,0,3.1,1.4,3.1,3.1s-1.4,3.1-3.1,3.1l0,0c-1.1,0-2.1-0.6-2.7-1.5c-0.3-0.5-0.4-1-0.4-1.6
	C75.7,18.9,77.1,17.6,78.8,17.6L78.8,17.6z M57.1,30c1.7,0,3.1,1.4,3.1,3.1c0,1.7-1.4,3.1-3.1,3.1c-1.7,0-3.1-1.4-3.1-3.1l0,0
	C54,31.4,55.4,30,57.1,30z M35.4,13c1.7,0,3.1,1.4,3.1,3.1s-1.4,3.1-3.1,3.1c-1.7,0-3.1-1.4-3.1-3.1l0,0C32.3,14.4,33.6,13,35.4,13
	C35.3,12.9,35.4,12.9,35.4,13L35.4,13z M13.7,47c1.7,0,3.1,1.4,3.1,3.1s-1.4,3.1-3.1,3.1s-3.1-1.4-3.1-3.1l0,0
	C10.6,48.4,12,47,13.7,47L13.7,47z"/>
<title>工作區域 7</title>
<path class="st3" d="M91.9,63.3h-8.1L80.9,59c-0.2-0.3-0.6-0.5-0.9-0.5c-0.4,0-0.7,0.2-0.9,0.5l-3,4.3H68c-0.6,0-1.1,0.5-1.1,1.1
	l0,0v9.2c0,0.6,0.5,1.1,1.1,1.1l0,0h24c0.6,0,1.1-0.5,1.1-1.1v-9.2C93,63.8,92.5,63.3,91.9,63.3L91.9,63.3z M90.8,72.5H69v-7h7.5
	c0.4,0,0.7-0.2,0.9-0.5l2.5-3.5l2.4,3.4c0.2,0.3,0.5,0.5,0.9,0.5h7.5L90.8,72.5z"/>
</svg>
