<svg xmlns="http://www.w3.org/2000/svg" width="101" height="85" viewBox="0 0 101 85">
  <g id="icon_彩色" data-name="icon 彩色" transform="translate(0.5 0.5)">
    <rect id="Rectangle_15" data-name="Rectangle 15" width="100" height="84" fill="#fff" stroke="#707070" stroke-width="1"/>
    <path id="Path_35" data-name="Path 35" d="M51.44,7.5A1.43,1.43,0,0,0,50,8.94V40.53A1.43,1.43,0,0,0,51.44,42H83a1.43,1.43,0,0,0,1.43-1.43A33.06,33.06,0,0,0,51.44,7.5Z" fill="#3361ad"/>
    <path id="Path_36" data-name="Path 36" d="M66.93,68.36,47.13,42.91V11.81a1.43,1.43,0,0,0-1.44-1.44c-16.63,0-30.15,14.82-30.15,33a33.06,33.06,0,0,0,33,33,24.56,24.56,0,0,0,18.15-6.08,1.43,1.43,0,0,0,.24-1.93Z" fill="#c33"/>
    <path id="Path_37" data-name="Path 37" d="M83,44.83H54.31a1.45,1.45,0,0,0-1.44,1.44,1.4,1.4,0,0,0,.32.9L71.86,70.28a1.41,1.41,0,0,0,1,.53H73a1.39,1.39,0,0,0,1-.38A33.14,33.14,0,0,0,84.46,46.27,1.44,1.44,0,0,0,83,44.83Z" fill="#6bb73e"/>
  </g>
</svg>
