<svg xmlns="http://www.w3.org/2000/svg" width="101" height="85" viewBox="0 0 101 85">
  <g id="icon_彩色" data-name="icon 彩色" transform="translate(0.5 0.5)">
    <rect id="Rectangle_27" data-name="Rectangle 27" width="100" height="84" fill="#fff" stroke="#707070" stroke-width="1"/>
    <path id="Path_40" data-name="Path 40" d="M31.78,30.23H8.55V7H31.78ZM12.22,26.56h15.9V10.67H12.22Z" fill="#c33"/>
    <path id="Path_41" data-name="Path 41" d="M31.78,35.85V77H8.55V35.85ZM28.12,73.33V39.52H12.22V73.33Zm63.33-43.1h-54V7h54ZM41.07,26.56H87.78V10.67H41.07Z" fill="#3361ad"/>
    <path id="Path_42" data-name="Path 42" d="M43.22,69.23l8.31,7.33A1.81,1.81,0,0,0,54,76.47,1.79,1.79,0,0,0,53.92,74l-5-4.51h2.9A24.9,24.9,0,0,0,76.73,44.56v-2.8l4.41,4.93a1.92,1.92,0,0,0,2.57.08,1.71,1.71,0,0,0,.09-2.47L76.29,36a1.82,1.82,0,0,0-2.56,0l-7.51,8.31a1.751,1.751,0,0,0,2.56,2.39l4.41-4.93v2.81A21.49,21.49,0,0,1,51.72,66H49l4.92-4.42a1.744,1.744,0,1,0-2.38-2.55l-8.31,7.51a1.76,1.76,0,0,0-.01,2.69Z" fill="#333"/>
  </g>
</svg>
