<svg id="圖層_1" data-name="圖層 1" xmlns="http://www.w3.org/2000/svg" viewBox="0 0 205 205"><title>工作區域 1</title><path d="M196.12,159.9H21.63V32.35A6.37,6.37,0,0,0,15.26,26H8.88A6.37,6.37,0,0,0,2.5,32.35V166.28A12.75,12.75,0,0,0,15.26,179H196.12a6.37,6.37,0,0,0,6.38-6.38v-6.37A6.37,6.37,0,0,0,196.12,159.9Z" fill="gray"/><path d="M115.43,136V82.45a5.48,5.48,0,0,1,5.1-5.1h15.31a5.48,5.48,0,0,1,5.1,5.1V136a5.48,5.48,0,0,1-5.1,5.1H120.53A5.48,5.48,0,0,1,115.43,136Zm43.37,5.1h15.3a5.48,5.48,0,0,0,5.1-5.1V44.18a5.48,5.48,0,0,0-5.1-5.1H158.8a5.49,5.49,0,0,0-5.11,5.1V136A5.49,5.49,0,0,0,158.8,141.12Zm-114.8,0H59.31a5.48,5.48,0,0,0,5.1-5.1V108a5.48,5.48,0,0,0-5.1-5.1H44a5.48,5.48,0,0,0-5.1,5.1V136A5.48,5.48,0,0,0,44,141.12Zm38.26,0H97.57a5.48,5.48,0,0,0,5.1-5.1V56.94a5.48,5.48,0,0,0-5.1-5.1H82.26a5.48,5.48,0,0,0-5.1,5.1V136A5.48,5.48,0,0,0,82.26,141.12Z" fill="#c33"/></svg>