<svg id="圖層_1" data-name="圖層 1" xmlns="http://www.w3.org/2000/svg" viewBox="0 0 195 195"><title>工作區域 1</title><path d="M97.1,165.66H28.59V19.41H84.84V56a8.42,8.42,0,0,0,8.44,8.44h36.56v38.88a44.32,44.32,0,0,1,16.87,0V48.91a17,17,0,0,0-5-12L112.26,7.46a16.84,16.84,0,0,0-11.92-5H28.59A16.93,16.93,0,0,0,11.72,19.41V165.66a16.88,16.88,0,0,0,16.87,16.87H110A45.07,45.07,0,0,1,97.1,165.66Zm4.62-144.88,26.75,26.75H101.72Zm-46.41,128H65.47a4.17,4.17,0,0,0,3.69-2.21c7.63-14.06,8.09-15.82,10.06-20.29,5.23,10.62,2.07,5.59,10,20.29A4.24,4.24,0,0,0,93,148.78h.3c0-.43,0-.86,0-1.29a44.85,44.85,0,0,1,4.65-19.93L90.47,115c.24-.38,10.65-17.75,16.27-27.42a4.2,4.2,0,0,0-3.62-6.33H93a4.17,4.17,0,0,0-3.69,2.22C83,95.13,81.5,98.4,79.25,103.78c-4.89-10.23-2.42-6.08-10-20.28a4.24,4.24,0,0,0-3.73-2.22H55.31a4.22,4.22,0,0,0-3.66,6.33L67.93,115,51.65,142.45A4.21,4.21,0,0,0,55.31,148.78Z" fill="#1d6f42"/><path d="M138.27,102.48a45,45,0,1,0,45,45A45,45,0,0,0,138.27,102.48Zm26.88,51.79L141.25,178a4.21,4.21,0,0,1-5.95,0l-23.9-23.72a4,4,0,0,1,2.79-6.78h16.16V119.73a4,4,0,0,1,4-4h7.93a4,4,0,0,1,4,4v27.76h16.15A4,4,0,0,1,165.15,154.27Z" fill="#6bb73e"/><path d="M135.3,178a4.21,4.21,0,0,0,5.95,0l23.9-23.72a4,4,0,0,0-2.79-6.78H146.21V119.73a4,4,0,0,0-4-4h-7.93a4,4,0,0,0-4,4v27.76H114.19a4,4,0,0,0-2.79,6.78Z" fill="#fff"/></svg>