<svg id="圖層_1" data-name="圖層 1" xmlns="http://www.w3.org/2000/svg" viewBox="0 0 195 195"><title>工作區域 1</title><path d="M97.1,165.66H28.59V19.41H84.84V56a8.42,8.42,0,0,0,8.44,8.44h36.56v38.88a44.32,44.32,0,0,1,16.87,0V48.91a17,17,0,0,0-5-12L112.26,7.46a16.84,16.84,0,0,0-11.92-5H28.59A16.93,16.93,0,0,0,11.72,19.41V165.66a16.88,16.88,0,0,0,16.87,16.87H110A45.07,45.07,0,0,1,97.1,165.66Zm4.62-144.88,26.75,26.75H101.72ZM100.17,119c1.23-.1,2.36-.15,3.4-.17a45.33,45.33,0,0,1,6.42-6.35c-5.32-.82-12-.15-16.08.36-6-3.69-10.09-8.79-12.94-16.27,1.37-5.66,3.55-14.28,1.9-19.69-1.47-9.21-13.29-8.3-15-2.07-1.55,5.66-.14,13.53,2.46,23.58a283.07,283.07,0,0,1-12.45,26.16c-7,3.62-16.52,9.21-17.93,16.24-1.16,5.56,9.14,19.41,26.76-11,7.87-2.6,16.45-5.8,24-7.06a58.91,58.91,0,0,0,7.81,3.48,45.35,45.35,0,0,1,4-6.24C101.87,119.71,101.06,119.39,100.17,119ZM46.91,142.49c1.79-4.82,8.61-10.37,10.69-12.31C50.92,140.84,46.91,142.74,46.91,142.49Zm28.68-67c2.61,0,2.36,11.29.64,14.35C74.68,84.94,74.72,75.48,75.59,75.48Zm-8.57,48a139.11,139.11,0,0,0,8.68-19.23,38.84,38.84,0,0,0,10.58,12.48C79,118.27,72.61,121.36,67,123.51Z" fill="#c33"/><path d="M138.27,102.48a45,45,0,1,0,45,45A45,45,0,0,0,138.27,102.48Zm26.88,51.79L141.25,178a4.21,4.21,0,0,1-5.95,0l-23.9-23.72a4,4,0,0,1,2.79-6.78h16.16V119.73a4,4,0,0,1,4-4h7.93a4,4,0,0,1,4,4v27.76h16.15A4,4,0,0,1,165.15,154.27Z" fill="#6bb73e"/><path d="M135.3,178a4.21,4.21,0,0,0,5.95,0l23.9-23.72a4,4,0,0,0-2.79-6.78H146.21V119.73a4,4,0,0,0-4-4h-7.93a4,4,0,0,0-4,4v27.76H114.19a4,4,0,0,0-2.79,6.78Z" fill="#fff"/></svg>