<?xml version="1.0" encoding="utf-8"?>
<!-- Generator: Adobe Illustrator 24.0.1, SVG Export Plug-In . SVG Version: 6.00 Build 0)  -->
<svg version="1.1" id="圖層_1" xmlns="http://www.w3.org/2000/svg" xmlns:xlink="http://www.w3.org/1999/xlink" x="0px" y="0px"
	 viewBox="0 0 220 200" style="enable-background:new 0 0 220 200;" xml:space="preserve">
<style type="text/css">
	.st0{fill:#808080;}
	.st1{fill:#66CC33;}
	.st2{fill:#FFFFFF;}
</style>
<path class="st0" d="M32.8,171.3c-20.4-20.4-20.4-53.4,0-73.8l79.1-79.1c15.7-15.7,41.2-15.7,56.9,0c15.7,15.7,15.7,41.2,0,56.9
	L102.2,142c-11,11-29,11-40.1,0c-11.1-11.1-11.1-29,0-40.1l56.4-56.4c1.6-1.6,4.3-1.6,6,0l6,6c1.6,1.6,1.6,4.3,0,6l-56.4,56.4
	c-4.5,4.5-4.5,11.7,0,16.2c4.5,4.5,11.7,4.5,16.2,0l66.6-66.6c9.1-9.1,9.1-23.9,0-33.1c-9.1-9.1-23.9-9.1-33.1,0l-79.1,79.1
	c-13.8,13.8-13.8,36.1,0,49.9c13.8,13.8,36.2,13.8,50,0c23-23,45.9-45.9,68.9-68.9c1.6-1.6,4.3-1.6,6,0l6,6c1.6,1.6,1.6,4.3,0,6
	c-23,23-45.9,45.9-68.9,68.9C86.2,191.7,53.2,191.7,32.8,171.3L32.8,171.3z"/>
<g>
	<circle class="st1" cx="162" cy="151.6" r="45"/>
	<path class="st2" d="M159,182.1c1.6,1.6,4.3,1.6,6,0l23.9-23.7c2.5-2.5,0.7-6.8-2.8-6.8h-16.1v-27.8c0-2.2-1.8-4-4-4h-7.9
		c-2.2,0-4,1.8-4,4v27.8h-16.1c-3.5,0-5.3,4.3-2.8,6.8L159,182.1z"/>
</g>
</svg>
