<svg id="圖層_1" data-name="圖層 1" xmlns="http://www.w3.org/2000/svg" viewBox="0 0 205 205"><title>工作區域 1</title><path d="M121.64,131v45.28H19.52V28.76H76.25V65.64a8.49,8.49,0,0,0,8.51,8.51h36.88v34.14h17V58.51a17.1,17.1,0,0,0-5-12L103.91,16.71a17,17,0,0,0-12-5H19.52a17.07,17.07,0,0,0-17,17.05V176.27a17,17,0,0,0,17,17H121.64a17,17,0,0,0,17-17V131ZM93.27,30.15l27,27h-27Z" fill="gray"/><path d="M72,131a5.68,5.68,0,0,1-5.67-5.68V114A5.67,5.67,0,0,1,72,108.29h33.27V95a4.33,4.33,0,0,0-4.34-4.33H40.24A4.33,4.33,0,0,0,35.9,95v60.69A4.33,4.33,0,0,0,40.24,160h60.68a4.33,4.33,0,0,0,4.34-4.33V131ZM44.57,99.32h52V108h-52Zm21.68,52H44.57v-13H66.25Zm0-21.67H44.57v-13H66.25Zm30.34,21.67H74.92v-13H96.59Z" fill="gray" opacity="0.8"/><path d="M200.73,115.38,166.82,81.16a5.69,5.69,0,0,0-9.72,4v23.13H72A5.67,5.67,0,0,0,66.32,114v11.35A5.68,5.68,0,0,0,72,131h85.1v23.08a5.69,5.69,0,0,0,9.72,4l33.94-34.19A6,6,0,0,0,200.73,115.38Z" fill="#6bb73e"/></svg>