<svg id="圖層_1" data-name="圖層 1" xmlns="http://www.w3.org/2000/svg" viewBox="0 0 185 185"><title>工作區域 1</title><path d="M160,83V48.9A17,17,0,0,0,155,37L125.53,7.46a16.88,16.88,0,0,0-11.92-5H41.87A16.93,16.93,0,0,0,25,19.41V83C12.16,85.42,2.5,95.87,2.5,108.4v35.92a5.42,5.42,0,0,0,5.62,5.18H25v16.13A16.88,16.88,0,0,0,41.87,182.5H143.1A16.9,16.9,0,0,0,160,165.63V149.5h16.88a5.42,5.42,0,0,0,5.62-5.18V108.4C182.5,95.87,172.84,85.42,160,83ZM115,20.78l26.75,26.74H115ZM41.87,19.41H98.11V56a8.42,8.42,0,0,0,8.44,8.44h36.57V96.5H41.87ZM143.12,165.63H41.87V136.5H143.12Zm.37-41.19a8.44,8.44,0,1,1,8.44-8.44A8.44,8.44,0,0,1,143.49,124.44Z" fill="gray"/></svg>