<svg id="圖層_1" data-name="圖層 1" xmlns="http://www.w3.org/2000/svg" viewBox="0 0 205 205"><title>工作區域 1</title><path d="M107.87,163.17c-3.35,4.38-6.65,6.71-9.31,6.71-6.75,0-17.64-15-22.94-40.65h37.27a45.08,45.08,0,0,1,28.84-20.85c.23-3.63.38-7.31.38-11.09,0-5-.26-9.76-.62-14.51h28.2a72.95,72.95,0,0,1,.11,28.39,45.23,45.23,0,0,1,15.25,11.1,89.91,89.91,0,1,0-64.77,62.38A44.88,44.88,0,0,1,107.87,163.17Zm55.76-97.81H139.24c-2.43-13.25-6.35-25-11.32-34.37A72.77,72.77,0,0,1,163.63,65.36ZM98.56,24.71c6.75,0,17.64,15,22.93,40.65H75.62C80.92,39.67,91.81,24.71,98.56,24.71ZM26,97.29a73.69,73.69,0,0,1,1.45-14.51h28.2c-.37,4.75-.62,9.54-.62,14.51s.25,9.77.62,14.52H27.43A73.71,73.71,0,0,1,26,97.29Zm7.51,31.94H57.88c2.43,13.25,6.35,25,11.32,34.37A72.77,72.77,0,0,1,33.49,129.23ZM57.88,65.36H33.49A72.77,72.77,0,0,1,69.2,31C64.23,40.39,60.31,52.11,57.88,65.36ZM72.43,97.29c0-5.08.29-9.87.69-14.51H124c.39,4.64.68,9.43.68,14.51s-.32,9.88-.72,14.52H73.12C72.72,107.17,72.43,102.38,72.43,97.29Z" fill="#c33"/><path d="M151.53,107.29a45,45,0,1,0,45,45A45,45,0,0,0,151.53,107.29Zm24.08,45H159.46v27.76a4,4,0,0,1-4,4h-7.93a4,4,0,0,1-4-4V152.29H127.46a4,4,0,0,1-2.79-6.78l23.89-23.71a4.23,4.23,0,0,1,5.95,0l23.89,23.71A4,4,0,0,1,175.61,152.29Z" fill="#6bb73e"/><path d="M148.56,121.8a4.23,4.23,0,0,1,5.95,0l23.89,23.71a4,4,0,0,1-2.79,6.78H159.46v27.76a4,4,0,0,1-4,4h-7.93a4,4,0,0,1-4-4V152.29H127.46a4,4,0,0,1-2.79-6.78Z" fill="#fff"/></svg>