<svg id="圖層_1" data-name="圖層 1" xmlns="http://www.w3.org/2000/svg" viewBox="0 0 215 215"><title>工作區域 1</title><path d="M177.33,98.26h0V36.17a5.43,5.43,0,0,0-5-5.05H157.14a5.44,5.44,0,0,0-5,5.05v60.7h0a50.42,50.42,0,0,0-12.63,4.33h0V74a5.43,5.43,0,0,0-5-5H119.28a5.44,5.44,0,0,0-5,5v53a4.42,4.42,0,0,0,.43,1.83h0a50.49,50.49,0,1,0,62.67-30.6ZM162,187.08a40.71,40.71,0,1,1,40.71-40.71A40.7,40.7,0,0,1,162,187.08ZM96.57,43.74H81.42a5.44,5.44,0,0,0-5,5V127a5.43,5.43,0,0,0,5,5H96.57a5.42,5.42,0,0,0,5-5V48.79A5.43,5.43,0,0,0,96.57,43.74ZM58.7,94.22H43.56a5.44,5.44,0,0,0-5.05,5V127a5.43,5.43,0,0,0,5.05,5H58.7a5.42,5.42,0,0,0,5-5V99.27A5.43,5.43,0,0,0,58.7,94.22Zm122.62,62.39-13.6-9.89V117.87a2.45,2.45,0,0,0-2.44-2.44h-6.52a2.45,2.45,0,0,0-2.44,2.44V151.3a2.46,2.46,0,0,0,1,2l17.28,12.56a2.46,2.46,0,0,0,3.42-.53l3.83-5.27A2.44,2.44,0,0,0,181.32,156.61Z" fill="#c33"/><path d="M111.73,150.66H21.43V24.46a6.3,6.3,0,0,0-6.31-6.31H8.81A6.3,6.3,0,0,0,2.5,24.46V157a12.62,12.62,0,0,0,12.62,12.62H117.2A50.05,50.05,0,0,1,111.73,150.66Z" fill="gray"/><path d="M162,105.66a40.71,40.71,0,1,0,40.71,40.71A40.7,40.7,0,0,0,162,105.66ZM181.85,160,178,165.3a2.46,2.46,0,0,1-3.42.53l-17.28-12.56a2.46,2.46,0,0,1-1-2V117.87a2.45,2.45,0,0,1,2.44-2.44h6.52a2.45,2.45,0,0,1,2.44,2.44v28.85l13.6,9.89A2.44,2.44,0,0,1,181.85,160Z" fill="#fff"/></svg>