<svg id="圖層_1" data-name="圖層 1" xmlns="http://www.w3.org/2000/svg" viewBox="0 0 205 205"><title>工作區域 1</title><path d="M197.5,32.5H87.5a5,5,0,0,0-5,5v30a5,5,0,0,0,5,5h10a5,5,0,0,0,5-5v-10H130v95H117.5a5,5,0,0,0-5,5v10a5,5,0,0,0,5,5h50a5,5,0,0,0,5-5v-10a5,5,0,0,0-5-5H155v-95h27.5v10a5,5,0,0,0,5,5h10a5,5,0,0,0,5-5v-30A5,5,0,0,0,197.5,32.5Z" fill="gray"/><path d="M97.5,92.5H7.5a5,5,0,0,0-5,5v20a5,5,0,0,0,5,5h10a5,5,0,0,0,5-5v-5H40v40H32.5a5,5,0,0,0-5,5v10a5,5,0,0,0,5,5h40a5,5,0,0,0,5-5v-10a5,5,0,0,0-5-5H65v-40H82.5v5a5,5,0,0,0,5,5h10a5,5,0,0,0,5-5v-20A5,5,0,0,0,97.5,92.5Z" fill="gray" opacity="0.5"/></svg>