<?xml version="1.0" encoding="utf-8"?>
<!-- Generator: Adobe Illustrator 24.0.1, SVG Export Plug-In . SVG Version: 6.00 Build 0)  -->
<svg version="1.1" id="圖層_1" xmlns="http://www.w3.org/2000/svg" xmlns:xlink="http://www.w3.org/1999/xlink" x="0px" y="0px"
	 viewBox="0 0 512 512" style="enable-background:new 0 0 512 512;" xml:space="preserve">
<style type="text/css">
	.st0{fill:#0088FD;}
</style>
<path class="st0" d="M256,8C119,8,8,119,8,256s111,248,248,248s248-111,248-248S393,8,256,8z M400,274c0,7.4-6.1,13.5-13.5,13.5h-99
	v99c0,7.4-6.1,13.5-13.5,13.5h-36c-7.4,0-13.5-6.1-13.5-13.5v-99h-99c-7.4,0-13.5-6.1-13.5-13.5v-36c0-7.4,6.1-13.5,13.5-13.5h99
	v-99c0-7.4,6.1-13.5,13.5-13.5h36c7.4,0,13.5,6.1,13.5,13.5v99h99c7.4,0,13.5,6.1,13.5,13.5V274z"/>
</svg>
