<svg xmlns="http://www.w3.org/2000/svg" width="151.161" height="164.904" viewBox="0 0 151.161 164.904">
  <g id="portable-document-format" transform="translate(-1)">
    <path id="Path_10" data-name="Path 10" d="M21.613,46.379A32.676,32.676,0,0,1,54.25,13.742H117A18.858,18.858,0,0,0,98.911,0H19.9A18.911,18.911,0,0,0,1,18.9V125.4a18.911,18.911,0,0,0,18.9,18.9h1.718Z" fill="#525252"/>
    <path id="Path_11" data-name="Path 11" d="M103.911,4H24.9A18.911,18.911,0,0,0,6,22.9v99.629a18.911,18.911,0,0,0,18.9,18.9h79.016a18.911,18.911,0,0,0,18.9-18.9V22.9A18.911,18.911,0,0,0,103.911,4ZM90.169,120.807H38.637a5.153,5.153,0,1,1,0-10.306H90.169a5.153,5.153,0,1,1,0,10.306Zm0-27.484H38.637a5.153,5.153,0,0,1,0-10.306H90.169a5.153,5.153,0,0,1,0,10.306Zm0-24.048H38.637a5.153,5.153,0,1,1,0-10.306H90.169a5.153,5.153,0,1,1,0,10.306Zm0-27.484H38.637a5.153,5.153,0,1,1,0-10.306H90.169a5.153,5.153,0,1,1,0,10.306Z" transform="translate(29.355 23.484)" fill="#525252"/>
  </g>
</svg>
