<?xml version="1.0" encoding="utf-8"?>
<!-- Generator: Adobe Illustrator 24.0.1, SVG Export Plug-In . SVG Version: 6.00 Build 0)  -->
<svg version="1.1" id="圖層_1" xmlns="http://www.w3.org/2000/svg" xmlns:xlink="http://www.w3.org/1999/xlink" x="0px" y="0px"
	 viewBox="0 0 590 512" style="enable-background:new 0 0 590 512;" xml:space="preserve">
<style type="text/css">
	.st0{fill:#888888;}
</style>
<g>
	<path class="st0" d="M219.2,433.6c-39.2,39.2-102.7,39.3-141.9,0c-39.2-39.2-39.2-102.6,0-141.8L301.9,67.2
		c25.9-25.9,68-25.9,93.9,0c24.3,24.3,25.8,62.5,4.7,88.6c17.8,0.2,34.9,3.3,50.9,8.8c21-42.7,13.7-95.7-21.8-131.3
		c-44.6-44.6-117.1-44.6-161.6,0L43.4,257.9c-57.9,57.9-57.9,151.7,0,209.6v0c57.9,58,151.8,58,209.7,0c9.9-9.9,19.8-19.8,29.6-29.6
		c-11.5-11.3-21.4-24.3-29.1-38.6C242.2,410.7,230.7,422.1,219.2,433.6z"/>
	<path class="st0" d="M320.9,144c4.7-4.7,4.7-12.3,0-16.9L304,110.1c-4.7-4.7-12.3-4.7-16.9,0L126.8,270.4
		c-31.4,31.4-31.4,82.3,0,113.8c31.4,31.4,82.4,31.4,113.7,0l4.1-4.1c-6.8-17.6-10.7-36.7-11.1-56.7l-27,27
		c-12.7,12.7-33.3,12.7-46,0c-12.7-12.7-12.7-33.3,0-46L320.9,144z"/>
	<path class="st0" d="M585.3,462.3C585.3,462.3,585.3,462.3,585.3,462.3L585.3,462.3L508,385c11.7-19.5,18-41.8,18.1-64.5
		c0-70.6-57.2-127.8-127.8-127.8s-127.8,57.2-127.8,127.8s57.2,127.8,127.8,127.8c23.7,0,45.5-6.9,64.5-18.1l77.3,77.3
		c6.2,6.2,16.4,6.2,22.6,0c0,0,0,0,0,0l22.6-22.6C591.6,478.7,591.6,468.5,585.3,462.3z M398.3,384.4c-35.3,0-63.9-28.6-63.9-63.9
		s28.6-63.9,63.9-63.9c35.3,0,63.9,28.6,63.9,63.9S433.6,384.4,398.3,384.4z"/>
</g>
</svg>
