<svg id="圖層_1" data-name="圖層 1" xmlns="http://www.w3.org/2000/svg" viewBox="0 0 1000 354.53"><title>Ragic_logo</title><path d="M0,2.74H114.89q20.91,0,35.73,5.52t24.08,15.6a60.24,60.24,0,0,1,13.42,23.88,104.21,104.21,0,0,1,4.14,30q0,28.43-11.44,45.79T144.1,144.86v.79q26.44,2.37,36.32,18.56t9.87,44.61v35.53q0,5.93.4,11.25a88.46,88.46,0,0,0,1.18,9.68,25.93,25.93,0,0,0,2,6.71c1,1.58,2.11,3.09,3.16,4.54a15.55,15.55,0,0,0,5.13,4.14v3.95H124a48.43,48.43,0,0,1-4.15-13,145.28,145.28,0,0,1-2-15q-.6-7.5-.79-14.41c-.14-4.6-.2-8.35-.2-11.25V212a138.18,138.18,0,0,0-1.18-19.74q-1.19-7.89-4.15-12.44a15.74,15.74,0,0,0-7.5-6.31,30.94,30.94,0,0,0-11.25-1.78H73.43V284.62H0ZM73.43,122H88q15.78,0,23.29-9.28t7.5-24.28q0-17.77-7.3-25.27t-23.89-7.5H73.43Z" transform="translate(0 -2.74)" fill="#d50e0e"/><path d="M327.28,284.62a55.14,55.14,0,0,1-2.76-11.45c-.53-3.95-1.06-8.15-1.58-12.63h-.79a45.07,45.07,0,0,1-18.75,21.91q-12.84,7.69-29.42,7.7-16.19,0-27.44-4.74a48.45,48.45,0,0,1-18.35-13,50.5,50.5,0,0,1-10.27-19.74,94.65,94.65,0,0,1-3.16-25.27,101.67,101.67,0,0,1,3-25.85,49.48,49.48,0,0,1,9.67-19.35,55.23,55.23,0,0,1,18.16-13.82Q257,162.64,274,158.68L302,152q11.44-2.76,16.19-8.09t4.74-15.2q0-19.74-18.16-19.74-10.27,0-15,5.72t-5.13,22.7H223.06q0-22.89,8.29-37.11t20.53-21.91a74,74,0,0,1,26.44-10.27,150.55,150.55,0,0,1,26.46-2.56,183.84,183.84,0,0,1,34.15,3,70.08,70.08,0,0,1,26.84,10.66,50.17,50.17,0,0,1,17.37,21.12q6.12,13.43,6.12,33.95V238.43a259.77,259.77,0,0,0,1.19,26.45A54.39,54.39,0,0,0,396,284.62Zm-26.45-42.24q11.84,0,17-8.69t5.13-26.45V181.58h-.79q-3.16,4.35-9.68,5.33a56.1,56.1,0,0,0-14.4,4.54q-8.29,3.95-11.45,10.46t-3.16,17.17q0,10.66,4.73,17a15,15,0,0,0,12.64,6.32" transform="translate(0 -2.74)" fill="#d50e0e"/><path d="M530.21,71h66.32v210q0,22.1-6.91,36.71a59.44,59.44,0,0,1-19,23.3,77.79,77.79,0,0,1-28.23,12.43,155.51,155.51,0,0,1-35.13,3.75,188.74,188.74,0,0,1-32.18-2.57,75.74,75.74,0,0,1-26.06-9.27,48.64,48.64,0,0,1-17.76-18.36q-6.51-11.65-6.91-29.81h64q0,7.89,4.73,12.24t13,4.34A40,40,0,0,0,514,313a14.07,14.07,0,0,0,6.91-3.55,21,21,0,0,0,4.93-7.89c1.32-3.43,2-8.16,2-14.22V246.72H527q-6.7,18.55-20.13,25.27a62,62,0,0,1-28,6.71,64,64,0,0,1-21.71-3.95q-11.06-3.94-20.14-15.4t-14.8-32.17q-5.73-20.73-5.73-53.89,0-30.79,4.54-51.52t13-33.16q8.49-12.44,20.73-17.77a68.4,68.4,0,0,1,27.63-5.33,53.16,53.16,0,0,1,28,7.89q13,7.91,19,27.25h.79ZM487.57,172.1A216.51,216.51,0,0,0,489,199.54q1.38,10.47,3.95,16.39t6.31,7.89a18.77,18.77,0,0,0,8.88,2,17.9,17.9,0,0,0,8.49-2q3.75-2,6.32-7.89t3.75-16.39a254.21,254.21,0,0,0,1.18-27.44,249.63,249.63,0,0,0-1.18-27q-1.18-10.45-3.75-16.38t-6.32-8.1a16.71,16.71,0,0,0-8.49-2.17,17.49,17.49,0,0,0-8.88,2.17q-3.75,2.17-6.31,8.1T489,145.06a212.61,212.61,0,0,0-1.38,27" transform="translate(0 -2.74)" fill="#d50e0e"/><path d="M627.32,2.74h71.06v52.9H627.32Zm0,68.3h71.06V284.62H627.32Z" transform="translate(0 -2.74)" fill="#d50e0e"/><path d="M834.19,154.73A153.23,153.23,0,0,0,833,133.61a49.38,49.38,0,0,0-3.56-13.23q-4.35-9.07-15.79-9.08a16.85,16.85,0,0,0-10.07,3q-4.14,3-6.51,10.66t-3.36,20.52q-1,12.84-1,32.58t1,32.57q1,12.83,3.36,20.33t6.51,10.46a16.91,16.91,0,0,0,10.07,3q9.87,0,15.2-7.5t5.33-27.63V195.4h64q0,25.26-4.35,43t-14.61,29.21q-20.13,22.51-65.53,22.51a165.84,165.84,0,0,1-37.51-3.95,59.83,59.83,0,0,1-29-15.79q-12.06-11.85-18.75-33.17t-6.72-55.66q0-37.9,7.5-60.8t20.34-35.14a63.28,63.28,0,0,1,30.2-16.18,169.14,169.14,0,0,1,37.5-3.95q23.7,0,39.28,6.51t24.88,18.16a69.25,69.25,0,0,1,13,28,164.5,164.5,0,0,1,3.75,36.51Z" transform="translate(0 -2.74)" fill="#d50e0e"/><path d="M931.3,97.09V2.74H1000V97.09L991.71,202.9h-52.9Zm1.58,125.15h66.33v62.38H932.88Z" transform="translate(0 -2.74)" fill="#d50e0e"/></svg>