<svg xmlns="http://www.w3.org/2000/svg" xmlns:xlink="http://www.w3.org/1999/xlink" width="443.383" height="325" viewBox="0 0 443.383 325"><defs><style>.a{fill:#ffcbbb;}.b{fill:#f7a794;}.c{fill:#91351d;}.d{fill:#63c;}.e{fill:#b3b3b3;}.f{fill:#f2f2f2;}.g{fill:#746fef;}.h{fill:#f7958b;}.i{fill:#e86d5d;}.j{fill:#ff855a;}.k{fill:#fff;}.l{fill:#333;}.m{fill:#fcc8a4;}.n,.s{fill:#f27079;}.o{fill:#ffc0c2;}.p,.s{opacity:0.7;}.q{fill:url(#a);}.r{fill:#ed5d6b;}.t{fill:#d41f26;}</style><linearGradient id="a" x1="-51.184" y1="-3.518" x2="-51.184" y2="-2.518" gradientUnits="objectBoundingBox"><stop offset="0" stop-color="#fff" stop-opacity="0.102"/><stop offset="1" stop-color="#fff" stop-opacity="0.4"/></linearGradient></defs><g transform="translate(0 -2)"><g transform="translate(47.087 36.343)"><path class="a" d="M453.371,410.211s11.971,23.145,14.809,25.982c16.272,16.272,42.432-63.093,42.432-63.093L543.2,391.722S523.692,476.231,484.452,494.5c-39.2,18.312-84.952-61.187-84.952-61.187" transform="translate(-269.456 -242.904)"/><g transform="translate(238.806 82.042)"><path class="a" d="M644.8,319.343c3.591-12.636,12.548-46.6,14.986-47s.355,11.794,2.306,11.085c1.906-.709,6.34-19.2,8.868-18.932,3.414.355-2.128,19.065-2.128,19.065s1.818-3.591,4.7-2.439c2.039.842,1.552,6.119,1.552,6.119s2.128-4.035,4.256-3.148c2.084.887,1.6,7.138,1.6,7.138s1.906-2,3.9-1.241c1.951.709,3.458,11.439-7.183,49.437" transform="translate(-644.8 -264.494)"/><path class="b" d="M686.054,336.444l-.887-.222c0-.044.754-3.636-1.685-9.134a58.609,58.609,0,0,1-2.882-9.267l.887-.222a59.653,59.653,0,0,0,2.838,9.089C686.9,332.542,686.1,336.266,686.054,336.444Z" transform="translate(-664.727 -294.053)"/><path class="b" d="M696.942,310.9c-.177,1.951-.31,3.946-.31,5.9,0,.975,0,1.951.089,2.926a8.035,8.035,0,0,0,.621,2.749c.222.4.488.576.887.443a2.375,2.375,0,0,0,1.064-.709,10.961,10.961,0,0,0,1.6-2.35,47.665,47.665,0,0,0,2.306-5.365.452.452,0,0,1,.532-.266.393.393,0,0,1,.266.443c-.355,1.862-.665,3.813-.887,5.72-.089.975-.133,1.907-.133,2.882a6.008,6.008,0,0,0,.443,2.616c.222.355.355.443.754.355a2.166,2.166,0,0,0,1.02-.576,9.275,9.275,0,0,0,1.552-2.261,25.157,25.157,0,0,0,1.862-5.409h0a.355.355,0,0,1,.488-.266.4.4,0,0,1,.31.443c-.266,1.729-.488,3.5-.621,5.276a20.594,20.594,0,0,0,.089,5.232,1.981,1.981,0,0,0,.488,1.064.569.569,0,0,0,.443.177,1.261,1.261,0,0,0,.532-.177,5.491,5.491,0,0,0,1.6-2,27.909,27.909,0,0,0,2-4.922,25.324,25.324,0,0,1-1.774,5.055,6.023,6.023,0,0,1-1.641,2.217,1.959,1.959,0,0,1-.709.266.972.972,0,0,1-.754-.31,2.765,2.765,0,0,1-.665-1.286,20.161,20.161,0,0,1-.266-5.409c.089-1.774.266-3.547.488-5.365l.754.133a27.958,27.958,0,0,1-1.862,5.631,9.323,9.323,0,0,1-1.685,2.527,3.438,3.438,0,0,1-1.463.842,1.882,1.882,0,0,1-.975-.089,2.069,2.069,0,0,1-.709-.665,4.477,4.477,0,0,1-.488-1.552,8.6,8.6,0,0,1-.089-1.508c0-.975.089-2,.177-2.971.222-1.951.532-3.9.931-5.808l.8.222a31.536,31.536,0,0,1-2.439,5.454,9.546,9.546,0,0,1-1.774,2.439,2.9,2.9,0,0,1-1.374.842,1.191,1.191,0,0,1-.931-.133,1.378,1.378,0,0,1-.576-.665,7.928,7.928,0,0,1-.621-2.971c-.044-.975,0-2,.044-2.971C696.454,314.8,696.632,312.851,696.942,310.9Z" transform="translate(-673.443 -290.324)"/></g><g transform="translate(98.838 25.026)"><path class="c" d="M363.872,135.9c1.286,11.218,15.208,17.558,16.982,28.731,1.108,6.872-2.66,14.72,1.241,20.484,1.241,1.818,3.059,3.1,4.168,4.966,1.685,2.838,1.33,6.562-.133,9.533a25.21,25.21,0,0,1-6.385,7.493c-5.188,4.567-11,8.69-17.691,10.464s-14.41.8-19.465-3.9c-2.572-2.35-4.256-5.5-5.764-8.6-5.232-11-8.247-23.189-7.626-35.382.665-12.149,5.1-24.3,13.39-33.209" transform="translate(-329.119 -135.9)"/></g><path class="d" d="M249.707,305.334s-1.641,6.606-16.583,6.606a25.458,25.458,0,0,1-21.5-11.04s-34.052,3.148-55.246,54.714-5.941,135.5-5.941,135.5l135.675-.931s-3.591-23.322.532-81.184c.665-9.134,6.739-25.051,1.508-46.6C280.168,329.853,249.707,305.334,249.707,305.334Z" transform="translate(-127.865 -202.716)"/><g transform="translate(117.541 179.057)"><path class="e" d="M376.8,677.5h97.633v5.454H371.3A5.488,5.488,0,0,1,376.8,677.5Z" transform="translate(-371.3 -591.395)"/><path class="e" d="M699.983,574.859H562.8l26.248-84.287a10.283,10.283,0,0,1,9.887-7.271H722.95a4.083,4.083,0,0,1,3.9,5.276Z" transform="translate(-477.892 -483.3)"/><path class="f" d="M713.883,574.859H576.7l26.248-84.287a10.283,10.283,0,0,1,9.887-7.272H736.85a4.083,4.083,0,0,1,3.9,5.276Z" transform="translate(-485.629 -483.3)"/><ellipse class="e" cx="9.444" cy="6.917" rx="9.444" ry="6.917" transform="translate(167.745 42.946) rotate(-15.016)"/></g><path class="a" d="M175.362,444.3s4.789,55.024,12.459,64.025c4.478,5.276,62.207,15.385,62.207,15.385l5.853,39.151s-83.755,9.932-110.092-16.45c-19.731-19.775-28.288-93.465-28.288-93.465" transform="translate(-112.49 -282.535)"/><path class="d" d="M189.955,300.9s-36.4,3.591-54.536,20.484C108.2,346.79,106.2,386.961,106.2,386.961h64.734l.709-34.1" transform="translate(-106.2 -202.716)"/><path class="d" d="M381,310.9c21.593,2.084,38.308,11.351,47.176,23.81,13.789,19.332,23.411,49.216,23.411,49.216l-51.078,14.809" transform="translate(-259.158 -208.282)"/><path class="g" d="M252.165,447.576H251.5c.532-25.362,3.281-37.643,3.325-37.776l.665.133C255.4,410.066,252.653,422.3,252.165,447.576Z" transform="translate(-187.076 -263.332)"/><path class="g" d="M458.588,437.792l-.665-.044c2.084-21.46-13.346-44.427-13.523-44.649l.576-.4C445.109,392.922,460.672,416.111,458.588,437.792Z" transform="translate(-294.448 -253.813)"/><g transform="translate(121.265 239.269)"><path class="a" d="M379.7,619.1c9.045.222,56.886,2.749,56.664,5.143-.222,2.35-13.878,3.946-13.3,5.143.842,1.729,11.306,2.66,17.2,2.66,5.276,0,13.745.842,14.055,3.1.576,4.345-28.332,4.079-28.332,4.079s31.17-5.5,32.012-1.906c1.241,5.188-31.968,9.754-32.943,11.085,0,0,27.667-11.971,28.6-8.114s-23.544,15.119-31.525,15.74c6.429-1.729,25.007-14.5,25.716-10.907.665,3.547-15.917,11.218-18.622,11.838a162.075,162.075,0,0,1-43.939,3.281" transform="translate(-379.7 -619.1)"/></g><path class="h" d="M513.291,660.3c-3.68.576-7.449.975-11.173,1.33-1.862.133-3.724.31-5.587.4s-3.769.177-5.631.133l11.173-1.02C505.842,660.876,509.566,660.522,513.291,660.3Z" transform="translate(-320.33 -402.764)"/><path class="h" d="M505.5,672.3q-2.926.931-5.853,1.729c-1.951.532-3.946.975-5.941,1.419-2,.4-3.99.8-6.03,1.108a39.641,39.641,0,0,1-6.074.532c2.04-.177,4.035-.532,6.03-.887s3.99-.754,5.986-1.2c2-.4,3.946-.887,5.941-1.33Z" transform="translate(-315.154 -409.443)"/><path class="h" d="M499.172,684.5c-1.685.665-3.414,1.241-5.143,1.818s-3.458,1.064-5.188,1.6c-1.774.488-3.5.931-5.276,1.33a43.763,43.763,0,0,1-5.365.931c1.773-.4,3.547-.842,5.276-1.286s3.5-.931,5.232-1.419Z" transform="translate(-313.261 -416.234)"/><g transform="translate(23.316)"><g transform="translate(41.653)"><path class="c" d="M264.2,99.65c-8.424.443-13.922-6.961-10.375-13.257,1.729-3.059,4.389-5.764,7.759-6.651,9.666-2.572,15.031,12.991,6.473,17.381" transform="translate(-252.731 -79.457)"/></g><g transform="translate(0 9.891)"><path class="a" d="M330.4,228.792l-.488,29.219s-5.365,5.675-21.194,3.99c-15.031-1.6-18.223-7.4-18.223-7.4l4.656-43.1" transform="translate(-232.101 -162.845)"/><path class="a" d="M346.516,145.609c8.291,26.825,9.8,49.349-8.38,53.295-19.154,4.168-37.643-7.05-37.244-30.061C301.38,144.722,340.309,130.534,346.516,145.609Z" transform="translate(-237.882 -122.715)"/><path class="i" d="M338.033,263.228c-12.9,0-19.376-6.163-23.233-11.129l.532-.4c8.868,11.395,19.908,11.572,28.554,10.464l.089.665A40.11,40.11,0,0,1,338.033,263.228Z" transform="translate(-245.627 -185.221)"/><path class="j" d="M306.6,201.336c.044.089.044.177.089.222a.043.043,0,0,0,.044.044s.044-.044,0-.044c-.044-.089-.044-.177-.089-.222,0-.044,0-.089-.044,0Z" transform="translate(-241.062 -157.159)"/><path class="k" d="M290.594,282s9.222,17.248,24.563,19.331L307.044,316.5c-16.937-8.6-18.844-26.115-18.844-26.115Z" transform="translate(-230.821 -202.087)"/><path class="c" d="M243.568,125.723c8.469,1.33,20.085,1.862,31.3-3.237-4.345-8.6-7.937-22.214-25.007-17.514-17.336-9.089-43.407,2.306-50.1,19.509-1.6,4.079-2.527,8.513-5.276,11.927a23.333,23.333,0,0,1-8.158,5.986c-6.7,3.325-14.055,5.675-19.819,10.42-5.808,4.744-9.71,12.991-6.651,19.819.8,1.818,2.04,3.414,2.749,5.276,1.507,3.946.266,8.336.089,12.548a26.524,26.524,0,0,0,17.868,25.672c10.686,3.37,23.366-1.2,29.4-10.641,1.862-2.926,3.192-6.3,5.764-8.646,4.079-3.724,7.937-5.188,12.37-8.469,6.917-5.1,7.005-15.385,5.232-23.81C230.887,152.769,231.242,135.3,243.568,125.723Z" transform="translate(-158.787 -101.765)"/><g transform="translate(66.958 46.195)"><path class="a" d="M319.467,209.653a4.938,4.938,0,0,0-3.68-3.547c-4.434-1.153-6.651,4.389-5.808,8.557a11.672,11.672,0,0,0,3.591,6.518c2.616,2.527,5.808,2.838,7.272-.621" transform="translate(-309.803 -205.952)"/></g><path class="i" d="M379.444,210.174l-.044-.665c1.641-.089,6.03-.8,6.473-2.7.443-2.04-3.9-9.134-5.587-11.705l.576-.4c.665.975,6.252,9.533,5.675,12.237C385.918,209.775,379.71,210.174,379.444,210.174Z" transform="translate(-281.584 -153.494)"/><path class="k" d="M373.637,236,356.7,238.527s3.325,8.735,12.548,6.7C375.765,243.8,373.637,236,373.637,236Z" transform="translate(-268.949 -176.482)"/><path class="l" d="M393.972,188.417c.089.4.177.754.266,1.108a10.358,10.358,0,0,0,.31,1.108.716.716,0,0,0,1.375-.4c-.089-.355-.222-.709-.355-1.108a10.376,10.376,0,0,0-.4-1.064.551.551,0,0,0-.266-.355.628.628,0,0,0-.488-.044.59.59,0,0,0-.443.754Z" transform="translate(-289.682 -149.561)"/><path class="l" d="M384.517,177.055a.63.63,0,0,1-.266-.089.4.4,0,0,1-.089-.621,4.91,4.91,0,0,1,7.005-.931.443.443,0,0,1-.532.709,3.911,3.911,0,0,0-5.72.709A.466.466,0,0,1,384.517,177.055Z" transform="translate(-284.174 -142.145)"/><path class="l" d="M350.467,198.973c.044.4.133.754.177,1.153.089.4.133.754.222,1.108a.716.716,0,0,0,1.375-.4c-.089-.355-.177-.754-.266-1.108s-.222-.709-.31-1.108a.644.644,0,0,0-.754-.443c-.133.044-.31.133-.355.266a.6.6,0,0,0-.089.532Z" transform="translate(-265.464 -155.417)"/><path class="l" d="M336.113,187.413a.822.822,0,0,1-.31-.089.431.431,0,0,1-.044-.621c4.434-5.1,8.735-3.769,8.912-3.68a.449.449,0,1,1-.31.842h0c-.177-.044-3.946-1.2-7.937,3.414A.345.345,0,0,1,336.113,187.413Z" transform="translate(-257.229 -146.872)"/></g></g><path class="k" d="M362.49,291.4s2.217,12.326-13.39,15.208l7.316,14.144s9.488-7.538,10.73-20.218Z" transform="translate(-241.402 -197.428)"/></g><rect class="m" width="443.383" height="20.174" transform="translate(0 306.826)"/><g transform="translate(128.332 46.047)"><ellipse class="n" cx="8.291" cy="12.769" rx="8.291" ry="12.769" transform="matrix(0.969, -0.248, 0.248, 0.969, 0, 45.706)"/><path class="n" d="M330.892,177.542a30.616,30.616,0,0,0,11.883-2,.677.677,0,0,0,.4-.842.659.659,0,0,0-.842-.4,28.53,28.53,0,0,1-22.258-.665c-6.917-3.148-14.9-8.779-17.514-15.829-4.789-15.164-7.582-34.1-1.02-45.535,2.572-4.434,13.922-11.306,20.573-9.444a.661.661,0,0,0,.488-.8.641.641,0,0,0-.8-.488c-8.158-1.463-18.666,5.321-21.415,10.065-6.872,11.838-3.99,31.126.887,46.6,2.749,7.4,10.952,13.3,18.179,16.583A29.066,29.066,0,0,0,330.892,177.542Z" transform="translate(-293.266 -101.343)"/><path class="o" d="M297.285,218.62c1.374,5.365,4.833,9.134,7.715,8.38s4.079-5.675,2.7-11.04-4.833-9.134-7.715-8.38C297.108,208.289,295.911,213.255,297.285,218.62Z" transform="translate(-293.489 -160.423)"/><path class="l" d="M393.489,265.332l10.154-1.6a.543.543,0,0,0,.443-.621l-.576-3.68a.543.543,0,0,0-.621-.443l-10.153,1.6a.543.543,0,0,0-.443.621l.576,3.68A.5.5,0,0,0,393.489,265.332Z" transform="translate(-346.684 -189.089)"/></g><g transform="translate(242.065 221.604)"><g class="p"><path class="q" d="M593.015,542.831a3.633,3.633,0,0,1-2.04-1.108c-1.242-1.685.8-3.5,2.128-4.345,1.685-1.064,4.035-1.463,4.833-3.547.931-2.35-.665-4.966-2.616-6.207a26.11,26.11,0,0,0-5.365-2.306,10.431,10.431,0,0,1-5.321-3.9c-1.507-2.394-1.2-5.454-1.375-8.158-.754-10.552-11.528-15.74-20.617-15.962-4.523-.089-11.484,1.508-14.5,5.055a9.119,9.119,0,0,0-2.084,4.123,7.577,7.577,0,0,0,2,6.34c1.552,1.774,3.68,2.838,5.409,4.434,1.773,1.641.488,3.414.887,5.365.443,2.217,1.907,3.148,3.813,4.212,4.035,2.261,8.779,2.793,13.169,4.035a10.86,10.86,0,0,1,3.857,1.729c1.419,1.153,2.217,2.882,3.325,4.345a13.7,13.7,0,0,0,8.247,5.276" transform="translate(-545.95 -497.292)"/></g><g transform="translate(12.703 46.78)"><path class="n" d="M583.734,628.073h8.6v-4.079h-8.6a5.034,5.034,0,0,1-5.01-5.01v-7.094a5.034,5.034,0,0,1,5.01-5.01h8.6V602.8h-8.6a9.121,9.121,0,0,0-9.134,9.134v7.094A9.1,9.1,0,0,0,583.734,628.073Z" transform="translate(-574.6 -602.8)"/></g><path class="n" d="M602.527,631.488h29.707a2.526,2.526,0,0,0,2.527-2.527V589.5H600v39.461A2.526,2.526,0,0,0,602.527,631.488Z" transform="translate(-576.035 -548.617)"/><path class="r" d="M633.279,671s-.355,8.158-13.035,8.158H600.335C587.655,679.158,587.3,671,587.3,671Z" transform="translate(-568.966 -593.981)"/></g><g transform="translate(345.839 101.717)"><path class="o" d="M794.765,309.236a2.047,2.047,0,0,1-.31-.31,47.756,47.756,0,1,1,9.8,7.36l-14.277,8.025Z" transform="translate(-780 -226.9)"/><g transform="translate(22.79 18.888)"><path class="s" d="M877.558,287.405H870.42V271H843.107v16.405h-7.138a3.766,3.766,0,0,0-3.769,3.769v28.82a3.766,3.766,0,0,0,3.769,3.769h41.589a3.766,3.766,0,0,0,3.769-3.769v-28.82A3.766,3.766,0,0,0,877.558,287.405Z" transform="translate(-831.845 -270.335)"/><g transform="translate(30.283 17.679)"><path class="k" d="M918.012,344.856a.5.5,0,0,1-.355-.133l-17.78-16.937a.547.547,0,0,1-.177-.355.5.5,0,0,1,.133-.355l7.715-7.538,10.242-10.02a.41.41,0,0,1,.4-.133.548.548,0,0,1,.355.177,3.734,3.734,0,0,1,.8,2.306v30.194a3.652,3.652,0,0,1-1.064,2.616c0,.089-.133.177-.266.177Zm-17.026-17.469,16.982,16.183a2.61,2.61,0,0,0,.443-1.507V311.868a2.641,2.641,0,0,0-.266-1.2l-9.8,9.577Z" transform="translate(-899.7 -309.373)"/></g><g transform="translate(0.887 17.635)"><path class="k" d="M878.758,345.82H836.282a3.83,3.83,0,0,1-2.749-1.2.5.5,0,0,1-.133-.355.4.4,0,0,1,.177-.355l17.735-16.849a.539.539,0,0,1,.709,0l5.5,5.276,13.213-12.9,10.242-10.02a.409.409,0,0,1,.4-.133.547.547,0,0,1,.355.177,3.734,3.734,0,0,1,.8,2.306v30.194a3.652,3.652,0,0,1-1.064,2.616A3.613,3.613,0,0,1,878.758,345.82Zm-44.117-1.552a2.657,2.657,0,0,0,1.6.532h42.476a2.723,2.723,0,0,0,2.749-2.749V311.812a2.64,2.64,0,0,0-.266-1.2l-9.8,9.577L857.83,333.45a.539.539,0,0,1-.709,0l-5.5-5.276Z" transform="translate(-833.4 -309.273)"/></g><g transform="translate(38.042 16.361)"><path class="k" d="M917.732,318.726a.4.4,0,0,1-.222-.044.545.545,0,0,1-.31-.488V306.932a.539.539,0,0,1,.532-.532H925.4a3.738,3.738,0,0,1,2.971,1.463.482.482,0,0,1-.044.665l-10.242,10.021A.4.4,0,0,1,917.732,318.726Zm.488-11.262V317l9.045-8.823a2.775,2.775,0,0,0-1.862-.709Z" transform="translate(-917.2 -306.4)"/></g><g transform="translate(0 17.868)"><path class="k" d="M832.774,345.093h0a.4.4,0,0,1-.355-.177,3.8,3.8,0,0,1-1.02-2.616V312.106a3.827,3.827,0,0,1,.621-2.084.452.452,0,0,1,.355-.222.619.619,0,0,1,.4.133l11.4,10.907,2.882,2.793,3.813,3.68a.368.368,0,0,1,.133.355.4.4,0,0,1-.177.355l-17.735,16.849A.333.333,0,0,1,832.774,345.093Zm-.222-33.963a2.386,2.386,0,0,0-.177.975V342.3a2.61,2.61,0,0,0,.443,1.508l16.937-16.095-3.458-3.325-2.882-2.793Z" transform="translate(-831.4 -309.8)"/></g><g transform="translate(0.499 16.361)"><path class="k" d="M843.377,318.815a.5.5,0,0,1-.355-.133l-10.331-9.932a.538.538,0,0,1-.089-.665,3.739,3.739,0,0,1,3.148-1.685h7.671a.458.458,0,0,1,.488.488l-.089,11.351a.545.545,0,0,1-.31.488C843.51,318.815,843.466,318.815,843.377,318.815Zm-9.621-10.464,9.134,8.779.044-9.666h-7.183A2.623,2.623,0,0,0,833.756,308.351Z" transform="translate(-832.526 -306.4)"/></g><g transform="translate(10.952)"><path class="k" d="M870.155,311.4a.5.5,0,0,1-.355-.133l-9.71-9.311-3.857-3.769a.5.5,0,0,1-.133-.355V269.988a.5.5,0,0,1,.532-.488h27.135a.532.532,0,0,1,.532.488v27.667a.5.5,0,0,1-.133.355L870.6,311.267A1.446,1.446,0,0,1,870.155,311.4Zm-13.08-13.789,3.724,3.636,9.355,8.956,13.08-12.725V270.52H857.12v27.091Z" transform="translate(-856.1 -269.5)"/></g><g transform="translate(16.538 6.163)"><path class="k" d="M886.435,284.42h-17.2a.539.539,0,0,1-.532-.532.478.478,0,0,1,.532-.488h17.2a.532.532,0,0,1,.532.488A.512.512,0,0,1,886.435,284.42Z" transform="translate(-868.7 -283.4)"/></g><g transform="translate(16.583 12.415)"><path class="k" d="M878.377,298.52h-9.045a.532.532,0,0,1-.532-.488.539.539,0,0,1,.532-.532h9.045a.539.539,0,0,1,.532.532A.613.613,0,0,1,878.377,298.52Z" transform="translate(-868.8 -297.5)"/></g><g transform="translate(16.538 18.666)"><path class="k" d="M882.977,312.575H869.232a.532.532,0,0,1-.532-.488.5.5,0,0,1,.532-.488h13.745a.49.49,0,1,1,0,.975Z" transform="translate(-868.7 -311.6)"/></g><g transform="translate(16.583 24.829)"><path class="k" d="M878.377,326.52h-9.045a.532.532,0,0,1-.532-.488.539.539,0,0,1,.532-.532h9.045a.539.539,0,0,1,.532.532A.5.5,0,0,1,878.377,326.52Z" transform="translate(-868.8 -325.5)"/></g></g></g><g transform="translate(201.739 2)"><path class="k" d="M468.24,65.686c-.089-.089-.177-.133-.222-.222a36.066,36.066,0,1,1,7.316,5.454L464.649,76.9Z" transform="translate(-456.225 -3.169)"/><path class="o" d="M463.424,76.666a.934.934,0,0,1-.576-.222.994.994,0,0,1-.31-.975l3.414-10.73a36.478,36.478,0,1,1,8.114,6.074l-10.2,5.72A.855.855,0,0,1,463.424,76.666Zm28.244-72.8A34.8,34.8,0,0,0,467.415,63.63l.222.222a.824.824,0,0,1,.222.931l-2.882,9.045L473.622,69a.805.805,0,0,1,.887,0A34.822,34.822,0,1,0,491.668,3.862Z" transform="translate(-455 -2)"/><g transform="translate(18.267 20.795)"><path class="t" d="M496.2,48.9h13.479a12,12,0,0,1,4.212.665,8.021,8.021,0,0,1,2.838,1.818,7.923,7.923,0,0,1,1.6,2.793,12.613,12.613,0,0,1,.488,3.5,9.613,9.613,0,0,1-1.33,5.365,6.1,6.1,0,0,1-4.3,2.527v.089c2.084.177,3.5.931,4.256,2.173a10.284,10.284,0,0,1,1.153,5.232v4.168a12.9,12.9,0,0,0,.044,1.33c.044.4.089.8.133,1.153a2.5,2.5,0,0,0,.222.8,3.706,3.706,0,0,1,.355.532,1.219,1.219,0,0,0,.621.488v.443h-9.178a5.019,5.019,0,0,1-.488-1.507c-.089-.576-.177-1.2-.222-1.774s-.089-1.153-.089-1.685V73.463a16.569,16.569,0,0,0-.133-2.306,3.771,3.771,0,0,0-.488-1.463,1.817,1.817,0,0,0-.887-.754,3.783,3.783,0,0,0-1.33-.222H504.89V81.976h-8.646L496.2,48.9Zm8.646,14.011h1.729a3.3,3.3,0,0,0,2.749-1.108,4.265,4.265,0,0,0,.887-2.838,4.4,4.4,0,0,0-.842-2.971,3.833,3.833,0,0,0-2.793-.887H504.89l-.044,7.8Z" transform="translate(-496.2 -48.9)"/><path class="t" d="M561,59.985V48.9h8.07V59.985L568.094,72.4h-6.207Zm.177,14.72h7.8v7.316h-7.8Z" transform="translate(-532.269 -48.9)"/></g></g></g></svg>