<svg id="圖層_1" data-name="圖層 1" xmlns="http://www.w3.org/2000/svg" viewBox="0 0 50 50"><title>工作區域 1</title><path d="M22.29,23.38h6.4v-9.5h-6v-6h-16v32h15.6Zm-3.6,14.25h-10v-4.5h10Zm0-7h-10v-4.5h10Zm0-7h-10v-4.5h10Zm-10-7v-4.5h10v4.5Zm8.5,11h-7v1.5h7Zm6.5-19v4.29H28Zm-6.5,26h-7v1.5h7Zm0-14h-7v1.5h7Zm-7-5.5h7v-1.5h-7Zm13.1,9.25V41.64h20V24.38ZM26,29a.34.34,0,0,1,.19-.3l5.26-2.2a.3.3,0,0,1,.4.18l.22.59a.31.31,0,0,1-.17.41l-4.39,1.84,4.39,1.84a.32.32,0,0,1,.17.42l-.22.59a.31.31,0,0,1-.4.18l-5.26-2.2a.34.34,0,0,1-.19-.3Zm6.31,9.89a.27.27,0,0,1-.27.27h-6a.28.28,0,0,1-.28-.27v-.54a.29.29,0,0,1,.28-.28h6a.28.28,0,0,1,.27.28Zm0-2.72a.27.27,0,0,1-.27.27h-6a.28.28,0,0,1-.28-.27v-.54a.29.29,0,0,1,.28-.28h6a.28.28,0,0,1,.27.28Zm8.26,1.62a.32.32,0,0,1-.19.29l-5.26,2.2a.3.3,0,0,1-.4-.17l-.23-.6a.33.33,0,0,1,.17-.41l4.4-1.84-4.4-1.84A.34.34,0,0,1,34.5,35l.23-.59a.31.31,0,0,1,.4-.18l5.26,2.21a.31.31,0,0,1,.19.29Zm.21-9.35a.27.27,0,0,1-.27.27H38.91l-1.35,1.63h3a.27.27,0,0,1,.27.27v.55a.27.27,0,0,1-.27.27H36.67l-1.49,1.8a.27.27,0,0,1-.38.05L34.37,33a.28.28,0,0,1,0-.39l.94-1.13h-.72a.28.28,0,0,1-.28-.27v-.55a.28.28,0,0,1,.28-.27h1.61l1.35-1.63h-3a.28.28,0,0,1-.28-.27v-.55a.28.28,0,0,1,.28-.27h3.85l1.48-1.8a.28.28,0,0,1,.39-.05l.43.33a.27.27,0,0,1,.05.38l-.94,1.14h.72a.27.27,0,0,1,.27.27Z" fill="#fff"/><path d="M29.69,23.38V13.17L29.55,13h0l-6-6h0l-.15-.15H5.69v34h16.6v1.76h22V23.38Zm-6-14.79L28,12.88h-4.3Zm-1.4,31.29H6.69v-32h16v6h6v9.5h-6.4Zm21,1.76h-20V24.38h20Z" fill="gray"/><path d="M18.69,30.63h-10v-4.5h10Zm-8.5-1.5h7v-1.5h-7Zm8.5,8.5h-10v-4.5h10Zm-8.5-1.5h7v-1.5h-7Zm8.5-19.5h-10v-4.5h10Zm-8.5-1.5h7v-1.5h-7Z" fill="#d50e0e"/><path d="M18.69,23.63h-10v-4.5h10Zm-8.5-1.5h7v-1.5h-7Z" fill="#555"/><path d="M34.5,39.51l.23.6a.3.3,0,0,0,.4.17l5.26-2.2a.32.32,0,0,0,.19-.29V36.73a.31.31,0,0,0-.19-.29l-5.26-2.21a.31.31,0,0,0-.4.18L34.5,35a.34.34,0,0,0,.17.42l4.4,1.84-4.4,1.84A.33.33,0,0,0,34.5,39.51Zm4.41-10.8-1.35,1.63h3a.27.27,0,0,1,.27.27v.55a.27.27,0,0,1-.27.27H36.67l-1.49,1.8a.27.27,0,0,1-.38.05L34.37,33a.28.28,0,0,1,0-.39l.94-1.13h-.72a.28.28,0,0,1-.28-.27v-.55a.28.28,0,0,1,.28-.27h1.61l1.35-1.63h-3a.28.28,0,0,1-.28-.27v-.55a.28.28,0,0,1,.28-.27h3.85l1.48-1.8a.28.28,0,0,1,.39-.05l.43.33a.27.27,0,0,1,.05.38l-.94,1.14h.72a.27.27,0,0,1,.27.27v.55a.27.27,0,0,1-.27.27ZM26.2,30.35l5.26,2.2a.31.31,0,0,0,.4-.18l.22-.59a.32.32,0,0,0-.17-.42l-4.39-1.84,4.39-1.84a.31.31,0,0,0,.17-.41l-.22-.59a.3.3,0,0,0-.4-.18L26.2,28.7A.34.34,0,0,0,26,29v1.05A.34.34,0,0,0,26.2,30.35Zm5.85,7.72h-6a.29.29,0,0,0-.28.28v.54a.28.28,0,0,0,.28.27h6a.27.27,0,0,0,.27-.27v-.54A.28.28,0,0,0,32.05,38.07Zm0-2.72h-6a.29.29,0,0,0-.28.28v.54a.28.28,0,0,0,.28.27h6a.27.27,0,0,0,.27-.27v-.54A.28.28,0,0,0,32.05,35.35Z" fill="#333"/></svg>