<svg id="圖層_1" data-name="圖層 1" xmlns="http://www.w3.org/2000/svg" viewBox="0 0 50 50"><title>工作區域 1</title><path d="M35.13,14.38h-10V9.88h10Zm-8.5-1.5h7v-1.5h-7Zm-9.77,7.77h-10v-4.5h10Zm-8.5-1.5h7v-1.5h-7Z" fill="#333"/><path d="M35.13,35.38h-10v-4.5h10Zm-8.5-1.5h7v-1.5h-7Zm-9.77,7.77h-10v-4.5h10Zm-8.5-1.5h7v-1.5h-7Z" fill="#b3b3b3"/><path d="M35.13,28.38h-10v-4.5h10Zm-8.5-1.5h7v-1.5h-7Zm-9.77,7.77h-10v-4.5h10Zm-8.5-1.5h7v-1.5h-7Z" fill="gray"/><path d="M35.13,21.38h-10v-4.5h10Zm-8.5-1.5h7v-1.5h-7Zm-9.77,7.77h-10v-4.5h10Zm-8.5-1.5h7v-1.5h-7Z" fill="#555"/><path d="M22.13,11.9H4.86v32h22V38.63H22.13ZM16.86,41.65h-10v-4.5h10Zm0-7h-10v-4.5h10Zm0-7h-10v-4.5h10Zm0-7h-10v-4.5h10Zm-1.5,18h-7v1.5h7Zm0-7h-7v1.5h7Zm0-7h-7v1.5h7Zm0-7h-7v1.5h7Zm23.77-6v-6h-16v32h22v-26Zm-4,23.75h-10v-4.5h10Zm0-7h-10v-4.5h10Zm0-7h-10v-4.5h10Zm0-7h-10V9.88h10Zm-1.5,4h-7v1.5h7Zm0,14h-7v1.5h7Zm6.5-26.05v4.3h4.29Zm-6.5,19h-7v1.5h7Zm0-14h-7v1.5h7Z" fill="#fff"/><path d="M46,10.77h0l-6-6h0l-.14-.14H22.13V10.9H3.86v34h24V38.63H46.13V10.92ZM40.13,6.33l4.29,4.3H40.13ZM26.86,43.9h-22v-32H22.13V38.63h4.73Zm18.27-6.27h-22v-32h16v6h6Z" fill="gray"/></svg>