<?xml version="1.0" encoding="utf-8"?>
<!-- Generator: Adobe Illustrator 24.0.1, SVG Export Plug-In . SVG Version: 6.00 Build 0)  -->
<svg version="1.1" id="圖層_1" xmlns="http://www.w3.org/2000/svg" xmlns:xlink="http://www.w3.org/1999/xlink" x="0px" y="0px"
	 viewBox="0 0 448 512" style="enable-background:new 0 0 448 512;" xml:space="preserve">
<style type="text/css">
	.st0{fill:#6BB73E;}
</style>
<path class="st0" d="M272.1,204.2v71.1c0,1.8-1.4,3.2-3.2,3.2h-11.4c-1.1,0-2.1-0.6-2.6-1.3l-32.6-44v42.2c0,1.8-1.4,3.2-3.2,3.2
	h-11.4c-1.8,0-3.2-1.4-3.2-3.2v-71.1c0-1.8,1.4-3.2,3.2-3.2H219c1,0,2.1,0.5,2.6,1.4l32.6,44v-42.2c0-1.8,1.4-3.2,3.2-3.2h11.4
	C270.6,201,272.1,202.5,272.1,204.2L272.1,204.2z M190.1,201h-11.4c-1.8,0-3.2,1.4-3.2,3.2v71.1c0,1.8,1.4,3.2,3.2,3.2h11.4
	c1.8,0,3.2-1.4,3.2-3.2v-71.1C193.3,202.5,191.9,201,190.1,201L190.1,201z M162.6,260.6h-31.1v-56.4c0-1.8-1.4-3.2-3.2-3.2h-11.4
	c-1.8,0-3.2,1.4-3.2,3.2v71.1c0,0.9,0.3,1.6,0.9,2.2c0.6,0.5,1.3,0.9,2.2,0.9h45.7c1.8,0,3.2-1.4,3.2-3.2v-11.4
	C165.7,262.1,164.3,260.6,162.6,260.6L162.6,260.6z M332.1,201h-45.7c-1.7,0-3.2,1.4-3.2,3.2v71.1c0,1.7,1.4,3.2,3.2,3.2h45.7
	c1.8,0,3.2-1.4,3.2-3.2v-11.4c0-1.8-1.4-3.2-3.2-3.2H301v-12h31.1c1.8,0,3.2-1.4,3.2-3.2V234c0-1.8-1.4-3.2-3.2-3.2H301v-12h31.1
	c1.8,0,3.2-1.4,3.2-3.2v-11.4C335.2,202.5,333.8,201,332.1,201L332.1,201z M448,113.7V399c-0.1,44.8-36.8,81.1-81.7,81H81
	c-44.8-0.1-81.1-36.9-81-81.7V113c0.1-44.8,36.9-81.1,81.7-81H367C411.8,32.1,448.1,68.8,448,113.7z M386.4,236.3
	c0-73-73.2-132.4-163.1-132.4S60.2,163.3,60.2,236.3c0,65.4,58,120.2,136.4,130.6c19.1,4.1,16.9,11.1,12.6,36.8
	c-0.7,4.1-3.3,16.1,14.1,8.8c17.4-7.3,93.9-55.3,128.2-94.7C375.1,291.8,386.4,265.5,386.4,236.3z"/>
</svg>
