<svg id="圖層_1" data-name="圖層 1" xmlns="http://www.w3.org/2000/svg" viewBox="0 0 210 210"><title>工作區域 1</title><path d="M138.33,147.75v23.92H27.22V60.56H44.9a4.18,4.18,0,0,0,3-1.29A68,68,0,0,1,65.62,46.19a4.17,4.17,0,0,0-1.93-7.86h-42A16.67,16.67,0,0,0,5,55V177.22a16.67,16.67,0,0,0,16.67,16.67H143.89a16.67,16.67,0,0,0,16.67-16.67V146.39a4.17,4.17,0,0,0-5.56-3.93,25,25,0,0,1-11.87,1.18,4.17,4.17,0,0,0-4.8,4.11Z" fill="gray"/><path d="M202.39,77.73l-50,47.21a8.34,8.34,0,0,1-14.06-6.06v-25c-50.2.33-71.37,12.19-57.21,59.49a5.56,5.56,0,0,1-8.68,6c-13.53-10.28-25.77-29.93-25.77-49.78,0-50,40.83-59.89,91.66-60.18v-25a8.34,8.34,0,0,1,14.06-6.06l50,47.22A8.34,8.34,0,0,1,202.39,77.73Z" fill="#6bb73e"/></svg>