<?xml version="1.0" encoding="utf-8"?>
<!-- Generator: Adobe Illustrator 24.0.1, SVG Export Plug-In . SVG Version: 6.00 Build 0)  -->
<svg version="1.1" id="圖層_1" xmlns="http://www.w3.org/2000/svg" xmlns:xlink="http://www.w3.org/1999/xlink" x="0px" y="0px"
	 viewBox="0 0 212 155" style="enable-background:new 0 0 212 155;" xml:space="preserve">
<style type="text/css">
	.st0{fill:#FF9999;}
	.st1{fill:#FCDBDE;}
	.st2{fill:#124094;}
	.st3{fill:#F27078;}
	.st4{fill:#FFBFC2;}
	.st5{fill:#FCBFA3;}
	.st6{fill:#FF8C26;}
	.st7{fill:#DE5E17;}
	.st8{fill:#FFD9C4;}
	.st9{fill:#FFB547;}
	.st10{fill:#ED851C;}
	.st11{fill:#2B5999;}
	.st12{fill:#2936C7;}
	.st13{fill:#3366CC;}
	.st14{fill:#1C2EA8;}
	.st15{fill:#002670;}
	.st16{fill:#F7A694;}
	.st17{fill:#DE7561;}
	.st18{fill:#8C4238;}
	.st19{fill:#FFFFFF;}
	.st20{fill:#91A8D9;}
	.st21{fill:#B2B2B2;}
	.st22{fill:#F2F2F2;}
	.st23{fill:#E3690D;}
	.st24{clip-path:url(#SVGID_2_);}
	.st25{fill:#ED5C6B;}
	.st26{fill:#FFE0CC;}
	.st27{fill:#FFCCBA;}
	.st28{fill:#FF8559;}
	.st29{fill:#333333;}
	.st30{fill:#573366;}
	.st31{fill:#6633CC;}
	.st32{fill:#121F3B;}
	.st33{fill:#99CCFF;}
	.st34{fill:#4545D4;}
</style>
<g>
	<g>
		<path class="st0" d="M159.2,99l8.5-55.6c0.2-1.4,1.4-2.4,2.7-2.4h37.4l-9.5,61.4c-0.6,4.2-4.1,7.1-8.4,7.1h-56.2
			c-1.6,0-2.8-1.3-2.8-2.8c0-1.6,1.3-2.8,2.8-2.8h19.7C156.4,104,158.8,101.9,159.2,99"/>
		<path class="st1" d="M196.9,99l8.5-55.8c0.2-1.3,1.2-2.1,2.5-2.1h0.1c1.8,0,3.3,1.7,3,3.5l-9,58c-0.6,4.2-4.1,7.1-8.4,7.1h-40.8
			c-1.6,0-2.8-1.3-2.8-2.8c0-1.6,1.3-2.8,2.8-2.8h38.2C194.1,104,196.5,101.9,196.9,99"/>
	</g>
	<rect x="169.7" y="109.6" class="st2" width="0.5" height="34"/>
	<g>
		<path class="st3" d="M188.2,146.4c0-1.8-1.5-3.3-3.3-3.3H155c-1.8,0-3.3,1.5-3.3,3.3h1.1c0-0.6,0.3-1.2,0.7-1.6
			c0.4-0.4,1-0.7,1.6-0.7h29.9c0.6,0,1.2,0.3,1.6,0.7c0.4,0.4,0.7,1,0.7,1.6H188.2z"/>
		<path class="st2" d="M173.3,146.4c0-1.7-1.4-3.1-3.1-3.1v0.5c0.7,0,1.3,0.3,1.8,0.7c0.5,0.5,0.7,1.1,0.7,1.8H173.3z"/>
		<path class="st1" d="M184.9,149.2c0,1.6,1.3,2.8,2.8,2.8s2.8-1.3,2.8-2.8c0-1.6-1.3-2.8-2.8-2.8S184.9,147.7,184.9,149.2"/>
		<path class="st4" d="M186.7,149.2c0,0.6,0.5,1,1,1c0.6,0,1-0.5,1-1s-0.5-1-1-1C187.1,148.2,186.7,148.7,186.7,149.2"/>
		<path class="st1" d="M170.2,149.2c0,1.6,1.3,2.8,2.8,2.8s2.8-1.3,2.8-2.8c0-1.6-1.3-2.8-2.8-2.8S170.2,147.7,170.2,149.2"/>
		<path class="st4" d="M172,149.2c0,0.6,0.5,1,1,1c0.6,0,1-0.5,1-1s-0.5-1-1-1C172.5,148.2,172,148.7,172,149.2"/>
		<path class="st1" d="M149.4,149.2c0,1.6,1.3,2.8,2.8,2.8c1.6,0,2.8-1.3,2.8-2.8c0-1.6-1.3-2.8-2.8-2.8
			C150.7,146.4,149.4,147.7,149.4,149.2"/>
		<path class="st4" d="M151.2,149.2c0,0.6,0.5,1,1,1c0.6,0,1-0.5,1-1s-0.5-1-1-1C151.7,148.2,151.2,148.7,151.2,149.2"/>
		<path class="st0" d="M52.8,99l-8.5-55.6c-0.2-1.4-1.4-2.4-2.7-2.4H4.2l9.5,61.4c0.6,4.2,4.1,7.1,8.4,7.1h56.2
			c1.6,0,2.8-1.3,2.8-2.8c0-1.6-1.3-2.8-2.8-2.8H58.6C55.6,104,53.2,101.9,52.8,99"/>
		<path class="st1" d="M15.1,99L6.6,43.2c-0.2-1.3-1.2-2.1-2.5-2.1H4c-1.8,0-3.3,1.7-3,3.5l9,58c0.6,4.2,4.1,7.1,8.4,7.1h40.8
			c1.6,0,2.8-1.3,2.8-2.8c0-1.6-1.3-2.8-2.8-2.8H20.9C18,104,15.6,101.9,15.1,99"/>
	</g>
	<polyline class="st3" points="41.5,109.6 41.5,143.6 42.6,143.6 42.6,109.6 	"/>
	<g>
		<path class="st3" d="M24.9,146.4c0-0.6,0.3-1.2,0.7-1.6c0.4-0.4,1-0.7,1.6-0.7H57c0.6,0,1.2,0.3,1.6,0.7s0.7,1,0.7,1.6h1.1
			c0-1.8-1.5-3.3-3.3-3.3H27.1c-1.8,0-3.3,1.5-3.3,3.3H24.9z"/>
		<path class="st3" d="M39.6,146.4c0-0.6,0.3-1.2,0.7-1.6s1-0.7,1.6-0.7v-1.1c-1.8,0-3.3,1.5-3.3,3.3H39.6z"/>
		<path class="st1" d="M27.2,149.2c0,1.6-1.3,2.8-2.8,2.8c-1.6,0-2.8-1.3-2.8-2.8c0-1.6,1.3-2.8,2.8-2.8
			C25.9,146.4,27.2,147.7,27.2,149.2"/>
		<path class="st4" d="M25.4,149.2c0,0.6-0.5,1-1,1c-0.6,0-1-0.5-1-1s0.5-1,1-1C24.9,148.2,25.4,148.7,25.4,149.2"/>
		<path class="st1" d="M41.8,149.2c0,1.6-1.3,2.8-2.8,2.8c-1.6,0-2.8-1.3-2.8-2.8c0-1.6,1.3-2.8,2.8-2.8
			C40.6,146.4,41.8,147.7,41.8,149.2"/>
		<path class="st4" d="M40.1,149.2c0,0.6-0.5,1-1,1c-0.6,0-1-0.5-1-1s0.5-1,1-1C39.6,148.2,40.1,148.7,40.1,149.2"/>
		<path class="st1" d="M62.6,149.2c0,1.6-1.3,2.8-2.8,2.8c-1.6,0-2.8-1.3-2.8-2.8c0-1.6,1.3-2.8,2.8-2.8
			C61.4,146.4,62.6,147.7,62.6,149.2"/>
		<path class="st4" d="M60.8,149.2c0,0.6-0.5,1-1,1c-0.6,0-1-0.5-1-1s0.5-1,1-1C60.4,148.2,60.8,148.7,60.8,149.2"/>
		<path class="st5" d="M71.4,129.5l1.3,15.7l-0.1,5.2l20.2-0.1c0.5,0,0.9-0.4,0.9-0.9c0-0.4-0.2-0.7-0.6-0.8l-8.7-4l-0.5-16.4"/>
		<path class="st6" d="M94.5,150c-0.2-0.6-0.6-1.4-1-1.5l-9.2-4c-5.1,2.1-11.7,0.5-11.7,0.5l-1.2,7c0,0.2,0.2,0.4,0.4,0.4h22.5
			C94.8,152.3,94.5,150,94.5,150"/>
		<path class="st7" d="M86.2,144.8c-0.5,0.7-1,1.4-1.3,2.2l0.4,0.2c0.3-0.8,0.8-1.5,1.3-2.1L86.2,144.8z"/>
		<path class="st7" d="M87.3,145.5c-0.5,0.8-0.8,1.2-1.1,1.9l0.4,0.2c0.3-0.7,0.5-1.1,1.1-1.8L87.3,145.5z"/>
		<path class="st7" d="M88.3,146c-0.4,0.5-0.7,1.2-1,1.7l0.4,0.2c0.3-0.5,0.6-1.2,1-1.7L88.3,146z"/>
	</g>
	
		<rect x="71.6" y="150.6" transform="matrix(1 -4.923342e-03 4.923342e-03 1 -0.7413 0.4109)" class="st7" width="23" height="0.4"/>
	<g>
		<path class="st7" d="M72.2,147.6c0,0,0.1,0,0.2,0c0.5,0,1.8,0.2,3,0.6c0.6,0.2,1.2,0.5,1.6,1c0.4,0.4,0.8,0.9,0.8,1.6l0.4-0.1
			c-0.1-0.9-0.6-1.5-1.2-2c-0.9-0.7-2.1-1.1-3.1-1.3c-1-0.2-1.8-0.2-1.8-0.2L72.2,147.6z"/>
		<path class="st7" d="M91.5,147.5c0,0-0.4,0.5-0.8,1.2c-0.4,0.7-0.9,1.4-1,2l0.4,0.1c0.1-0.4,0.6-1.2,1-1.9
			c0.2-0.3,0.4-0.6,0.5-0.8c0.1-0.2,0.2-0.3,0.2-0.3L91.5,147.5z"/>
		<path class="st8" d="M61.8,129.5l0.3,15.7l-0.1,5.2l20.2-0.1c0.5,0,0.9-0.4,0.9-0.9c0-0.4-0.2-0.7-0.6-0.8l-8.7-4l0.5-16.4"/>
		<path class="st9" d="M83.9,150c-0.2-0.6-0.6-1.4-1-1.5l-9.2-4C68.6,146.5,62,145,62,145l-1.2,7c0,0.2,0.2,0.4,0.4,0.4h22.5
			C84.2,152.3,83.9,150,83.9,150"/>
		<path class="st10" d="M75.6,144.8c-0.5,0.7-1,1.4-1.3,2.2l0.4,0.2c0.3-0.8,0.8-1.5,1.3-2.1L75.6,144.8z"/>
		<path class="st10" d="M76.7,145.5c-0.5,0.8-0.8,1.2-1.1,1.9l0.4,0.2c0.3-0.7,0.5-1.1,1.1-1.8L76.7,145.5z"/>
		<path class="st10" d="M77.7,146c-0.4,0.5-0.7,1.2-1,1.7l0.4,0.2c0.3-0.5,0.6-1.2,1-1.7L77.7,146z"/>
	</g>
	<polygon class="st10" points="61,150.6 61,151 84,150.9 84,150.5 	"/>
	<g>
		<path class="st10" d="M61.6,147.6c0,0,0.1,0,0.2,0c0.5,0,1.8,0.2,3,0.6c0.6,0.2,1.2,0.5,1.6,1c0.4,0.4,0.8,0.9,0.8,1.6l0.4-0.1
			c-0.1-0.9-0.6-1.5-1.2-2c-0.9-0.7-2.1-1.1-3.1-1.3c-1-0.2-1.8-0.2-1.8-0.2L61.6,147.6z"/>
		<path class="st10" d="M80.9,147.5c0,0-0.4,0.5-0.8,1.2c-0.4,0.7-0.9,1.4-1,2l0.4,0.1c0.1-0.4,0.6-1.2,1-1.9
			c0.2-0.3,0.4-0.6,0.5-0.8c0.1-0.2,0.2-0.3,0.2-0.3L80.9,147.5z"/>
		<path class="st11" d="M30.4,80.1c0,0-3.6,13.9,1.4,20.8c2.2,3,5.9,3.1,9.5,3.1h21.3c1.8,0,3.3,1.4,3.4,3.2l2.9,33.7h17.3
			c0,0-1.7-29-2.2-34.8c-0.4-4.7-1.2-11-3-15c-2.4-5.5-7-8.3-11.7-8.3h-8c-0.4,0-0.7-0.3-0.7-0.7v-1.7"/>
	</g>
	<rect x="69.2" y="137" class="st12" width="16.9" height="0.4"/>
	<g>
		<path class="st13" d="M20.2,80.1c0,0-3.6,13.9,1.4,20.8c2.2,3,5.9,3.1,9.5,3.1h21.3c1.8,0,3.3,1.4,3.4,3.2l2.9,33.7H76
			c0,0-1.9-29-2.2-34.8c-0.3-5.8-0.8-11.2-3-15c-3.5-6-9.6-8.2-16.4-8.2H41.7v-3.4"/>
		<path class="st14" d="M23.1,81.1c0,0-0.7,4-0.7,8.2c0,1.7,0.1,3.3,0.4,4.9c0.3,1.5,0.8,2.9,1.6,3.8c1,1.2,2.4,1.8,3.8,2.1
			c1.5,0.3,3,0.3,4.3,0.3h23.2c1.6,0,3,1.2,3.1,2.9l3,37.6l0.4,0l-3-37.6c-0.1-1.8-1.7-3.2-3.5-3.2H32.6c-1.3,0-2.8,0-4.2-0.3
			c-1.4-0.3-2.7-0.9-3.6-1.9c-0.7-0.9-1.2-2.1-1.5-3.6c-0.3-1.5-0.4-3.1-0.4-4.8c0-2.1,0.2-4.1,0.4-5.6c0.1-0.8,0.2-1.4,0.2-1.8
			c0.1-0.4,0.1-0.7,0.1-0.7L23.1,81.1z"/>
	</g>
	<rect x="58.4" y="137" class="st14" width="17.4" height="0.4"/>
	<g>
		<path class="st14" d="M31.3,81.9c-0.7,1.6-2.4,2.5-4.1,3c-1.7,0.5-3.4,0.5-4.1,0.5c-0.2,0-0.3,0-0.3,0l0,0.4c0,0,0.1,0,0.4,0
			c0.7,0,2.5-0.1,4.2-0.5c1.8-0.5,3.5-1.4,4.3-3.2L31.3,81.9z"/>
		<path class="st5" d="M36.8,24.2c0-0.2-0.3-0.3-0.5-0.3c-0.3,0-0.6,0.3-0.7,0.6c-0.1,0.3-0.2,0.6-0.2,0.9c0,0.3,0,0.6,0.1,0.9
			c0.2,0.5,0.9,0.7,1.4,0.5"/>
		<path class="st8" d="M37.2,20.3c0,0-1.9,7.2-0.8,8.6c1.5,2.2,5.2,2.4,6.8,1.4c1.3-0.9,2.4-5.4,2.4-6.6
			C45.5,20.5,38.9,18.6,37.2,20.3"/>
		<path class="st15" d="M37.1,22.9c0,0.1-0.1,0.2-0.1,0.2c0,0.1-0.1,0.1-0.1,0.2c0,0.1,0,0.1,0,0.2c0,0,0.1,0.1,0.1,0.1
			c0.1,0,0.1,0,0.2,0c0,0,0.1-0.1,0.1-0.1c0-0.1,0-0.1,0.1-0.2c0-0.1,0-0.1,0-0.2c0,0,0-0.1,0-0.1l-0.1-0.1l-0.1,0L37.1,22.9z"/>
		<path class="st15" d="M38,22.1c0,0-0.1-0.1-0.2-0.2c-0.1-0.1-0.3-0.2-0.6-0.2c-0.2,0-0.4,0.1-0.6,0.2c-0.1,0-0.1,0.1,0,0.2
			c0,0.1,0.1,0.1,0.2,0c0.2-0.1,0.3-0.2,0.5-0.2c0.2,0,0.3,0.1,0.4,0.1c0,0,0.1,0.1,0.1,0.1l0,0l0,0c0,0.1,0.1,0.1,0.2,0
			C38,22.3,38,22.2,38,22.1"/>
		<path class="st15" d="M40.9,23.8c0,0.1,0,0.1-0.1,0.2c0,0.1,0,0.1-0.1,0.2c0,0.1,0,0.1,0,0.2c0,0,0.1,0.1,0.1,0.1
			c0.1,0,0.1,0,0.2,0c0,0,0.1-0.1,0.1-0.1c0-0.1,0-0.1,0-0.2c0-0.1,0-0.2,0-0.3l-0.1-0.1l-0.1-0.1l-0.1,0L40.9,23.8z"/>
		<path class="st15" d="M40.8,22.7L40.8,22.7c0,0,0.1,0,0.2,0c0.3,0,0.7,0.1,1.2,0.7c0,0.1,0.1,0.1,0.2,0c0.1,0,0.1-0.1,0-0.2
			c-0.5-0.6-1.1-0.8-1.4-0.8c-0.2,0-0.3,0-0.3,0c-0.1,0-0.1,0.1-0.1,0.2C40.7,22.7,40.7,22.7,40.8,22.7z"/>
		<path class="st8" d="M38.3,29.8l-0.6,5.4c0,0,0.3,2.4,3.8,2.4c3.6,0,6.1-2.5,6.1-2.5l-1.2-9.3"/>
		<path class="st16" d="M38.5,31c0,0,0.7,0.1,1.6,0.1c0.8,0,1.9-0.1,2.8-0.6c0.7-0.4,1.2-1,1.5-1.6c0.3-0.5,0.4-1,0.4-1l-0.5-0.2
			l0,0c0,0.1-0.2,0.5-0.4,0.9c-0.3,0.5-0.7,1-1.3,1.3c-0.8,0.4-1.7,0.5-2.5,0.5c-0.4,0-0.8,0-1.1-0.1c-0.1,0-0.2,0-0.3,0
			c-0.1,0-0.1,0-0.1,0L38.5,31z"/>
		<path class="st17" d="M39,23.3c0,0-0.3,0.4-0.5,0.8c-0.1,0.2-0.3,0.5-0.4,0.7c-0.1,0.2-0.2,0.4-0.2,0.6l0,0.1
			c0.1,0.2,0.2,0.4,0.4,0.4c0.2,0.1,0.4,0.1,0.5,0.1c0.2,0,0.3,0,0.3,0l0-0.3l-0.1,0c0,0-0.1,0-0.2,0c-0.1,0-0.3,0-0.4-0.1
			c-0.1-0.1-0.2-0.1-0.3-0.2l0,0c0-0.1,0.1-0.3,0.2-0.5c0.1-0.3,0.4-0.7,0.6-1c0.2-0.3,0.3-0.5,0.3-0.5L39,23.3z"/>
		<path class="st18" d="M43,25.4c-0.3,0.6-1.1,1-2,1.1c-1.6,0.2-3.4-0.5-5-0.3c-0.4,0-0.4,1.7-0.4,2.2c0,0.6,0.1,1.3,0.5,1.8
			c0.3,0.5,0.9,0.8,1.5,1c1.2,0.4,2.5,0.4,3.8,0.2c0.6-0.1,1.1-0.2,1.7-0.5c0.5-0.3,1-0.7,1.4-1.2c0.5-0.5,0.8-1.2,1.4-1.6
			c0.7-0.5,1.5-0.4,1.9-1.3c0.2-0.5,0.3-1.1,0.3-1.7c0.1-1.2,0-2.3,0-3.5c-0.2-2.9-2.5-4.2-4.8-4.4c-1.1-0.1-2.6-0.2-3.7-0.2
			c-0.9,0-2-0.4-2.8,0.1c-1.4,0.8-0.9,3.1,0.5,3.6c1.5,0.5,3.9,0,5.5,0.2c1.1,0.1,1.1,1.7,1.1,1.9C43.8,23.6,43.4,24.5,43,25.4"/>
		<path class="st19" d="M39.5,27.6l-2.4-0.3c0,0-0.4,1.7,1,1.8C39.5,29.3,39.5,27.6,39.5,27.6"/>
		<path class="st8" d="M45.6,24.6c0.3,0.1,0.5,0.3,0.6,0.6c0.6,1.3-0.9,3-2.2,2.4c-0.5-0.2-0.3-1.5,0.7-2.8
			C44.9,24.5,45.3,24.5,45.6,24.6"/>
		<path class="st8" d="M65.9,51c0,0,2,10.4,3.5,13.9c1.5,3.5,9.5,3.2,9.5,3.2l-2.6,7c0,0-13.3,1.3-16.2-3.4
			c-4-6.7-3.8-18.6-3.8-18.6"/>
		<path class="st8" d="M73.3,68.3c0,0,9.9-0.4,10.2,0.1c0.2,0.4-1.7,0.5-1.4,0.8s4.7,0.1,4.8,0.6c0.1,0.7-3.8,0.8-3.8,0.8
			s4.4,0.1,4.3,0.8c0,0.4-3.4,0.5-4.7,0.7c1.4,0,3.7,0.2,3.6,0.7c0,0.5-2.3,0.5-4.1,0.7c1.1,0,3.1,0.1,3.1,0.6c0,0.4-7.9,1-13.1,1.4
			"/>
		<path class="st9" d="M47.5,33.6c15.7,2.8,19.5,19.2,19.5,19.2l-11.2,3.7l-6.2-16"/>
		<path class="st9" d="M48.3,33.6c0,0,8.9,3.2,11.1,13.4c2.2,10.3,2.3,23.2,1.2,34.5c-18.3,2.2-41.2,0.6-41.2,0.6
			s-1.3-28.5,4.9-37.3S37,34,37,34l5.9,2.2L48.3,33.6z"/>
		<path class="st20" d="M36.3,74.5h20.5v1.1H35.2C35.2,75,35.7,74.5,36.3,74.5"/>
		<path class="st21" d="M81.8,75.6H53l5.5-17.7c0.3-0.9,1.1-1.5,2.1-1.5h26c0.6,0,1,0.6,0.8,1.1L81.8,75.6z"/>
		<path class="st22" d="M83.1,75.6H54.3l5.5-17.7c0.3-0.9,1.1-1.5,2.1-1.5h26c0.6,0,1,0.6,0.8,1.1L83.1,75.6z"/>
		<path class="st21" d="M74.6,66.3c-0.2,0.8-1.2,1.5-2.2,1.5c-1.1,0-1.8-0.7-1.6-1.5c0.2-0.8,1.2-1.5,2.2-1.5
			C74.1,64.8,74.8,65.4,74.6,66.3"/>
		<path class="st8" d="M31,54.7c0,0-3.8,8.7-3.1,10.2c0.6,1.5,16.7,2.6,16.7,2.6L44,75.5c0,0-18,0.1-25.8,0.1
			c-9.9,0-0.7-23.9-0.7-23.9"/>
		<path class="st8" d="M39.5,67.1c0,0,11.9,0.6,12.1,1.2c0.2,0.6-2.1,0.4-1.8,0.8c0.3,0.4,5.6,0.7,5.6,1.3c0.1,0.8-4.7,0.5-4.7,0.5
			s5.2,0.7,5.1,1.4c-0.1,0.5-4.1,0.2-5.6,0.3c1.7,0.1,4.4,0.7,4.3,1.2c-0.1,0.5-2.8,0.4-4.9,0.4c1.3,0.1,3.7,0.5,3.6,1
			c-0.1,0.5-9.6,0.4-15.8,0.2"/>
		<path class="st9" d="M37.3,34.3C20.2,33.3,16,53.4,16,53.4l15.5,3.1L34.1,46"/>
		<path class="st19" d="M38,32.7c1.9,1.9,4.9,3.5,4.9,3.5c0,0-1,1.9-2,3.7c0,0-3.9-3.1-5.3-5.6C35.6,34.3,37.4,33,38,32.7"/>
		<path class="st19" d="M42.9,36.2l2.3,3.4c0,0,2.2-1.2,3.8-5.7c0,0-0.9-1.2-1.8-1.7C46.2,33.6,42.9,36.2,42.9,36.2"/>
	</g>
	<polyline class="st23" points="31.3,56.4 34.3,48.5 33.8,48.3 30.8,56.3 	"/>
	<path class="st23" d="M61.1,54.7c-0.8-5.8-3.1-10.9-3.2-10.9l-0.5,0.2c0,0,0,0.1,0.1,0.2c0.4,1,2.3,5.5,3,10.5L61.1,54.7z"/>
	<rect x="130.6" y="79.1" class="st3" width="1.1" height="72.9"/>
	<rect x="5.6" y="79.1" class="st3" width="1.1" height="72.9"/>
	<g>
		<defs>
			<path id="SVGID_1_" d="M101.2,59.2c-1.8,0-3.9,1.1-4,3.1c0,0.5,0,1.1-0.3,1.6c-0.2,0.4-0.6,0.6-1,0.8c-0.4,0.1-0.7,0.2-1,0.4
				c-0.4,0.2-0.7,0.8-0.5,1.2c0.2,0.4,0.6,0.5,0.9,0.7c0.3,0.2,0.7,0.5,0.4,0.8c-0.1,0.2-0.4,0.2-0.4,0.2l1.2-0.1
				c0.6-0.1,1.2-0.5,1.6-1c0.2-0.3,0.4-0.6,0.6-0.8c0.2-0.2,0.5-0.3,0.7-0.3c0.9-0.2,1.8-0.3,2.6-0.8c0.4-0.2,0.7-0.4,0.7-0.8
				c0.1-0.4-0.2-0.7,0.2-1c0.3-0.3,0.7-0.5,1.1-0.9c0.3-0.3,0.5-0.8,0.4-1.2c-0.1-0.3-0.2-0.6-0.4-0.8
				C103.4,59.5,102.1,59.2,101.2,59.2C101.2,59.2,101.2,59.2,101.2,59.2"/>
		</defs>
		<clipPath id="SVGID_2_">
			<use xlink:href="#SVGID_1_"  style="overflow:visible;"/>
		</clipPath>
		<g class="st24">
			<defs>
				<rect id="SVGID_3_" x="93.8" y="58.8" width="11.2" height="9.6"/>
			</defs>
			<clipPath id="SVGID_4_">
				<use xlink:href="#SVGID_3_"  style="overflow:visible;"/>
			</clipPath>
			<g style="clip-path:url(#SVGID_4_);">
				
					<image style="overflow:visible;" width="43" height="37" xlink:href="556A5B71D71BEFAF.jpg"  transform="matrix(0.2594 0 0 -0.2594 93.8423 68.403)">
				</image>
			</g>
		</g>
	</g>
	<g>
		<path class="st3" d="M100.2,73.3h-1.7v-0.8h1.7c0.5,0,1-0.4,1-1v-1.4c0-0.5-0.4-1-1-1h-1.7v-0.8h1.7c1,0,1.8,0.8,1.8,1.8v1.4
			C102,72.5,101.2,73.3,100.2,73.3"/>
		<path class="st3" d="M96.5,75.4h-0.1c-1.8,0-3.3-1.5-3.3-3.3v-4.9h6.8v4.9C99.8,73.9,98.3,75.4,96.5,75.4"/>
		<path class="st25" d="M91.9,74.2c0,0,0.1,1.6,2.5,1.6h3.9c2.5,0,2.5-1.6,2.5-1.6H91.9z"/>
	</g>
	<rect x="0.9" y="75.6" class="st26" width="136.3" height="4.2"/>
	<g>
		<path class="st21" d="M105,75.6l-1.4,0l-6.2-18.4c-0.1-0.3,0.1-0.7,0.5-0.7c0.4,0,0.7,0.2,0.8,0.6L105,75.6z"/>
		<path class="st21" d="M127.2,74.5h-22.9v1.1h24C128.4,75,127.9,74.5,127.2,74.5"/>
		<path class="st27" d="M135.3,15.5l0.6,4.1c0,0,0.1,2.5,2.9,2.2c3-0.3,5.4-3.3,5.4-3.3l-2.7-7.4"/>
		<path class="st27" d="M134.3,5.4c-1.8,2-4.3,10-0.9,11.4c3.1,1.2,7.5,0,8.7-4.7C143.3,7.2,139,0.2,134.3,5.4"/>
		<path class="st16" d="M135.7,17.6c0,0,0.1,0,0.3,0c0.8,0,2.8-0.2,4.5-1.8l-0.3-0.3c-1.6,1.6-3.5,1.7-4.2,1.7c-0.1,0-0.2,0-0.2,0
			l-0.1,0L135.7,17.6z"/>
	</g>
	<path class="st28" d="M141.7,11.6L141.7,11.6L141.7,11.6z"/>
	<polygon class="st28" points="141.7,11.6 141.6,11.7 141.6,11.7 141.7,11.7 141.7,11.6 141.7,11.6 	"/>
	<g>
		<path class="st16" d="M134.4,10.2c0,0-0.3,0.4-0.5,0.8c-0.1,0.2-0.3,0.4-0.4,0.6c-0.1,0.2-0.2,0.4-0.2,0.6l0,0.1l0.2-0.1l-0.2,0.1
			c0.1,0.2,0.3,0.4,0.5,0.4c0.2,0.1,0.4,0.1,0.5,0.1c0.1,0,0.3,0,0.3,0l-0.1-0.4l0,0c0,0-0.1,0-0.2,0c-0.1,0-0.3,0-0.4-0.1
			c-0.1,0-0.2-0.1-0.2-0.2l0,0l0,0l0,0l0,0l0,0l0,0v0c0,0,0-0.2,0.1-0.4c0.1-0.3,0.3-0.6,0.5-0.9c0.2-0.3,0.3-0.5,0.3-0.5
			L134.4,10.2z"/>
		<path class="st29" d="M136.5,10.8c0,0.2,0,0.3,0.2,0.4c0.1,0,0.3-0.1,0.3-0.3c0-0.2,0-0.3-0.2-0.4
			C136.7,10.5,136.6,10.6,136.5,10.8"/>
		<path class="st29" d="M132.9,9.6c0,0.2,0,0.3,0.2,0.4c0.1,0,0.3-0.1,0.3-0.3c0-0.2,0-0.3-0.2-0.4C133.1,9.3,132.9,9.4,132.9,9.6"
			/>
		<path class="st19" d="M135,13.9l-2.2-0.6c0,0-0.3,1.6,0.7,1.9C134.7,15.5,135,13.9,135,13.9"/>
		<path class="st29" d="M140.5,13c-2.5-2.5-3.3-6.8-3.8-7.8c-0.4-0.7-3.1,1.6-3.5,2.1c-0.2,0-0.2,0.4-0.2,0.4s-0.5-1.4,0.3-2.2
			c1-1,1.7-2.7,3.3-2.3c2.3-1.2,5.9,0,7.4,2.4c2.3,3.7,0,7.9-1.4,8.7"/>
		<path class="st29" d="M143.5,11.9c0.5-0.8,3.5,0.1,4.6,1.6c1.2,1.5,3.1,5.5,3.1,6.2c0,1.4,0,1.5-1.3,1.8c-0.9,0.2-3.3-4.4-4.4-6
			c-1-1.6-2.7-2.3-2.4-2.8"/>
		<path class="st27" d="M139.4,11.7c0-0.2,0.2-0.6,0.7-0.8c0.9-0.3,1.4,0.8,1.3,1.7c-0.1,0.6-0.2,1-0.6,1.4c-0.5,0.6-1.1,0.7-1.4,0"
			/>
		<path class="st29" d="M136.5,9.4l0.1,0c0.6,0,0.9,0.3,1.1,0.6c0.1,0.1,0.2,0.3,0.2,0.4c0,0.1,0,0.1,0,0.1l0,0
			c0,0.1,0.1,0.1,0.2,0.1c0.1,0,0.1-0.1,0.1-0.2c0,0-0.1-0.3-0.3-0.7c-0.2-0.3-0.7-0.7-1.3-0.7l-0.1,0c-0.1,0-0.1,0.1-0.1,0.1
			C136.4,9.4,136.4,9.4,136.5,9.4z"/>
		<path class="st29" d="M132.9,8.6c0.2-0.1,0.3-0.1,0.5-0.1c0.2,0,0.5,0.1,0.6,0.2c0.1,0,0.2,0.1,0.2,0.1l0.1,0l0,0
			c0.1,0,0.1,0,0.2,0c0-0.1,0-0.1,0-0.2c0,0-0.5-0.4-1.1-0.4c-0.2,0-0.4,0-0.6,0.1c-0.1,0-0.1,0.1-0.1,0.2
			C132.8,8.6,132.9,8.6,132.9,8.6z"/>
		<path class="st27" d="M142.9,81.3l-6,63.8l-4.7,5.2c0,0,15.9-0.7,16.5-1.2c0.5-0.5-0.2-4.2-0.2-4.2l10.7-64.3L142.9,81.3z"/>
		<path class="st30" d="M146.1,149.2l2.9-2.4l-0.3-1.2l-4.2,3.6l-1.8,0l-7.3-3.1l-7.8,4.3c-0.8,0.5-0.4,1.7,0.5,1.7l11.1-0.1
			l2.9-2.1l0.8,0l0,2l6,0l0-2.8L146.1,149.2z"/>
		<path class="st27" d="M161.4,81.3l2.9,63.8l-4.7,5.2c0,0,15.9-0.7,16.5-1.2c0.5-0.5-0.2-4.2-0.2-4.2l1.8-64.3L161.4,81.3z"/>
		<path class="st30" d="M173.5,149.2l2.9-2.4l-0.3-1.2l-4.2,3.6l-1.8,0l-7.3-3.1l-7.8,4.3c-0.8,0.5-0.4,1.7,0.5,1.7l11.1-0.1
			l2.9-2.1l0.8,0l0,2l6,0l0-2.8L173.5,149.2z"/>
		<path class="st31" d="M167.9,49.3c2.1,1.5,4.3,3.4,6.4,6.8c6.7,10.6,4.4,67.7,4.4,67.7h-41.2c0,0,4.5-64.2,7.1-71.5"/>
		<path class="st32" d="M159.5,45.6c0,0,0.1,0.1,0.3,0.3c1.5,1.2,8,6.4,12,12.7c0.6,0.9,1,2.3,1.4,4.2c1.2,5.7,1.5,15.2,1.5,25.1
			c0,8.7-0.3,17.6-0.6,24.3c-0.1,3.4-0.3,6.2-0.4,8.2c-0.1,1-0.1,1.8-0.1,2.3c0,0.5,0,0.8,0,0.8l0.4,0c0,0,1.2-18.3,1.2-35.7
			c0-6.6-0.2-13-0.6-18.3c-0.2-2.6-0.5-5-0.9-6.9c-0.4-1.9-0.9-3.4-1.5-4.3c-4.7-7.3-12.5-13-12.5-13L159.5,45.6z"/>
		<path class="st32" d="M158.5,53.8c1.8,1.6,3.5,2.1,5,2.1c3,0,5-2.1,5-2.2l-0.3-0.3l0,0c-0.2,0.2-2.1,2-4.7,2c-1.4,0-3-0.5-4.8-2
			L158.5,53.8z"/>
		<path class="st27" d="M131.1,38.4c0,0-9.6,11.9-15,10.5c-5.4-1.4-13.6-19.4-13.6-19.4l6.3-2.8c0,0,7.2,9.4,8.2,9.4
			c1,0,7.9-7.5,7.9-7.5"/>
		<path class="st27" d="M110.5,28.9c0,0-5.4-7.9-5.8-7.9c-0.4,0,0.3,1.4-0.1,1.4c-0.3-0.1-1.9-3.2-2.3-3.1c-0.6,0.1,1,3,1,3
			s-0.4-0.5-0.9-0.3c-0.3,0.2-0.1,1-0.1,1s-0.5-0.3-0.8-0.1c-0.3,0.2-0.1,0.9-0.1,0.9s-0.4-0.6-0.8-0.2c-0.3,0.4,1.1,4.7,3.5,9.4"/>
		<path class="st16" d="M104.8,23.1c0,0,0.1,1.5,0.5,2.8l0.4-0.1c-0.2-0.6-0.3-1.3-0.4-1.8c0-0.3-0.1-0.5-0.1-0.7c0-0.2,0-0.3,0-0.3
			L104.8,23.1z"/>
		<path class="st16" d="M100.7,24.6c0.2,0.3,0.5,0.7,0.7,1c0.1,0.2,0.3,0.3,0.4,0.5c0.1,0.1,0.1,0.1,0.2,0.2
			c0.1,0.1,0.2,0.1,0.1,0.1c0,0,0-0.1,0-0.2c0-0.1,0-0.2-0.1-0.3c-0.1-0.2-0.1-0.4-0.2-0.6c-0.1-0.4-0.3-0.8-0.5-1.1l0.3-0.2
			c0.2,0.4,0.4,0.8,0.7,1.2c0.1,0.2,0.3,0.4,0.4,0.6c0.1,0.1,0.2,0.2,0.2,0.2c0,0,0,0,0,0c-0.1,0,0,0,0,0c0-0.2,0-0.4-0.1-0.6
			c0-0.2-0.1-0.5-0.2-0.7c-0.1-0.4-0.3-0.9-0.5-1.3l0.3-0.1c0.2,0.4,0.4,0.9,0.6,1.3c0.1,0.2,0.2,0.4,0.4,0.6
			c0.1,0.1,0.1,0.2,0.2,0.2l0.1,0l0,0c0-0.2,0-0.4,0-0.7c0-0.2-0.1-0.5-0.2-0.7c-0.1-0.5-0.2-0.9-0.4-1.4c0.2,0.4,0.4,0.9,0.5,1.4
			c0.1,0.5,0.3,0.9,0.3,1.5c0,0.1-0.1,0.2-0.2,0.2c-0.1,0-0.2,0-0.3-0.1c-0.1-0.1-0.2-0.2-0.3-0.3c-0.2-0.2-0.3-0.4-0.4-0.6
			c-0.3-0.4-0.5-0.9-0.7-1.3l0.3-0.1c0.2,0.4,0.3,0.9,0.5,1.4c0.1,0.2,0.1,0.5,0.2,0.7c0.1,0.2,0.1,0.5,0.1,0.8c0,0.1,0,0.2-0.2,0.3
			c-0.2,0.1-0.3,0-0.4,0c-0.1-0.1-0.2-0.2-0.3-0.3c-0.2-0.2-0.3-0.4-0.4-0.6c-0.3-0.4-0.5-0.8-0.7-1.3l0.3-0.1
			c0.2,0.4,0.3,0.8,0.5,1.2c0.1,0.2,0.1,0.4,0.2,0.6c0,0.1,0,0.2,0.1,0.3c0,0.1,0,0.2-0.1,0.4c-0.1,0.1-0.2,0.1-0.3,0
			c-0.1,0-0.1-0.1-0.2-0.1c-0.1-0.1-0.2-0.2-0.2-0.2c-0.1-0.2-0.3-0.3-0.4-0.5C101.1,25.3,100.9,25,100.7,24.6"/>
		<path class="st33" d="M136,19c-6.5,0-14.5,12.1-14.5,12.1l9.9,9.2l13.8-14.6"/>
		<path class="st33" d="M145.2,17.7c0,0,5.7-0.3,9.4,2.3c6.8,4.7,13.3,29.4,13.3,29.4c-6.8,7.1-23.9,9.8-23.9,9.8s-5.3-9.6-9.3-13.6
			c-4-4-5.1-7.8-3.5-16L145.2,17.7z"/>
		<path class="st19" d="M143.3,15.9l-4.5,5.2l2.8,3c0,0,2-3.3,3.6-6.4L143.3,15.9z"/>
		<path class="st19" d="M138.9,21.1l-2.6,2.9c0,0-1.4-2.4-1.7-4.9l1.2-0.8L138.9,21.1z"/>
		<path class="st34" d="M131,39.5c-0.2-0.8-0.3-1.7-0.3-2.7c0-1.6,0.2-3.4,0.4-4.7c0.1-0.7,0.2-1.2,0.3-1.6c0.1-0.4,0.1-0.6,0.1-0.6
			l-0.4-0.1c0,0-0.9,3.7-0.9,7.1c0,1,0.1,1.9,0.3,2.8L131,39.5z"/>
		<path class="st27" d="M155.3,39.2c-5.7,21.5-13.7,35-13.7,35l-6.9-3c7-22.1,8.9-34.8,8.9-34.8"/>
		<path class="st33" d="M144.2,26.8l-2.3,11l14,2.5c0,0,1.4-5,2-9.5"/>
	</g>
	<polyline class="st34" points="155.9,40.4 157.7,33 157.3,32.9 155.5,40.3 	"/>
	<polyline class="st34" points="142.1,37.8 143.6,30.4 143.2,30.3 141.7,37.8 	"/>
	<path class="st27" d="M145.2,67c0,0-3.4,8.4-4.9,8.4c-1.4,0-14.1,0.1-17.7,0.1c0.1-0.7,3.1-2,5.7-2.7c1.5-0.5,6.4-1.7,6.4-1.7
		l2.7-8.8"/>
</g>
</svg>
