<?xml version="1.0" encoding="utf-8"?>
<!-- Generator: Adobe Illustrator 24.0.1, SVG Export Plug-In . SVG Version: 6.00 Build 0)  -->
<svg version="1.1" id="圖層_1" xmlns="http://www.w3.org/2000/svg" xmlns:xlink="http://www.w3.org/1999/xlink" x="0px" y="0px"
	 viewBox="0 0 135 170" style="enable-background:new 0 0 135 170;" xml:space="preserve">
<style type="text/css">
	.st0{fill:#994F38;}
	.st1{fill:#824533;}
	.st2{fill:#2E0F05;}
	.st3{fill:none;stroke:#6E211C;stroke-width:0.258;stroke-miterlimit:10;}
	.st4{fill:none;stroke:#6E211C;stroke-width:0.172;stroke-miterlimit:10;}
	.st5{fill:#FFFFFF;}
	.st6{fill:#333333;}
	.st7{fill:none;stroke:#212138;stroke-width:0.172;stroke-linecap:round;stroke-linejoin:round;stroke-miterlimit:10;}
	.st8{fill:none;stroke:#2B78E8;stroke-width:0.258;stroke-miterlimit:10;}
	.st9{fill:#FFE0CC;}
	.st10{fill:none;stroke:#A67D52;stroke-width:0.258;stroke-miterlimit:10;}
	.st11{fill:#B2D1FF;}
	.st12{fill:#F7633B;}
	.st13{fill:#6E211C;}
	.st14{fill:none;stroke:#4052A6;stroke-width:0.258;stroke-linejoin:round;stroke-miterlimit:10;}
	.st15{fill:#DBDEF0;}
	.st16{fill:#F2F5FA;}
	.st17{fill:none;stroke:#4052A6;stroke-width:0.258;stroke-miterlimit:10;}
	.st18{fill:#E39473;}
	.st19{fill:#FFCCC2;}
	.st20{fill:#0F42AB;}
	.st21{fill:none;stroke:#0F1C4A;stroke-width:0.258;stroke-miterlimit:10;}
	.st22{fill:#66A3F5;}
	.st23{fill:none;stroke:#E88773;stroke-width:0.172;stroke-linejoin:round;stroke-miterlimit:10;}
	.st24{fill:none;stroke:#29364D;stroke-width:0.258;stroke-miterlimit:10;}
</style>
<g>
	<g>
		<path class="st0" d="M106.2,14.8l0.8,7.1c0,0-2.7,2.9-6.7,2.9c-4,0-4-2.7-4-2.7l0.8-6.1l6.2-6.5L106.2,14.8z"/>
		<path class="st1" d="M95.2,10.1c0-0.3-0.3-0.4-0.6-0.4c-0.4,0-0.7,0.3-0.8,0.7c-0.2,0.3-0.2,0.7-0.2,1.1c0,0.3,0,0.7,0.2,1
			c0.3,0.5,1,0.8,1.6,0.5"/>
		<path class="st0" d="M95.5,5.3c0,0-2.1,8.1-1,9.8c1.7,2.5,5.9,2.7,7.7,1.5c1.5-1,2.7-6.1,2.7-7.5C104.9,5.5,97.4,3.4,95.5,5.3"/>
		<path class="st2" d="M107.5,11.4c0.1-0.3,0.1-0.5,0.2-0.8c0.2-0.6,0.6-1.2,0.8-1.8c0.5-1.2,0.1-2.8-1-3.6
			c-0.2-0.1-0.4-0.3-0.6-0.4c-0.4-0.4-0.5-0.9-0.7-1.4c-0.2-0.4-0.4-0.8-0.8-1c-0.9-0.5-2.1,0.2-3-0.3c-0.2-0.1-0.4-0.3-0.5-0.4
			c-1.3-1-2.7-0.7-4.1-0.2c-0.6,0.2-0.9,0.5-1.4,0.9c-0.6,0.5-1.4,0.4-2,0.9c-0.6,0.5-0.8,1.3-0.8,2.1c0,0.3,0,0.6,0.1,0.8
			c0.2,0.3,0.5,0.6,0.8,0.7C95.5,7.2,96.3,7,97.2,7C98,6.9,99,6.3,99.8,6.6c0.8,0.3,1,1.3,2,1.3c0.4,0,0.8,0,1.1,0.3
			c0.3,0.3,0.1,0.9,0.3,1.3c0.2,0.4,0.5,0.7,0.8,1.1c0.5,0.7,1.2,1.2,0.9,2.1c-0.2,0.6-0.9,1.6-0.6,2.3c0.2,0.4,1.2,0.4,1.9-0.1
			c0.8-0.6,1-1.7,1.2-2.5C107.4,12,107.4,11.7,107.5,11.4"/>
		<path class="st3" d="M97,17c0,0,2.8,0.6,4.7-0.5c1.5-0.8,2.1-2.7,2.1-2.7"/>
		<path class="st0" d="M102.8,11.2c0.2-0.3,0.8-0.7,1.1-0.7s0.6,0.2,0.8,0.5c1.1,1.2-0.1,3.5-1.7,3.2c-0.6-0.1-0.4-0.9-0.4-0.9"/>
		<path class="st4" d="M96.8,9.5c0,0-1.2,1.9-1.1,2.4c0.1,0.5,1.4,0.6,1.4,0.6"/>
		<path class="st5" d="M95.7,13.2l3.4,0.5c0,0-0.7,1.8-2.5,1.4C95.3,14.8,95.7,13.2,95.7,13.2"/>
		<path class="st6" d="M95.5,9c-0.1,0.1-0.1,0.3-0.1,0.4c0,0.1,0,0.2,0.1,0.2c0.1,0,0.1,0,0.2-0.1c0-0.1,0.1-0.3,0.1-0.5
			c0-0.1,0-0.1-0.1-0.1C95.6,8.9,95.5,8.9,95.5,9"/>
		<path class="st7" d="M96.5,8.1c0,0-0.5-0.7-1.3-0.2"/>
		<path class="st6" d="M99.4,9.9c0,0.1-0.1,0.3-0.1,0.4c0,0,0,0.1,0,0.1c0,0,0,0.1,0.1,0.1c0.1,0,0.1,0,0.2-0.1
			c0-0.2,0.1-0.3,0.1-0.5c0,0,0-0.1,0-0.1c0,0,0,0-0.1-0.1C99.5,9.8,99.5,9.8,99.4,9.9"/>
		<path class="st7" d="M99.2,8.5c0,0,0.8-0.3,1.7,0.7"/>
		<path class="st0" d="M93.8,143.4l-1.6,16.4l0.1,5.2l-20.3-0.1c-0.5,0-0.9-0.4-0.9-0.9c0-0.4,0.2-0.7,0.6-0.8l8.7-4l0.8-17.1"/>
		<path class="st6" d="M70.3,164.7c0.2-0.6,0.6-1.4,1-1.5l9.3-4c5.1,2.1,11.7,0.5,11.7,0.5l1.2,7c0,0.2-0.2,0.4-0.4,0.4H70.4
			C70,167,70.3,164.7,70.3,164.7"/>
		<path class="st8" d="M73.1,162.3c0,0,1.5,2.1,1.8,3.1 M92.7,162.1c0,0-5.4,0.1-5.9,3.4 M93.3,165.5l-23.1-0.1 M76.4,160.7
			c0.4,0.5,0.7,1.2,1,1.7 M77.3,160.2c0.5,0.7,0.8,1.2,1.1,1.9 M78.5,159.5c0.5,0.7,1,1.4,1.3,2.2"/>
		<path class="st9" d="M84.3,68.3c-3.5,25-6.6,89.7-6.6,89.7h17.5c0,0,3.6-42.5,6.7-69.2c7.7-12.7,7.1-26.5,8-28.3"/>
		<path class="st10" d="M92.3,157.8c0,0,4.8-46.1,7.9-72.9"/>
		<path class="st0" d="M121.9,143.4l0.7,16.4l0.1,5.2l-20.3-0.1c-0.5,0-0.9-0.4-0.9-0.9c0-0.4,0.2-0.7,0.6-0.8l8.7-4l-1.5-17.1"/>
		<path class="st6" d="M100.7,164.7c0.2-0.6,0.6-1.4,1-1.5l9.3-4c5.1,2.1,11.7,0.5,11.7,0.5l1.2,7c0,0.2-0.2,0.4-0.4,0.4h-22.6
			C100.4,167,100.7,164.7,100.7,164.7"/>
		<path class="st8" d="M103.6,162.3c0,0,1.5,2.1,1.8,3.1 M123.1,162.1c0,0-5.4,0.1-5.9,3.4 M123.7,165.5l-23.1-0.1 M106.8,160.7
			c0.4,0.5,0.7,1.2,1,1.7 M107.8,160.2c0.5,0.7,0.8,1.2,1.1,1.9 M108.9,159.5c0.5,0.7,1,1.4,1.3,2.2"/>
		<path class="st9" d="M121.3,66c0.5,5.7,0.4,12.7-0.4,19.6c1.5,30.2,3.6,72.5,3.6,72.5H107c0,0-8.4-72.3-8.8-92.5"/>
		<path class="st10" d="M90,71.4c0,0-0.4,5.8-6.8,6.7 M98.9,78.1c0,0-1.8-0.5-1.9-1c-0.2-0.5-0.6-7-0.6-7 M118.5,78.1
			c0,0-5,0.4-7.8-6.7 M95.2,155.2H78 M124.3,155.2h-17.3 M100.8,98.3c0,0-2.4-20.9-2.6-28.6 M118.4,66c0.5,5.7,0.4,12.7-0.4,19.6
			c1.5,30.2,3.7,72.2,3.7,72.2"/>
		<path class="st0" d="M66.3,32.6c0,0-8.3-8.8-8.8-8.7c-0.5,0.1,0.6,1.7,0.2,1.7c-0.4,0-3-3.6-3.5-3.4c-0.7,0.3,1.8,3.5,1.8,3.5
			s-0.7-0.6-1.2-0.2c-0.4,0.3,0.1,1.3,0.1,1.3s-0.6-0.3-1,0C53.6,27.2,54,28,54,28s-0.7-0.7-1,0c-0.3,0.6,2.1,5.6,6.1,10.9"/>
		<path class="st11" d="M96.6,20.6c-4.2,0.4-8.6,2.4-11.4,5.9C80.6,32.5,74.7,40,74.7,40l-9.6-9.8l-9,7.5c0,0,12.5,17.7,18.7,17.7
			c5.6,0,15-8,17.7-12.3C98,34.5,96.6,20.6,96.6,20.6"/>
		<path class="st12" d="M106.8,19.7c0,0-1.2,1.7-5.8,2.2c-3.5,0.4-4.4-1.3-4.4-1.3S88,25.1,85.5,44c-2.5,18.8-2.8,28.7-2.8,28.7
			h40.1c0,0,0.1-14.3-1-26.7C120.6,33.3,117.9,22.6,106.8,19.7"/>
		<path class="st4" d="M58.3,26.4c0,0,0.4,1.9,1.1,3.3"/>
		<path class="st13" d="M53.3,29.2c0.3,0.4,0.7,0.8,1.1,1.2c0.2,0.2,0.4,0.4,0.6,0.5c0.1,0.1,0.2,0.2,0.3,0.2c0.1,0.1,0.3,0.1,0.3,0
			c0.1-0.1,0-0.2,0-0.3c0-0.1-0.1-0.2-0.1-0.4c-0.1-0.2-0.2-0.5-0.4-0.7c-0.3-0.5-0.5-0.9-0.8-1.3l0.1-0.1c0.4,0.5,0.7,1,1.1,1.4
			c0.2,0.2,0.4,0.4,0.6,0.6c0.2,0.2,0.6,0.4,0.5,0.1c0-0.3-0.1-0.6-0.2-0.8c-0.1-0.3-0.2-0.5-0.4-0.8c-0.3-0.5-0.5-1.1-0.8-1.6
			l0.1-0.1c0.3,0.5,0.7,1,1.1,1.5c0.2,0.2,0.4,0.5,0.6,0.7c0.1,0.1,0.2,0.2,0.3,0.3c0.1,0,0.1,0.1,0.2,0c0,0,0.1-0.1,0.1-0.1
			c0-0.3-0.1-0.6-0.2-0.9c-0.1-0.3-0.2-0.6-0.3-0.8c-0.3-0.6-0.5-1.1-0.8-1.6c0.3,0.5,0.6,1.1,0.9,1.6c0.1,0.3,0.3,0.6,0.4,0.8
			c0.1,0.3,0.2,0.6,0.2,0.9c0,0.1,0,0.2-0.1,0.2c-0.1,0-0.2,0-0.3,0c-0.1-0.1-0.3-0.2-0.4-0.3c-0.2-0.2-0.4-0.5-0.6-0.7
			c-0.4-0.5-0.7-1-1.1-1.5l0.1-0.1c0.3,0.5,0.6,1,0.9,1.6c0.1,0.3,0.3,0.5,0.4,0.8c0.1,0.3,0.2,0.6,0.2,0.9c0,0.1,0,0.2-0.1,0.3
			c-0.1,0.1-0.2,0-0.3,0c-0.2-0.1-0.3-0.2-0.4-0.3c-0.2-0.2-0.4-0.4-0.6-0.6c-0.4-0.5-0.8-0.9-1.1-1.4l0.1-0.1
			c0.3,0.4,0.6,0.9,0.8,1.4c0.1,0.2,0.2,0.5,0.3,0.7c0.1,0.1,0.1,0.2,0.1,0.4c0,0.1,0.1,0.3,0,0.4c-0.1,0.1-0.2,0.1-0.2,0.1
			c-0.1,0-0.1,0-0.2-0.1c-0.1-0.1-0.2-0.1-0.3-0.2c-0.2-0.2-0.4-0.4-0.6-0.5C53.9,30,53.6,29.6,53.3,29.2"/>
		<path class="st11" d="M96.6,20.6c-8.2,15.8-8.8,54.7-8.8,54.7h-6.3c0,0,0.3-25.2,5-41.7C88.6,26.6,93.8,21.1,96.6,20.6"/>
		<path class="st14" d="M90.6,41.8l-1.3-12.1l2.1-1.1l-2.1-1.3c0,0,1.8-3.5,3.4-6 M83.1,52.1c0,0,1.4-15.3,4.1-20.5"/>
		<path class="st11" d="M106.7,19.7c-4.9,10.6-0.6,55.6-0.6,55.6h19.1c0,0-0.9-16.5-1.7-22.9c-0.8-6.4-6-26.9-6-26.9L106.7,19.7z"/>
		<path class="st15" d="M118.6,62.2l-18.4,0.3l0,1.1l19.4-0.3C119.6,62.7,119.2,62.2,118.6,62.2"/>
		<path class="st15" d="M77.8,63.9l25.9-0.4l-5.2-17.3c-0.3-0.9-1-1.5-1.9-1.5l-23.4,0.3c-0.5,0-0.9,0.6-0.7,1.1L77.8,63.9z"/>
		<path class="st16" d="M76.6,64l25.9-0.4l-5.2-17.3c-0.3-0.9-1-1.5-1.9-1.5L72,45.2c-0.5,0-0.9,0.6-0.7,1.1L76.6,64z"/>
		<path class="st15" d="M84.1,54.7c0.2,0.8,1.1,1.5,2,1.4c1,0,1.6-0.7,1.4-1.5c-0.2-0.8-1.1-1.5-2-1.4
			C84.6,53.2,83.9,53.9,84.1,54.7"/>
		<path class="st0" d="M113.6,42.4c0,0,5.1,8.9,4.8,10.9c-0.2,1.5-14,5.1-14,5.1l0.6,8.7c0,0,23.1-2,25.8-6.6
			c3.7-6.3-6.5-22.7-6.5-22.7"/>
		<path class="st0" d="M107,57.9c-1.9,0.3-11.9,2.4-11.7,2.9c0.1,0.5,3,0.4,3,0.7c-0.1,0.4-2.3,0.9-3.5,1.1
			c-1.1,0.2-2.9,0.6-2.8,1.1c0,0.9,6.1,0,6.1,0s-6.7-0.2-6.8,0.6c-0.1,1.1,7,1,7.3,1.3c0,0-6.2-1.6-6.3-0.8
			c-0.1,0.8,5.4,2.4,7.1,2.3c-1.4-0.2-5.7-2.3-5.7-1.5c0,0.8,3.7,1.9,4.3,1.9c4.9,0.4,9.3-0.7,9.3-0.7"/>
		<path class="st13" d="M92.5,63.9c0.8-0.1,1.6-0.2,2.4-0.2c0.8,0,1.6-0.1,2.4-0.1c-0.4,0.1-0.8,0.1-1.2,0.2c-0.4,0-0.8,0.1-1.2,0.1
			C94.1,63.9,93.3,64,92.5,63.9"/>
		<path class="st13" d="M93.2,65c0.9,0,1.7,0.1,2.6,0.2c0.4,0,0.9,0.1,1.3,0.1c0.4,0,0.9,0,1.3,0c-0.4,0.1-0.9,0.1-1.3,0.1
			c-0.4,0-0.9,0-1.3,0c-0.4,0-0.9-0.1-1.3-0.1C94.1,65.1,93.7,65.1,93.2,65"/>
		<path class="st13" d="M94.4,66c0.8,0.1,1.5,0.2,2.3,0.3c0.8,0.1,1.5,0.2,2.3,0.3c-0.4,0-0.8,0-1.2,0c-0.4,0-0.8-0.1-1.2-0.1
			C95.9,66.3,95.1,66.2,94.4,66"/>
		<path class="st11" d="M106.7,19.7c5.4,0.9,12.1,2.6,14.8,6.1c4.2,5.5,15.3,28.3,11.2,33.9c-3.5,4.8-23,8.4-23,8.4l-5.3-10.7
			l13.3-5l-8.3-18.1"/>
	</g>
	<path class="st17" d="M106.1,56.6l5.5,10.9 M109.7,68l14.8-3.6 M104.4,57.3l13.3-5l-6.7-14.6"/>
	<g>
		<path class="st14" d="M104.3,42.4c0.9-5.6,4.5-10.2,4.5-10.2l-2.2-2.4l3.1-1.1c0,0,1.4-5.9,2.5-7.8"/>
		<path class="st18" d="M73,41.5c0,0,3.1,7,3.9,12.3c0.8,5.3-6.5,20.2-6.5,20.2l-6.3-3.7c0,0,1.9-11.1,1.9-15c0-3.9-3.6-9.4-3.6-9.4
			"/>
		<path class="st19" d="M64.4,69.5c-0.8,2.4-4.3,9.1-3.9,9.5c0.4,0.4,1.6-1.9,1.9-1.6c0.2,0.4-1.5,4.1-1,4.4
			c0.6,0.4,2.2-3.5,2.2-3.5s-1.5,4.4-0.8,4.5c0.5,0.1,1.7-3.1,2.4-4.3c-0.5,1.4-1.1,3.7-0.7,3.8c0.5,0.1,1.4-2.1,2.2-3.7
			c-0.4,1.1-1,3.1-0.6,3.2c0.4,0.1,3-5.1,5.3-10.1"/>
		<path class="st18" d="M60.2,100.9c-0.8,17.7,4.1,61.8,4.1,61.8l-5.5,3.5c0,0,16.8,0.8,17.3,0.3c0.5-0.5-0.6-3.9-0.6-3.9
			s0.5-52.2,1-59.9C76.9,95,60.9,83.2,60.2,100.9"/>
		<path class="st6" d="M71.9,166.4l4-2.2l-0.3-1.2l-5.2,3.4l-1.7,0l-5.8-2.9l-6.3,4c-0.7,0.5-0.4,1.6,0.5,1.6l8.5,0l2.7-1.9l0.8,0
			l0,1.9l7.3,0l0-2.6L71.9,166.4z"/>
		<path class="st18" d="M37.8,103.9c-1.2,24.8-0.8,58.8-0.8,58.8l-5.4,3.5c0,0,16.8,0.7,17.3,0.2c0.5-0.5-0.6-3.9-0.6-3.9
			s4.7-43.1,6.3-59.2C56.2,87.3,39,79.1,37.8,103.9"/>
		<path class="st6" d="M44.7,166.4l4-2.2l-0.3-1.2l-5.2,3.4l-1.7,0l-5.8-2.9l-6.3,4c-0.7,0.5-0.4,1.6,0.5,1.6l8.5-0.1l2.7-1.9l0.8,0
			l0,1.9l7.3,0l0-2.6L44.7,166.4z"/>
		<path class="st20" d="M68.2,63.4c1.4,1,4.7,5.6,6,10.1c3.1,10.6,3.2,34,3.2,34H36.9c0,0,0.2-22.5,1.8-32.3
			c0.8-5.2,3.1-9.8,4.5-11.8"/>
		<path class="st21" d="M45.5,63.1c-1.2,1-3.3,4.8-3.8,9.1c-2,14.5-1.5,35.3-1.5,35.3"/>
		<path class="st22" d="M58.3,26.7c12.1,0.8,16.1,15.9,16.1,15.9l-8.6,5.9"/>
	</g>
	<line class="st21" x1="69.5" y1="43.5" x2="73.8" y2="40.7"/>
	<g>
		<path class="st18" d="M36.3,34c0,0-9,7-10.5,7c-1.5,0-13.1-10.8-13.1-10.8l-6.1,7.2c0,0,12.3,16.8,18.9,16.8
			c8.7,0,18.1-9.6,18.1-9.6"/>
		<path class="st22" d="M49.4,26.7c0,0,1.4,1.1,4.1,0.7c2.7-0.3,4.9-0.9,4.9-0.9c0,0.1,10.9,5.1,11.3,11.4c0.4,7,0.4,11.2-1.5,25.5
			H43.3c0,0-3.9-17.5-3.9-24.2S49.4,26.7,49.4,26.7"/>
		<path class="st22" d="M49.4,26.7c0,0-3.7-0.2-6.9,1.6c-5.5,3.1-10,8-10,8l7.3,12.8l7.6-5.4"/>
		<path class="st21" d="M40.5,48.9l6.4-4.5 M34.3,34.5l7.4,13.5 M69.9,45.7c0.2-5.9-0.7-9.9-0.7-9.9"/>
		<path class="st18" d="M17.1,34.2c0,0-10.3-9.5-10.9-9.3c-0.6,0.2,1.2,2.1,0.6,2.1c-0.6,0.1-4.7-4.2-5.2-3.9
			c-0.8,0.5,2.7,4.1,2.7,4.1s-0.9-0.6-1.5,0c-0.4,0.5,0.7,1.9,0.7,1.9S2.4,28.5,2,29c-0.4,0.5,0.6,2,0.6,2s-0.8-0.6-1,0
			c-0.4,0.8,4.7,6.8,9.4,12"/>
		<path class="st18" d="M57.8,20.3l0.9,6.9c0,0-4.5,4.7-9.3-0.5l-0.3-3.9L57.8,20.3z"/>
		<path class="st18" d="M50.2,11.2c0,0-6.5,7.4-4.1,10.4c1.2,1.6,6.6,3.5,8.5,2.3c1.4-0.9,4.1-7.1,3.5-8.4
			C55.7,11,50.2,11.2,50.2,11.2"/>
		<path class="st6" d="M50.5,12.6c-0.4,4.3,0.9,6.5,0.9,6.5s-2.8,9-2.2,9.8c0.6,0.9,9.8,2.2,14.3,0.3c0,0,0.7-13.6-3.4-17
			c-3.9-3.3-9-3-11.7-1.3c0,0,0.2,0.8,1.2,1.3C50,12.3,50.6,12.6,50.5,12.6"/>
		<path class="st18" d="M50.5,18c0.8-1,1.4-0.8,1.8-0.3c0.5,0.7-0.5,2.3-0.9,2.5c-0.9,0.5-1.6,0.5-1.7-0.2"/>
		<path class="st23" d="M49.1,23.5c0.9,0,1.2-0.8,1.2-0.8"/>
		<path class="st24" d="M48.6,14.3c0.4,0.1,1,0.5,1.2,1"/>
		<path class="st5" d="M47.8,18.7L46.4,18c0,0-0.9,1.6-0.3,2C46.8,20.4,47.8,18.7,47.8,18.7"/>
		<path class="st6" d="M59.2,14.2c-1-0.3-1.7-1.3-1.7-2.4c0-1,0.7-2,1.6-2.5c0.9-0.5,2-0.5,3.1-0.3c0.4,0.1,0.8,0.3,1.1,0.5
			c1.3,1,1.3,3.1,0.3,4.4c-0.4,0.5-0.9,1-1.6,1.2c-0.6,0.2-1.4-0.1-1.7-0.7"/>
		<path class="st18" d="M47.7,15.1c-0.2,0.1-2.1,0.6-2.2,1.3c-0.1,0.4,0.9,1,0.9,1"/>
		<path class="st6" d="M48.2,15.2c-0.1,0.1-0.1,0.3-0.1,0.4c0,0.1,0,0.2,0.1,0.2c0.1,0,0.1,0,0.2-0.1c0-0.1,0.1-0.3,0.1-0.5
			c0-0.1,0-0.1-0.1-0.1C48.2,15.1,48.2,15.2,48.2,15.2"/>
	</g>
</g>
</svg>
